<svg width="44" height="28" viewBox="0 0 44 28" fill="none" xmlns="http://www.w3.org/2000/svg">
<path d="M39.5128 24.0512C38.8175 24.0512 38.1378 23.8449 37.5599 23.4583C36.982 23.0718 36.5317 22.5225 36.2662 21.8799C36.0007 21.2373 35.9319 20.5304 36.0684 19.8486C36.2049 19.1669 36.5407 18.541 37.0332 18.0502C37.5257 17.5594 38.1527 17.2258 38.8349 17.0917C39.5171 16.9575 40.2238 17.0288 40.8655 17.2965C41.5072 17.5643 42.0549 18.0164 42.4394 18.5957C42.824 19.1749 43.028 19.8553 43.0255 20.5506C43.0256 21.0113 42.9346 21.4675 42.7579 21.893C42.5812 22.3185 42.3223 22.705 41.9959 23.0302C41.6696 23.3554 41.2822 23.613 40.8561 23.7882C40.43 23.9634 39.9735 24.0528 39.5128 24.0512ZM39.5128 18.3019C39.068 18.3019 38.6333 18.4338 38.2635 18.6809C37.8937 18.928 37.6055 19.2792 37.4353 19.69C37.2651 20.1009 37.2205 20.5531 37.3073 20.9893C37.3941 21.4255 37.6082 21.8261 37.9227 22.1406C38.2372 22.4551 38.6379 22.6693 39.0741 22.756C39.5103 22.8428 39.9624 22.7983 40.3733 22.6281C40.7842 22.4579 41.1354 22.1696 41.3825 21.7999C41.6295 21.4301 41.7614 20.9953 41.7614 20.5506C41.7614 19.9542 41.5245 19.3822 41.1028 18.9605C40.6811 18.5388 40.1091 18.3019 39.5128 18.3019Z" fill="#54C270"/>
<path d="M39.5128 14.0256C38.8175 14.0256 38.1378 13.8192 37.5599 13.4327C36.982 13.0462 36.5317 12.4968 36.2662 11.8542C36.0007 11.2116 35.9319 10.5047 36.0684 9.82299C36.2049 9.14124 36.5407 8.51535 37.0332 8.02457C37.5257 7.53379 38.1527 7.20019 38.8349 7.06602C39.5171 6.93186 40.2238 7.00316 40.8655 7.27089C41.5072 7.53863 42.0549 7.99077 42.4394 8.57004C42.824 9.14931 43.028 9.82966 43.0255 10.5249C43.0256 10.9857 42.9346 11.4419 42.7579 11.8674C42.5812 12.2929 42.3223 12.6793 41.9959 13.0046C41.6696 13.3298 41.2822 13.5874 40.8561 13.7626C40.43 13.9378 39.9735 14.0272 39.5128 14.0256ZM39.5128 8.27627C39.068 8.27627 38.6333 8.40815 38.2635 8.65524C37.8937 8.90233 37.6055 9.25352 37.4353 9.66441C37.2651 10.0753 37.2205 10.5274 37.3073 10.9636C37.3941 11.3998 37.6082 11.8005 37.9227 12.115C38.2372 12.4295 38.6379 12.6436 39.0741 12.7304C39.5103 12.8172 39.9624 12.7726 40.3733 12.6024C40.7842 12.4322 41.1354 12.144 41.3825 11.7742C41.6295 11.4044 41.7614 10.9697 41.7614 10.5249C41.7614 9.92855 41.5245 9.3566 41.1028 8.93489C40.6811 8.51319 40.1091 8.27627 39.5128 8.27627Z" fill="#54C270"/>
<path d="M26.4813 20.6118C26.3087 19.461 26.1361 18.3103 25.9635 17.1595C25.8484 15.5484 25.4456 13.9374 25.2154 12.614C24.7551 9.39182 25.1004 3.63798 22.3961 1.33644C20.9001 0.0706 18.8287 0.300757 16.9875 0.243219C14.5133 0.18568 12.0392 0.128131 9.50747 0.070593C6.22778 0.0130546 1.85485 -0.619861 0.704081 3.35029C-0.561764 7.66567 0.186246 13.3044 0.589015 17.6773C0.934245 21.5324 0.589005 26.5383 5.30715 27.0561C11.2336 27.7466 17.3902 27.4013 23.2591 26.8835C24.0071 26.8259 24.5825 26.4807 24.8702 25.8478C26.3087 24.9847 26.7114 22.6256 26.4813 20.6118Z" fill="#F7D06F"/>
<path d="M15.3195 23.4312C14.514 18.2528 13.9386 13.0743 13.5358 7.83833C13.4208 6.39987 11.6946 5.5368 10.6014 6.63003C8.81768 8.41373 7.60937 10.4276 6.80383 12.7866C6.05583 14.9156 9.39307 15.7786 10.1411 13.7073C10.2561 13.362 10.3712 13.0168 10.5438 12.6716C10.9466 16.5842 11.4069 20.4392 12.0398 24.2943C12.3275 26.5383 15.6648 25.6177 15.3195 23.4312Z" fill="white"/>
</svg>
