<svg width="44" height="28" viewBox="0 0 44 28" fill="none" xmlns="http://www.w3.org/2000/svg">
<path d="M39.5128 14.0256C38.818 14.0256 38.1389 13.8196 37.5612 13.4336C36.9835 13.0476 36.5333 12.4989 36.2674 11.8571C36.0015 11.2152 35.932 10.5089 36.0675 9.82747C36.203 9.14606 36.5376 8.52013 37.0289 8.02886C37.5201 7.53759 38.1461 7.20304 38.8275 7.0675C39.5089 6.93196 40.2152 7.00152 40.8571 7.2674C41.4989 7.53327 42.0476 7.98352 42.4336 8.5612C42.8195 9.13887 43.0256 9.81802 43.0256 10.5128C43.0256 11.4444 42.6555 12.3379 41.9967 12.9967C41.3379 13.6555 40.4444 14.0256 39.5128 14.0256ZM39.5128 8.27628C39.0675 8.27629 38.6323 8.40849 38.2622 8.65612C37.8922 8.90375 37.604 9.25567 37.4342 9.66727C37.2643 10.0789 37.2205 10.5316 37.3083 10.9681C37.396 11.4046 37.6114 11.8053 37.9271 12.1193C38.2428 12.4333 38.6446 12.6465 39.0816 12.7319C39.5186 12.8172 39.9711 12.771 40.3818 12.5989C40.7924 12.4269 41.1428 12.1368 41.3884 11.7654C41.634 11.394 41.7639 10.958 41.7614 10.5128C41.7615 10.2181 41.7032 9.92624 41.59 9.6541C41.4769 9.38196 41.3111 9.13486 41.1021 8.92702C40.8931 8.71918 40.6451 8.55469 40.3724 8.44302C40.0996 8.33134 39.8075 8.27468 39.5128 8.27628Z" fill="#54C270"/>
<path d="M39.5128 24.0512C38.818 24.0512 38.1389 23.8452 37.5612 23.4592C36.9835 23.0732 36.5333 22.5246 36.2674 21.8827C36.0015 21.2408 35.932 20.5345 36.0675 19.8531C36.203 19.1717 36.5376 18.5458 37.0289 18.0545C37.5201 17.5632 38.1461 17.2287 38.8275 17.0931C39.5089 16.9576 40.2152 17.0272 40.8571 17.293C41.4989 17.5589 42.0476 18.0092 42.4336 18.5868C42.8195 19.1645 43.0256 19.8437 43.0256 20.5384C43.0256 21.4701 42.6555 22.3636 41.9967 23.0223C41.3379 23.6811 40.4444 24.0512 39.5128 24.0512ZM39.5128 18.3019C39.0675 18.3019 38.6323 18.4341 38.2622 18.6818C37.8922 18.9294 37.604 19.2813 37.4342 19.6929C37.2643 20.1045 37.2205 20.5572 37.3083 20.9937C37.396 21.4303 37.6114 21.8309 37.9271 22.1449C38.2428 22.4589 38.6446 22.6721 39.0816 22.7575C39.5186 22.8429 39.9711 22.7966 40.3818 22.6246C40.7924 22.4525 41.1428 22.1624 41.3884 21.791C41.634 21.4196 41.7639 20.9837 41.7614 20.5384C41.7615 20.2437 41.7032 19.9519 41.59 19.6797C41.4769 19.4076 41.3111 19.1605 41.1021 18.9527C40.8931 18.7448 40.6451 18.5803 40.3724 18.4687C40.0996 18.357 39.8075 18.3003 39.5128 18.3019Z" fill="#54C270"/>
<path d="M26.4813 20.6118C26.3087 19.461 26.1361 18.3103 25.9635 17.1595C25.8484 15.5484 25.4456 13.9374 25.2155 12.614C24.7551 9.39182 25.1004 3.63798 22.3961 1.33644C20.9001 0.0706 18.8287 0.300757 16.9875 0.243219C14.5133 0.18568 12.0392 0.128131 9.50746 0.070593C6.22777 0.0130546 1.85486 -0.619861 0.704089 3.35029C-0.561757 7.66567 0.186235 13.3044 0.589005 17.6773C0.934235 21.5324 0.589012 26.5383 5.30716 27.0561C11.2336 27.7466 17.3902 27.4013 23.2591 26.8835C24.0071 26.8259 24.5825 26.4807 24.8702 25.8478C26.3087 24.9847 26.769 22.6256 26.4813 20.6118Z" fill="#EF86B0"/>
<path d="M19.2894 18.0226C19.1743 15.1457 17.0454 13.8223 14.6288 13.1894C16.3549 11.4057 17.9085 9.2768 16.6426 7.20541C14.5137 3.75311 10.7162 6.28479 7.83925 6.16971C5.59525 6.11217 5.59525 9.56448 7.83925 9.62202C8.99002 9.67955 12.3848 8.24109 13.1328 8.75894C13.8232 9.27679 10.1408 12.7866 9.62294 13.3045C8.64479 14.3977 9.2777 16.2965 10.8312 16.2389C12.1546 16.2389 14.9165 16.0088 15.6645 17.4472C15.4919 18.1952 15.3192 18.9432 15.1466 19.6912C14.4562 20.3242 13.6506 20.7269 12.7876 20.842C11.6943 21.0722 10.486 21.0146 9.39277 21.0146C7.14878 21.0146 7.14878 24.4669 9.39277 24.4669C13.3629 24.5245 19.462 23.3737 19.2894 18.0226Z" fill="white"/>
</svg>
