<svg width="135" height="40" viewBox="0 0 135 40" fill="none" xmlns="http://www.w3.org/2000/svg">
<rect width="135" height="40" rx="5" fill="white"/>
<path fill-rule="evenodd" clip-rule="evenodd" d="M5 0H130C132.761 0 135 2.23858 135 5V35C135 37.7614 132.761 40 130 40H5C2.23858 40 0 37.7614 0 35V5C0 2.23858 2.23858 0 5 0ZM134.2 5C134.2 2.6804 132.32 0.8 130 0.8H5C2.6804 0.8 0.8 2.6804 0.8 5V35C0.8 37.3196 2.6804 39.2 5 39.2H130C132.32 39.2 134.2 37.3196 134.2 35V5Z" fill="#A6A6A6"/>
<path fill-rule="evenodd" clip-rule="evenodd" d="M82.6797 29.0762C81.0449 29.0762 79.8486 28.2676 79.7109 27.0362L77.8086 27.0361C77.9287 29.2822 79.7881 30.7031 82.542 30.7031C85.4853 30.7031 87.3359 29.248 87.3359 26.9248C87.3359 25.1084 86.2773 24.0849 83.7295 23.4824L82.3613 23.1465C80.7607 22.751 80.1064 22.2344 80.1064 21.3565C80.1064 20.2549 81.1308 19.4981 82.6279 19.4981C84.125 19.4981 85.1494 20.2461 85.2617 21.4854H87.1377C87.0771 19.3428 85.2783 17.8711 82.6543 17.8711C80.0029 17.8711 78.1357 19.3428 78.1357 21.4854C78.1357 23.2158 79.1943 24.2822 81.4746 24.833L83.084 25.2207C84.6934 25.6162 85.373 26.1934 85.373 27.1572C85.373 28.2676 84.2461 29.0762 82.6797 29.0762ZM50.3027 27.1397H45.5693L44.4326 30.4962H42.4277L46.9111 18.0782H48.9941L53.4775 30.4962H51.4385L50.3027 27.1397ZM46.0596 25.5909H49.8116L47.962 20.1436H47.9102L46.0596 25.5909ZM59.3818 30.5909C61.6543 30.5909 63.1602 28.7833 63.1602 25.9698C63.1602 23.1641 61.6455 21.3477 59.3477 21.3477C58.1653 21.3096 57.0577 21.9245 56.4648 22.9483H56.4307V21.4424H54.6318V33.4913H56.4902V29.0069H56.5332C57.1008 30.0371 58.2072 30.6523 59.3818 30.5909ZM61.25 25.9698C61.25 24.1368 60.3027 22.9317 58.8574 22.9317C57.4375 22.9317 56.4824 24.1622 56.4824 25.9698C56.4824 27.794 57.4375 29.0157 58.8574 29.0157C60.3027 29.0157 61.25 27.8194 61.25 25.9698ZM69.3467 30.5909C71.6191 30.5909 73.125 28.7833 73.125 25.9698C73.125 23.1641 71.6103 21.3477 69.3125 21.3477C68.1301 21.3096 67.0225 21.9245 66.4296 22.9483H66.3955V21.4424H64.5966V33.4913H66.455V29.0069H66.498C67.0656 30.0371 68.1721 30.6523 69.3467 30.5909ZM71.2148 25.9698C71.2148 24.1368 70.2676 22.9317 68.8223 22.9317C67.4023 22.9317 66.4473 24.1622 66.4473 25.9698C66.4473 27.794 67.4023 29.0157 68.8223 29.0157C70.2676 29.0157 71.2148 27.8194 71.2148 25.9698ZM91.3467 19.2999V21.4424H93.0684V22.9141H91.3467V27.9053C91.3467 28.6807 91.6914 29.042 92.4482 29.042C92.6526 29.0385 92.8567 29.0241 93.0596 28.999V30.4619C92.7193 30.5255 92.3734 30.5543 92.0273 30.5479C90.1943 30.5479 89.4795 29.8594 89.4795 28.1035V22.9141H88.1631V21.4424H89.4795V19.2999H91.3467ZM98.3594 21.3311C95.7432 21.3311 94.0655 23.1212 94.0655 25.9698C94.0655 28.8262 95.7266 30.6085 98.3594 30.6085C100.993 30.6085 102.654 28.8262 102.654 25.9698C102.654 23.1211 100.984 21.3311 98.3594 21.3311ZM100.761 25.9698C100.761 24.0157 99.8653 22.8624 98.3594 22.8624C96.8535 22.8624 95.959 24.0245 95.959 25.9698C95.959 27.9317 96.8535 29.0762 98.3594 29.0762C99.8653 29.0762 100.761 27.9317 100.761 25.9698H100.761ZM105.959 21.4424H104.187L104.187 30.4961H106.045V25.126C105.983 24.5827 106.162 24.0395 106.534 23.6391C106.906 23.2386 107.435 23.0208 107.981 23.043C108.264 23.0348 108.546 23.0727 108.816 23.1553V21.417C108.607 21.3702 108.394 21.3469 108.18 21.3477C107.158 21.3087 106.249 21.9914 106.002 22.9834H105.959V21.4424ZM117.385 27.837C117.135 29.4805 115.534 30.6084 113.486 30.6084C110.853 30.6084 109.218 28.8438 109.218 26.0127C109.218 23.1729 110.861 21.3311 113.408 21.3311C115.913 21.3311 117.488 23.0518 117.488 25.7969V26.4336H111.094V26.5459C111.034 27.22 111.267 27.8872 111.733 28.3778C112.199 28.8685 112.853 29.1353 113.529 29.1104C114.431 29.1949 115.281 28.677 115.62 27.837L117.385 27.837ZM115.629 25.1348H111.103C111.101 24.5236 111.344 23.937 111.777 23.5055C112.21 23.074 112.797 22.8333 113.408 22.837C114.015 22.8239 114.599 23.0645 115.021 23.5007C115.442 23.9369 115.663 24.5292 115.629 25.1348Z" fill="#112A62"/>
<path fill-rule="evenodd" clip-rule="evenodd" d="M67.0947 8.43701H67.9834V14.6978H67.0947V8.43701ZM47.9327 9.54888C47.3888 8.97456 46.6161 8.6744 45.8271 8.73101H43.6719V14.6979H45.8271C47.6045 14.6979 48.6348 13.6021 48.6348 11.6959C48.7342 10.9112 48.4766 10.1232 47.9327 9.54888ZM45.7236 13.854H44.5986V9.57422H45.7236C46.2845 9.5431 46.8298 9.76423 47.2106 10.1771C47.5914 10.5901 47.7677 11.1515 47.6914 11.708C47.7737 12.2668 47.5999 12.833 47.2182 13.2493C46.8364 13.6656 46.2874 13.8877 45.7236 13.854ZM49.6816 12.4444C49.6044 11.6372 49.9914 10.8561 50.6804 10.4286C51.3693 10.0011 52.241 10.0011 52.93 10.4286C53.6189 10.8561 54.0059 11.6372 53.9287 12.4444C54.0074 13.2523 53.6207 14.035 52.9312 14.4634C52.2416 14.8918 51.3687 14.8918 50.6792 14.4634C49.9896 14.035 49.603 13.2523 49.6816 12.4444ZM51.8066 10.8975C52.5762 10.8975 53.0146 11.4683 53.0146 12.4444H53.0146C53.0146 13.4243 52.5762 13.9946 51.8066 13.9947C51.0342 13.9947 50.5996 13.4283 50.5996 12.4444C50.5996 11.4683 51.0342 10.8975 51.8066 10.8975ZM59.5742 14.6978H58.6523L57.7217 11.3814H57.6514L56.7246 14.6978H55.8115L54.5703 10.1948H55.4717L56.2783 13.6308H56.3447L57.2705 10.1948H58.1231L59.0488 13.6308H59.1191L59.9219 10.1948H60.8105L59.5742 14.6978ZM62.71 10.1948H61.8545L61.8545 14.6978H62.7432V12.0635C62.7113 11.7638 62.8118 11.4652 63.0185 11.2458C63.2252 11.0265 63.5173 10.9084 63.8184 10.9224C64.4756 10.9224 64.79 11.2822 64.79 12.0059V14.6977H65.6787V11.7827C65.7438 11.3424 65.6052 10.8964 65.302 10.5706C64.9988 10.2448 64.5639 10.0745 64.1201 10.1079C63.5469 10.0613 63.0073 10.3835 62.7764 10.9102H62.71V10.1948ZM70.2177 10.4285C69.5287 10.8561 69.1416 11.6372 69.2187 12.4444C69.1402 13.2524 69.5269 14.035 70.2165 14.4634C70.9061 14.8918 71.779 14.8918 72.4686 14.4634C73.1582 14.035 73.5449 13.2524 73.4663 12.4444C73.5435 11.6372 73.1564 10.8561 72.4674 10.4285C71.7784 10.001 70.9066 10.001 70.2177 10.4285ZM72.5517 12.4444C72.5517 11.4683 72.1133 10.8975 71.3437 10.8975C70.5713 10.8975 70.1367 11.4683 70.1367 12.4444C70.1367 13.4283 70.5713 13.9947 71.3437 13.9947C72.1133 13.9946 72.5518 13.4243 72.5517 12.4444ZM76.0767 12.0801C75.0054 12.1465 74.4019 12.6138 74.4019 13.4243C74.4034 13.8087 74.5674 14.1744 74.8534 14.4312C75.1393 14.6879 75.5206 14.8117 75.9028 14.772C76.4481 14.7972 76.9648 14.5271 77.2554 14.065H77.3257V14.6978H78.1812V11.6211C78.1812 10.6699 77.5444 10.1079 76.4155 10.1079C75.394 10.1079 74.6665 10.604 74.5757 11.3775H75.436C75.5347 11.0591 75.8784 10.877 76.3745 10.877C76.9819 10.877 77.2964 11.1455 77.2964 11.6211V12.0098L76.0767 12.0801ZM77.2964 13.0396V12.6631L76.1968 12.7334C75.5767 12.7749 75.2954 12.9859 75.2954 13.3828C75.2954 13.7881 75.647 14.0239 76.1304 14.0239C76.4166 14.0529 76.7023 13.9645 76.9221 13.7789C77.1419 13.5934 77.2769 13.3266 77.2964 13.0396ZM81.2183 10.1201C80.0806 10.1201 79.3491 11.0215 79.3491 12.4444C79.3491 13.8706 80.0728 14.772 81.2183 14.772C81.799 14.7934 82.3437 14.4907 82.6323 13.9863H82.7026V14.6978H83.5542V8.43701H82.6655V10.9101H82.5991C82.3308 10.4015 81.7927 10.0937 81.2183 10.1201ZM80.2671 12.4444C80.2671 13.3994 80.7173 13.9741 81.4702 13.9741C82.2192 13.9741 82.6822 13.3911 82.6822 12.4483C82.6822 11.5098 82.2144 10.9185 81.4702 10.9185C80.7222 10.9185 80.2671 11.4971 80.2671 12.4444H80.2671ZM88.2297 10.4286C87.5408 10.8561 87.1537 11.6372 87.231 12.4444C87.1523 13.2523 87.5389 14.035 88.2285 14.4634C88.918 14.8918 89.791 14.8918 90.4805 14.4634C91.17 14.035 91.5567 13.2523 91.478 12.4444C91.5552 11.6372 91.1682 10.8561 90.4793 10.4286C89.7904 10.0011 88.9186 10.0011 88.2297 10.4286ZM90.564 12.4444C90.564 11.4683 90.1255 10.8975 89.356 10.8975C88.5835 10.8975 88.149 11.4683 88.149 12.4444C88.149 13.4283 88.5835 13.9947 89.356 13.9947C90.1255 13.9946 90.564 13.4243 90.564 12.4444ZM93.5259 10.1948H92.6704V14.6978H93.5591V12.0635C93.5272 11.7638 93.6278 11.4652 93.8344 11.2458C94.0411 11.0265 94.3332 10.9084 94.6343 10.9224C95.2915 10.9224 95.606 11.2822 95.606 12.0059V14.6977H96.4946V11.7827C96.5598 11.3424 96.4212 10.8964 96.118 10.5706C95.8148 10.2448 95.3799 10.0745 94.936 10.1079C94.3629 10.0613 93.8232 10.3835 93.5923 10.9102H93.5259V10.1948ZM101.516 9.07374V10.2153H102.492V10.9639H101.516V13.2793C101.516 13.751 101.71 13.9575 102.153 13.9575C102.266 13.9572 102.379 13.9503 102.492 13.937V14.6773C102.332 14.7058 102.17 14.721 102.008 14.7227C101.02 14.7227 100.626 14.375 100.626 13.5068V10.9638H99.9116V10.2153H100.626V9.07374H101.516ZM104.586 8.43701H103.706L103.706 14.6977H104.594V12.0679C104.567 11.7589 104.677 11.4535 104.896 11.2334C105.114 11.0133 105.419 10.9009 105.728 10.9263C106.356 10.9263 106.691 11.2905 106.691 12.0098V14.6978H107.581V11.7905C107.639 11.3525 107.5 10.9111 107.2 10.5864C106.9 10.2618 106.471 10.0878 106.03 10.1118C105.448 10.0646 104.899 10.3872 104.657 10.9185H104.586V8.43701ZM112.762 13.4819C112.513 14.3313 111.691 14.8801 110.811 14.7847C110.211 14.8005 109.634 14.5516 109.233 14.1041C108.832 13.6565 108.649 13.0555 108.731 12.4605C108.651 11.8638 108.834 11.2618 109.232 10.8105C109.631 10.3591 110.205 10.1028 110.807 10.1079C112.06 10.1079 112.816 10.9639 112.816 12.3779V12.688H109.636V12.7378C109.608 13.072 109.722 13.4025 109.951 13.6481C110.179 13.8936 110.5 14.0315 110.835 14.0278C111.27 14.08 111.693 13.8643 111.907 13.4819L112.762 13.4819ZM111.911 12.0308H109.636C109.632 11.7203 109.754 11.4213 109.973 11.2017C110.193 10.982 110.492 10.8604 110.802 10.8643C111.109 10.8572 111.404 10.9799 111.615 11.2021C111.826 11.4242 111.933 11.7252 111.911 12.0308Z" fill="#112A62"/>
<path fill-rule="evenodd" clip-rule="evenodd" d="M31.1509 8.72021C31.2477 9.98445 30.8479 11.2366 30.0364 12.2108C29.2491 13.1901 28.0561 13.7542 26.7996 13.7412C26.7197 12.5134 27.1312 11.3041 27.9433 10.3798C28.7658 9.44299 29.9111 8.85044 31.1509 8.72021ZM35.1246 16.1486C33.6793 17.0371 32.7899 18.6042 32.768 20.3006C32.7701 22.22 33.9195 23.9521 35.6873 24.6998C35.3473 25.8042 34.8348 26.8479 34.1688 27.7923C33.2745 29.1302 32.3367 30.4373 30.8483 30.4614C30.1405 30.4778 29.6626 30.2742 29.1647 30.0621C28.6454 29.8409 28.1042 29.6103 27.2573 29.6103C26.3592 29.6103 25.7938 29.8483 25.2484 30.0778C24.7772 30.2761 24.3209 30.4682 23.6779 30.4948C22.2605 30.5473 21.1772 29.0669 20.2503 27.7415C18.3977 25.0349 16.9551 20.1139 18.8891 16.7654C19.7973 15.1335 21.4953 14.0979 23.362 14.0376C24.1659 14.021 24.9374 14.3309 25.6137 14.6025C26.1309 14.8103 26.5925 14.9957 26.9705 14.9957C27.3028 14.9957 27.7515 14.8176 28.2745 14.6101C29.0983 14.2831 30.1062 13.8831 31.1334 13.9909C32.7295 14.0408 34.2086 14.8405 35.1246 16.1486Z" fill="#112A62"/>
</svg>
