<svg width="66" height="26" viewBox="0 0 66 26" fill="none" xmlns="http://www.w3.org/2000/svg">
<path d="M32.606 19.8697V4.46973H43.496V7.06573H35.51V11.0477H42.836V13.6437H35.51V19.8697H32.606ZM44.8856 19.8697V4.46973H47.6576V19.8697H44.8856ZM49.3066 19.8697V8.95773H52.0786V19.8697H49.3066ZM49.1746 7.37373V4.46973H52.2106V7.37373H49.1746ZM53.7286 24.3577V8.95773H56.5006V10.5197C56.8819 9.96243 57.4099 9.51503 58.0846 9.17773C58.7592 8.82573 59.4926 8.64973 60.2846 8.64973C61.7072 8.64973 62.8952 9.17043 63.8486 10.2117C64.8166 11.253 65.3006 12.6537 65.3006 14.4137C65.3006 16.1297 64.7946 17.523 63.7826 18.5937C62.7706 19.6497 61.5239 20.1777 60.0426 20.1777C58.5612 20.1777 57.3806 19.6277 56.5006 18.5277V24.3577H53.7286ZM61.6046 12.1697C61.0179 11.5537 60.2846 11.2457 59.4046 11.2457C58.5246 11.2457 57.7912 11.5537 57.2046 12.1697C56.6179 12.771 56.3246 13.519 56.3246 14.4137C56.3246 15.3084 56.6179 16.0637 57.2046 16.6797C57.7912 17.281 58.5246 17.5817 59.4046 17.5817C60.2846 17.5817 61.0179 17.281 61.6046 16.6797C62.1912 16.0637 62.4846 15.3084 62.4846 14.4137C62.4846 13.519 62.1912 12.771 61.6046 12.1697Z" fill="#112A62"/>
<path d="M0 0L13.9892 3.56673V25.8589L0 22.1435V0Z" fill="#54C270"/>
<path d="M15.261 3.60994L28.4024 0V22.1016L15.261 25.8589V3.60994Z" fill="#112A62"/>
</svg>
