<svg width="135" height="40" viewBox="0 0 135 40" fill="none" xmlns="http://www.w3.org/2000/svg">
<rect width="135" height="40" rx="5" fill="black"/>
<path fill-rule="evenodd" clip-rule="evenodd" d="M5 0H130C132.761 0 135 2.23858 135 5V35C135 37.7614 132.761 40 130 40H5C2.23858 40 0 37.7614 0 35V5C0 2.23858 2.23858 0 5 0ZM134.2 5C134.2 2.6804 132.32 0.8 130 0.8H5C2.6804 0.8 0.8 2.6804 0.8 5V35C0.8 37.3196 2.6804 39.2 5 39.2H130C132.32 39.2 134.2 37.3196 134.2 35V5Z" fill="#A6A6A6"/>
<path fill-rule="evenodd" clip-rule="evenodd" d="M47.74 23.06V24.86H52.06C51.9923 25.7078 51.6399 26.5078 51.06 27.13C50.186 28.0202 48.9765 28.4997 47.73 28.45C45.079 28.45 42.93 26.301 42.93 23.65C42.93 20.999 45.079 18.85 47.73 18.85C48.9478 18.8302 50.1238 19.2941 51 20.14L52.27 18.87C51.0749 17.6599 49.4407 16.9853 47.74 17C45.319 16.9058 43.0404 18.1437 41.8019 20.2261C40.5633 22.3085 40.5633 24.9016 41.8019 26.984C43.0404 29.0663 45.319 30.3042 47.74 30.21C49.4718 30.2883 51.1527 29.6137 52.35 28.36C53.3977 27.2089 53.957 25.6958 53.91 24.14C53.9132 23.761 53.8797 23.3826 53.81 23.01L47.74 23.06ZM58.83 21.75C56.4841 21.7555 54.5863 23.6608 54.59 26.0067C54.5937 28.3526 56.4974 30.2518 58.8433 30.25C61.1892 30.2482 63.09 28.3459 63.09 26C63.1065 24.8644 62.6612 23.7707 61.8563 22.9695C61.0513 22.1683 59.9555 21.7282 58.82 21.75H58.83ZM63.91 26.0133C63.9027 23.6687 65.7954 21.761 68.14 21.75C69.2755 21.7282 70.3713 22.1683 71.1763 22.9695C71.9812 23.7707 72.4265 24.8644 72.41 26C72.41 28.3446 70.5112 30.2463 68.1666 30.25C65.822 30.2536 63.9174 28.3579 63.91 26.0133ZM65.632 27.1185C66.0887 28.0743 67.0832 28.6539 68.14 28.58C68.8033 28.5646 69.4323 28.282 69.8841 27.7962C70.336 27.3104 70.5725 26.6627 70.54 26C70.5374 24.9407 69.8875 23.9905 68.9012 23.6041C67.9148 23.2176 66.7925 23.4734 66.071 24.2491C65.3494 25.0247 65.1754 26.1626 65.632 27.1185ZM56.3154 27.1261C56.7752 28.0814 57.7727 28.6581 58.83 28.58H58.82C59.4833 28.5646 60.1123 28.282 60.5641 27.7962C61.016 27.3104 61.2525 26.6627 61.22 26C61.2171 24.9398 60.566 23.9893 59.5784 23.6037C58.5908 23.2181 57.4678 23.4759 56.7473 24.2537C56.0268 25.0315 55.8555 26.1708 56.3154 27.1261ZM89.41 21.75C91.0679 21.8111 92.5161 22.8892 93.05 24.46L93.26 24.91L87.57 27.26C87.9266 28.0722 88.7436 28.5838 89.63 28.55C90.4859 28.5522 91.2798 28.104 91.72 27.37L93.17 28.37C92.3806 29.5515 91.0509 30.2577 89.63 30.25C88.5006 30.2666 87.4129 29.8231 86.6171 29.0216C85.8212 28.22 85.3854 27.1293 85.41 26C85.3409 24.8965 85.7316 23.8137 86.4894 23.0085C87.2472 22.2034 88.3044 21.7479 89.41 21.75ZM87.25 25.88C87.2091 25.2552 87.4213 24.6402 87.839 24.1736C88.2566 23.7071 88.8445 23.4282 89.47 23.4C90.1294 23.3566 90.7511 23.7107 91.05 24.3L87.25 25.88ZM84.5 30H82.63V17.5H84.5V30ZM79.57 22.7H79.5C78.93 22.0627 78.1151 21.6989 77.26 21.7C74.9902 21.8101 73.2063 23.6825 73.2063 25.955C73.2063 28.2275 74.9902 30.0999 77.26 30.21C78.1178 30.2244 78.938 29.8583 79.5 29.21H79.56V29.82C79.56 31.45 78.69 32.32 77.29 32.32C76.3363 32.2977 75.4907 31.701 75.15 30.81L73.52 31.49C74.1477 33.0168 75.6392 34.0099 77.29 34C79.48 34 81.29 32.71 81.29 29.57V22H79.57V22.7ZM77.4269 28.5797L77.43 28.58H77.42L77.4269 28.5797ZM79.112 27.7778C78.6828 28.2634 78.0742 28.553 77.4269 28.5797C76.0913 28.4604 75.0674 27.3413 75.0674 26C75.0674 24.6577 76.0929 23.5379 77.43 23.42C78.0761 23.4532 78.6815 23.7458 79.1089 24.2315C79.5362 24.7172 79.7494 25.3549 79.7 26C79.7551 26.6481 79.5427 27.2904 79.112 27.7778ZM101.81 17.5H97.34V30H99.21V25.26H101.82C103.273 25.3644 104.662 24.6485 105.42 23.405C106.178 22.1615 106.178 20.5986 105.42 19.355C104.662 18.1115 103.273 17.3957 101.82 17.5H101.81ZM99.2 23.5H101.81L101.85 23.53C103.035 23.53 103.995 22.5697 103.995 21.385C103.995 20.2004 103.035 19.24 101.85 19.24H99.2V23.5ZM113.34 21.7C111.949 21.6169 110.641 22.3671 110.01 23.61L111.67 24.3C112.004 23.6837 112.671 23.3229 113.37 23.38C113.85 23.324 114.331 23.463 114.708 23.7657C115.084 24.0685 115.322 24.5096 115.37 24.99V25.12C114.769 24.802 114.1 24.6371 113.42 24.64C111.63 24.64 109.82 25.64 109.82 27.45C109.856 28.2297 110.205 28.9618 110.789 29.4798C111.373 29.9978 112.142 30.2575 112.92 30.2C113.879 30.2689 114.8 29.8087 115.32 29H115.38V30H117.18V25.19C117.18 23 115.52 21.73 113.39 21.73L113.34 21.7ZM111.65 27.49C111.65 28.24 112.5 28.55 113.11 28.55L113.16 28.58C114.287 28.5526 115.221 27.6994 115.35 26.58C114.831 26.2904 114.244 26.1454 113.65 26.16C112.71 26.16 111.65 26.49 111.65 27.49ZM123.74 22L121.6 27.42H121.54L119.32 22H117.32L120.65 29.58L118.75 33.79H120.7L125.82 22H123.74ZM108.8 30H106.93V17.5H108.8V30Z" fill="white"/>
<path fill-rule="evenodd" clip-rule="evenodd" d="M69.21 12.22C70.427 13.4302 72.393 13.4302 73.61 12.22C74.7948 10.9732 74.7948 9.01673 73.61 7.76997C73.028 7.18372 72.2361 6.854 71.41 6.854C70.5839 6.854 69.792 7.18372 69.21 7.76997C68.0303 9.01874 68.0303 10.9712 69.21 12.22ZM46.67 12.24C47.1833 11.7041 47.4544 10.9812 47.42 10.24C47.4201 10.0891 47.4067 9.93849 47.38 9.78997H44.47V10.51H46.64C46.6252 10.9635 46.4477 11.3965 46.14 11.73C45.4546 12.3925 44.4379 12.5776 43.5629 12.1992C42.688 11.8208 42.1266 10.9532 42.14 9.99997C42.1182 9.36919 42.3544 8.75676 42.794 8.30391C43.2337 7.85106 43.8389 7.59687 44.47 7.59997C45.0979 7.56566 45.7054 7.82865 46.11 8.30997L46.64 7.77997C46.384 7.48553 46.0619 7.25592 45.7 7.10997C45.3113 6.94364 44.8928 6.85856 44.47 6.85997C43.6406 6.84149 42.8405 7.1673 42.26 7.75997C41.3665 8.65929 41.0992 10.0066 41.5817 11.1789C42.0642 12.3512 43.2024 13.12 44.47 13.13C45.2965 13.1594 46.0965 12.8358 46.67 12.24ZM49.3 7.73997H52V6.99997H48.5V13H52V12.26H49.3V10.36H51.76V9.63997H49.3V7.73997ZM55.28 13H54.51V7.73997H52.83V6.99997H57V7.73997H55.28V13ZM60.71 6.99997H59.94V13H60.71V6.99997ZM64.13 13H63.36V7.73997H61.68V6.99997H65.8V7.73997H64.13V13ZM69.78 11.72C70.6813 12.6175 72.1387 12.6175 73.04 11.72C73.9252 10.7441 73.9252 9.2558 73.04 8.27997C72.1387 7.38241 70.6813 7.38241 69.78 8.27997C68.8948 9.2558 68.8948 10.7441 69.78 11.72ZM76.52 6.99997H75.58V13H76.36V8.10997L79.41 13H80.21V6.99997H79.44V11.67L76.52 6.99997Z" fill="white"/>
<path d="M73.61 12.22L73.6806 12.2909L73.6825 12.2889L73.61 12.22ZM69.21 12.22L69.1373 12.2887L69.1395 12.2909L69.21 12.22ZM73.61 7.76997L73.6825 7.70107L73.681 7.69952L73.61 7.76997ZM69.21 7.76997L69.139 7.6995L69.1373 7.7013L69.21 7.76997ZM47.42 10.24L47.3199 10.2399L47.3201 10.2446L47.42 10.24ZM46.67 12.24L46.7421 12.3093L46.7422 12.3091L46.67 12.24ZM47.38 9.78997L47.4784 9.77229L47.4637 9.68997H47.38V9.78997ZM44.47 9.78997V9.68997H44.37V9.78997H44.47ZM44.47 10.51H44.37V10.61H44.47V10.51ZM46.64 10.51L46.74 10.5132L46.7433 10.41H46.64V10.51ZM46.14 11.73L46.2096 11.802L46.2135 11.7978L46.14 11.73ZM43.5629 12.1992L43.5232 12.291H43.5232L43.5629 12.1992ZM42.14 9.99997L42.2401 10.0014L42.24 9.99652L42.14 9.99997ZM42.794 8.30391L42.7223 8.23425L42.794 8.30391ZM44.47 7.59997L44.4695 7.70015L44.4755 7.69982L44.47 7.59997ZM46.11 8.30997L46.0335 8.37432L46.1036 8.45778L46.1807 8.38068L46.11 8.30997ZM46.64 7.77997L46.7107 7.85068L46.7767 7.78474L46.7155 7.71436L46.64 7.77997ZM45.7 7.10997L45.6607 7.20193L45.6626 7.20271L45.7 7.10997ZM44.47 6.85997L44.4678 6.95998L44.4703 6.95997L44.47 6.85997ZM42.26 7.75997L42.331 7.83045L42.3314 7.82995L42.26 7.75997ZM41.5817 11.1789L41.4892 11.2169L41.5817 11.1789ZM44.47 13.13L44.4736 13.03L44.4708 13.03L44.47 13.13ZM52 7.73997V7.83997H52.1V7.73997H52ZM49.3 7.73997V7.63997H49.2V7.73997H49.3ZM52 6.99997H52.1V6.89997H52V6.99997ZM48.5 6.99997V6.89997H48.4V6.99997H48.5ZM48.5 13H48.4V13.1H48.5V13ZM52 13V13.1H52.1V13H52ZM52 12.26H52.1V12.16H52V12.26ZM49.3 12.26H49.2V12.36H49.3V12.26ZM49.3 10.36V10.26H49.2V10.36H49.3ZM51.76 10.36V10.46H51.86V10.36H51.76ZM51.76 9.63997H51.86V9.53997H51.76V9.63997ZM49.3 9.63997H49.2V9.73997H49.3V9.63997ZM54.51 13H54.41V13.1H54.51V13ZM55.28 13V13.1H55.38V13H55.28ZM54.51 7.73997H54.61V7.63997H54.51V7.73997ZM52.83 7.73997H52.73V7.83997H52.83V7.73997ZM52.83 6.99997V6.89997H52.73V6.99997H52.83ZM57 6.99997H57.1V6.89997H57V6.99997ZM57 7.73997V7.83997H57.1V7.73997H57ZM55.28 7.73997V7.63997H55.18V7.73997H55.28ZM59.94 6.99997V6.89997H59.84V6.99997H59.94ZM60.71 6.99997H60.81V6.89997H60.71V6.99997ZM59.94 13H59.84V13.1H59.94V13ZM60.71 13V13.1H60.81V13H60.71ZM63.36 13H63.26V13.1H63.36V13ZM64.13 13V13.1H64.23V13H64.13ZM63.36 7.73997H63.46V7.63997H63.36V7.73997ZM61.68 7.73997H61.58V7.83997H61.68V7.73997ZM61.68 6.99997V6.89997H61.58V6.99997H61.68ZM65.8 6.99997H65.9V6.89997H65.8V6.99997ZM65.8 7.73997V7.83997H65.9V7.73997H65.8ZM64.13 7.73997V7.63997H64.03V7.73997H64.13ZM73.04 11.72L73.1107 11.7909L73.1141 11.7872L73.04 11.72ZM69.78 11.72L69.7059 11.7872L69.7094 11.7908L69.78 11.72ZM73.04 8.27997L73.1142 8.2127L73.1106 8.20911L73.04 8.27997ZM69.78 8.27997L69.7094 8.20902L69.7059 8.21278L69.78 8.27997ZM75.58 6.99997V6.89997H75.48V6.99997H75.58ZM76.52 6.99997L76.6048 6.94695L76.5754 6.89997H76.52V6.99997ZM75.58 13H75.48V13.1H75.58V13ZM76.36 13V13.1H76.46V13H76.36ZM76.36 8.10997L76.4449 8.05705L76.26 7.76069V8.10997H76.36ZM79.41 13L79.3252 13.0529L79.3545 13.1H79.41V13ZM80.21 13V13.1H80.31V13H80.21ZM80.21 6.99997H80.31V6.89997H80.21V6.99997ZM79.44 6.99997V6.89997H79.34V6.99997H79.44ZM79.44 11.67L79.3552 11.723L79.54 12.0185V11.67H79.44ZM73.5395 12.1491C72.3615 13.3205 70.4585 13.3205 69.2805 12.1491L69.1395 12.2909C70.3955 13.5399 72.4245 13.5399 73.6805 12.2909L73.5395 12.1491ZM73.5375 7.83886C74.6856 9.04702 74.6856 10.9429 73.5375 12.1511L73.6825 12.2889C74.9039 11.0035 74.9039 8.98644 73.6825 7.70109L73.5375 7.83886ZM71.41 6.954C72.2094 6.954 72.9758 7.27308 73.539 7.84042L73.681 7.69952C73.0802 7.09435 72.2627 6.754 71.41 6.754V6.954ZM69.281 7.84042C69.8442 7.27308 70.6106 6.954 71.41 6.954V6.754C70.5573 6.754 69.7398 7.09435 69.139 7.69952L69.281 7.84042ZM69.2827 12.1513C68.1394 10.9411 68.1394 9.04887 69.2827 7.83864L69.1373 7.7013C67.9212 8.98861 67.9212 11.0013 69.1373 12.2886L69.2827 12.1513ZM47.3201 10.2446C47.3532 10.9585 47.0921 11.6547 46.5978 12.1708L46.7422 12.3091C47.2744 11.7535 47.5555 11.0039 47.5199 10.2353L47.3201 10.2446ZM47.2816 9.80765C47.3072 9.95032 47.3201 10.095 47.32 10.2399L47.52 10.24C47.5201 10.0832 47.5062 9.92666 47.4784 9.77229L47.2816 9.80765ZM44.47 9.88997H47.38V9.68997H44.47V9.88997ZM44.57 10.51V9.78997H44.37V10.51H44.57ZM46.64 10.41H44.47V10.61H46.64V10.41ZM46.2135 11.7978C46.5375 11.4467 46.7244 10.9907 46.74 10.5132L46.5401 10.5067C46.526 10.9362 46.3579 11.3463 46.0665 11.6622L46.2135 11.7978ZM43.5232 12.291C44.4353 12.6855 45.4951 12.4925 46.2095 11.8019L46.0705 11.6581C45.4141 12.2925 44.4405 12.4698 43.6026 12.1074L43.5232 12.291ZM42.04 9.99857C42.0261 10.9921 42.6112 11.8966 43.5232 12.291L43.6026 12.1074C42.7648 11.7451 42.2272 10.9142 42.24 10.0014L42.04 9.99857ZM42.7223 8.23425C42.2637 8.70662 42.0174 9.34545 42.0401 10.0034L42.24 9.99652C42.2191 9.39293 42.4451 8.8069 42.8658 8.37357L42.7223 8.23425ZM44.4705 7.49997C43.8121 7.49674 43.1809 7.76188 42.7223 8.23425L42.8658 8.37357C43.2865 7.94023 43.8656 7.69701 44.4695 7.69997L44.4705 7.49997ZM46.1866 8.24562C45.7617 7.74023 45.1238 7.46409 44.4646 7.50012L44.4755 7.69982C45.072 7.66723 45.649 7.91706 46.0335 8.37432L46.1866 8.24562ZM46.5693 7.70926L46.0393 8.23926L46.1807 8.38068L46.7107 7.85068L46.5693 7.70926ZM45.6626 7.20271C46.0098 7.34276 46.3189 7.56306 46.5645 7.84559L46.7155 7.71436C46.4491 7.40799 46.1139 7.16909 45.7374 7.01723L45.6626 7.20271ZM44.4703 6.95997C44.8795 6.95861 45.2845 7.04094 45.6607 7.20191L45.7394 7.01804C45.3382 6.84634 44.9061 6.75852 44.4697 6.75997L44.4703 6.95997ZM42.3314 7.82995C42.8926 7.25703 43.666 6.94208 44.4678 6.95995L44.4722 6.76C43.6152 6.7409 42.7885 7.07757 42.1886 7.69L42.3314 7.82995ZM41.6742 11.1408C41.207 10.0057 41.4659 8.70122 42.331 7.83045L42.1891 7.68949C41.2672 8.61736 40.9915 10.0074 41.4892 11.2169L41.6742 11.1408ZM44.4708 13.03C43.2434 13.0204 42.1413 12.2759 41.6742 11.1408L41.4892 11.2169C41.987 12.4265 43.1613 13.2197 44.4692 13.23L44.4708 13.03ZM46.598 12.1706C46.0441 12.7459 45.2717 13.0584 44.4736 13.03L44.4665 13.2299C45.3213 13.2603 46.1488 12.9256 46.7421 12.3093L46.598 12.1706ZM52 7.63997H49.3V7.83997H52V7.63997ZM51.9 6.99997V7.73997H52.1V6.99997H51.9ZM48.5 7.09997H52V6.89997H48.5V7.09997ZM48.6 13V6.99997H48.4V13H48.6ZM52 12.9H48.5V13.1H52V12.9ZM51.9 12.26V13H52.1V12.26H51.9ZM49.3 12.36H52V12.16H49.3V12.36ZM49.2 10.36V12.26H49.4V10.36H49.2ZM51.76 10.26H49.3V10.46H51.76V10.26ZM51.66 9.63997V10.36H51.86V9.63997H51.66ZM49.3 9.73997H51.76V9.53997H49.3V9.73997ZM49.2 7.73997V9.63997H49.4V7.73997H49.2ZM54.51 13.1H55.28V12.9H54.51V13.1ZM54.41 7.73997V13H54.61V7.73997H54.41ZM52.83 7.83997H54.51V7.63997H52.83V7.83997ZM52.73 6.99997V7.73997H52.93V6.99997H52.73ZM57 6.89997H52.83V7.09997H57V6.89997ZM57.1 7.73997V6.99997H56.9V7.73997H57.1ZM55.28 7.83997H57V7.63997H55.28V7.83997ZM55.38 13V7.73997H55.18V13H55.38ZM59.94 7.09997H60.71V6.89997H59.94V7.09997ZM60.04 13V6.99997H59.84V13H60.04ZM60.71 12.9H59.94V13.1H60.71V12.9ZM60.61 6.99997V13H60.81V6.99997H60.61ZM63.36 13.1H64.13V12.9H63.36V13.1ZM63.26 7.73997V13H63.46V7.73997H63.26ZM61.68 7.83997H63.36V7.63997H61.68V7.83997ZM61.58 6.99997V7.73997H61.78V6.99997H61.58ZM65.8 6.89997H61.68V7.09997H65.8V6.89997ZM65.9 7.73997V6.99997H65.7V7.73997H65.9ZM64.13 7.83997H65.8V7.63997H64.13V7.83997ZM64.23 13V7.73997H64.03V13H64.23ZM72.9694 11.6491C72.1071 12.5078 70.7129 12.5078 69.8506 11.6491L69.7094 11.7908C70.6498 12.7273 72.1702 12.7273 73.1106 11.7908L72.9694 11.6491ZM72.9659 8.34716C73.8166 9.28487 73.8166 10.7151 72.9659 11.6528L73.1141 11.7872C74.0339 10.7732 74.0339 9.22673 73.1141 8.21278L72.9659 8.34716ZM69.8506 8.35083C70.7129 7.49212 72.1071 7.49212 72.9694 8.35083L73.1106 8.20911C72.1702 7.27269 70.6498 7.27269 69.7094 8.20911L69.8506 8.35083ZM69.8541 11.6528C69.0035 10.7151 69.0035 9.28487 69.8541 8.34716L69.7059 8.21278C68.7862 9.22673 68.7862 10.7732 69.7059 11.7872L69.8541 11.6528ZM75.58 7.09997H76.52V6.89997H75.58V7.09997ZM75.68 13V6.99997H75.48V13H75.68ZM76.36 12.9H75.58V13.1H76.36V12.9ZM76.26 8.10997V13H76.46V8.10997H76.26ZM79.4949 12.947L76.4449 8.05705L76.2752 8.16289L79.3252 13.0529L79.4949 12.947ZM80.21 12.9H79.41V13.1H80.21V12.9ZM80.11 6.99997V13H80.31V6.99997H80.11ZM79.44 7.09997H80.21V6.89997H79.44V7.09997ZM79.54 11.67V6.99997H79.34V11.67H79.54ZM76.4352 7.05299L79.3552 11.723L79.5248 11.617L76.6048 6.94695L76.4352 7.05299Z" fill="white"/>
<path d="M10.44 7.54009C10.1141 7.9312 9.94956 8.43189 9.98001 8.94009V31.0601C9.94956 31.5683 10.1141 32.069 10.44 32.4601L10.51 32.5301L22.9 20.1501V19.8601L10.51 7.47009L10.44 7.54009Z" fill="url(#paint0_linear)"/>
<path d="M27 24.2801L22.9 20.1501V19.8601L27 15.7201L27.09 15.7701L32 18.5601C33.4 19.3501 33.4 20.6501 32 21.4501L27.11 24.2301L27 24.2801Z" fill="url(#paint1_linear)"/>
<path d="M27.12 24.22L22.9 20L10.44 32.46C11.0287 32.9775 11.9024 33.0027 12.52 32.52L27.13 24.22" fill="url(#paint2_linear)"/>
<path d="M27.12 15.7801L12.51 7.48005C11.8924 6.99733 11.0187 7.02253 10.43 7.54005L22.9 20.0001L27.12 15.7801Z" fill="url(#paint3_linear)"/>
<path opacity="0.2" d="M27 24.13L12.51 32.38C11.917 32.8233 11.103 32.8233 10.51 32.38L10.44 32.45L10.51 32.52C11.1018 32.9667 11.9182 32.9667 12.51 32.52L27.12 24.22L27 24.13Z" fill="black"/>
<path opacity="0.12" fill-rule="evenodd" clip-rule="evenodd" d="M27 24.13L32 21.3C32.5167 21.045 32.886 20.5648 33 20C32.9485 20.6244 32.5671 21.1736 32 21.44L27.09 24.22L27 24.13ZM9.97783 31.1147C9.99434 31.5546 10.1558 31.979 10.44 32.32L10.51 32.4L10.44 32.47C10.1236 32.0904 9.95934 31.6075 9.97783 31.1147ZM9.97783 31.1147C9.97839 31.0998 9.97912 31.0849 9.98001 31.07V30.92C9.97611 30.9851 9.97541 31.05 9.97783 31.1147Z" fill="black"/>
<path opacity="0.25" d="M12.51 7.62006L32 18.7001C32.5167 18.9551 32.886 19.4352 33 20.0001C32.9485 19.3757 32.5671 18.8264 32 18.5601L12.51 7.48006C11.11 6.69006 9.97 7.35006 9.97 8.95006V9.10006C10 7.49006 11.12 6.83006 12.51 7.62006Z" fill="white"/>
<defs>
<linearGradient id="paint0_linear" x1="17.4732" y1="-7.55888" x2="-2.36619" y2="-2.28254" gradientUnits="userSpaceOnUse">
<stop stop-color="#00A0FF"/>
<stop offset="0.01" stop-color="#00A1FF"/>
<stop offset="0.26" stop-color="#00BEFF"/>
<stop offset="0.51" stop-color="#00D2FF"/>
<stop offset="0.76" stop-color="#00DFFF"/>
<stop offset="1" stop-color="#00E3FF"/>
</linearGradient>
<linearGradient id="paint1_linear" x1="33.83" y1="9.79978" x2="9.63999" y2="9.79978" gradientUnits="userSpaceOnUse">
<stop stop-color="#FFE000"/>
<stop offset="0.41" stop-color="#FFBD00"/>
<stop offset="0.78" stop-color="#FFA500"/>
<stop offset="1" stop-color="#FF9C00"/>
</linearGradient>
<linearGradient id="paint2_linear" x1="10.0739" y1="13.5275" x2="-5.86255" y2="40.3341" gradientUnits="userSpaceOnUse">
<stop stop-color="#FF3A44"/>
<stop offset="1" stop-color="#C31162"/>
</linearGradient>
<linearGradient id="paint3_linear" x1="0.710027" y1="4.09606" x2="7.82331" y2="16.0665" gradientUnits="userSpaceOnUse">
<stop stop-color="#32A071"/>
<stop offset="0.07" stop-color="#2DA771"/>
<stop offset="0.48" stop-color="#15CF74"/>
<stop offset="0.8" stop-color="#06E775"/>
<stop offset="1" stop-color="#00F076"/>
</linearGradient>
</defs>
</svg>
