<svg width="229" height="162" viewBox="0 0 229 162" fill="none" xmlns="http://www.w3.org/2000/svg">
<path d="M218.628 21.2166C206.051 8.29146 184.652 2.98984 164.142 1.24844C151.758 0.203594 139.143 0.0875013 126.682 0.0101055C114.067 -0.0672902 101.412 0.280988 88.9516 1.71281C67.513 4.18948 45.997 10.265 30.6726 21.9518C16.2383 32.942 8.84701 47.7246 4.82243 62.4685C2.73274 70.2081 1.37832 78.1024 0.565661 85.9968C-0.324391 94.3169 -0.363089 102.83 1.92009 111.034C3.04233 115.098 4.86113 119.006 7.2604 122.76C7.33779 122.876 7.45388 122.992 7.56998 123.069C7.02821 123.495 6.91212 124.114 7.68607 124.54C23.8618 134.098 45.6874 132.086 64.7268 129.687C90.1513 126.514 115.498 124.192 141.31 123.689C153.074 123.456 164.877 124.037 176.641 123.65C185.929 123.34 195.642 122.102 202.994 117.574C211.16 112.544 214.139 104.378 217.042 97.1805C220.641 88.1639 223.427 78.9538 225.323 69.6663C228.574 53.9937 232.095 35.0704 218.628 21.2166Z" fill="#112A62"/>
<path d="M211.701 126.823C207.561 121.676 201.059 118.58 194.365 116.491C186.625 114.091 178.421 112.505 170.372 111.15C161.975 109.719 153.461 108.674 144.909 108.016C127.495 106.7 109.926 107.01 92.6279 108.983C91.2735 109.138 89.9191 109.293 88.5646 109.486C79.548 109.989 70.5701 110.957 61.6696 112.311C53.1561 113.627 44.7199 115.291 36.3999 117.342C29.3182 119.083 21.5786 120.748 15.3095 124.192C10.0079 127.094 6.48641 131.738 7.06688 137.31C7.68605 143.076 11.8654 147.952 17.2831 151.125C23.6683 154.84 31.4465 156.466 38.8378 157.975C47.274 159.678 55.8649 160.839 64.5332 161.458C82.5665 162.735 100.638 161.535 118.594 160.142C136.782 158.749 154.97 157.278 173.158 155.846C181.633 155.189 190.611 155.111 198.854 153.06C205.239 151.474 211.508 148.068 214.255 142.651C216.887 137.349 215.339 131.351 211.701 126.823Z" fill="#C8D8F9"/>
<path d="M86.4749 39.985C83.0308 40.1785 82.6438 44.0096 79.8575 45.2866C76.9165 46.6024 74.285 47.415 72.6597 50.4722C70.3379 54.8837 71.9245 64.5969 78.5031 63.939C79.2384 63.8616 79.6254 63.2425 79.6254 62.6233C79.7028 62.1202 79.4706 61.5398 78.8514 61.3463C76.2973 60.4949 74.0529 58.5213 74.0142 55.6577C73.9755 52.9101 75.7169 50.5883 78.0388 49.2725C79.7802 48.2664 81.7924 47.9181 83.3017 46.525C84.6948 45.1705 85.3527 43.197 87.0941 42.2295C88.0228 41.5716 87.6358 39.9076 86.4749 39.985Z" fill="#57455D"/>
<path d="M89.9969 63.5133C83.8439 63.552 75.1756 64.4034 73.3568 71.7173C72.5054 75.084 73.705 79.3794 74.4403 82.7075C75.369 86.7707 76.7235 90.6792 78.3875 94.5103C78.968 95.8647 80.9802 94.7038 80.3998 93.3494C79.0066 90.1762 77.8844 86.8868 77.0331 83.5201C76.2591 80.463 75.4077 77.0576 75.4464 73.8843C75.4851 70.982 76.9557 69.1245 79.0067 67.9636C79.9741 75.2388 81.2124 82.514 82.7216 89.7118C83.0312 91.1823 85.2757 90.5631 84.9661 89.0926C83.4182 81.7787 82.1799 74.4261 81.2124 66.9961C84.0761 66.0674 87.4428 65.9126 89.9969 65.8739C91.5061 65.7965 91.5061 63.4746 89.9969 63.5133Z" fill="#57455D"/>
<path d="M86.3589 110.222C86.0107 106.12 85.3141 102.095 84.3079 98.1093C83.921 96.6774 81.7152 97.2579 82.0635 98.7284C83.3792 103.914 84.1532 109.216 84.2692 114.595C84.3079 116.8 84.5014 119.277 83.7662 121.405C83.3018 122.721 82.4505 123.572 81.096 123.998C79.7416 124.424 76.4136 125.043 76.1814 122.837C76.0653 121.367 73.7047 121.328 73.8595 122.837C74.1304 125.972 76.994 127.017 79.819 126.63C83.0696 126.204 85.4302 124.54 86.2041 121.212C87.0168 117.69 86.6685 113.743 86.3589 110.222Z" fill="#57455D"/>
<path d="M96.1105 117.923C95.9557 112.389 95.414 106.855 94.64 101.36C94.4465 99.8894 92.2021 100.509 92.3955 101.979C93.1695 107.281 93.6339 112.582 93.7887 117.923C93.8661 120.438 93.8661 122.992 93.8274 125.507C93.75 128.023 93.75 130.538 92.8599 132.899C92.3182 134.292 94.5626 134.911 95.1044 133.518C95.9557 131.312 96.0718 128.99 96.1492 126.63C96.1879 123.727 96.1879 120.825 96.1105 117.923Z" fill="#57455D"/>
<path d="M117.588 121.715C117.124 124.656 112.403 122.644 110.971 121.638C108.959 120.283 107.798 118.155 106.985 115.949C105.36 111.46 104.663 106.623 104.431 101.902C104.354 100.431 102.032 100.392 102.109 101.902C102.264 105.539 102.728 109.177 103.618 112.698C104.315 115.601 105.205 118.658 107.062 121.096C108.688 123.224 111.087 124.811 113.757 125.353C116.234 125.856 119.407 125.353 119.871 122.373C120.065 120.864 117.82 120.244 117.588 121.715Z" fill="#57455D"/>
<path d="M176.912 127.365C176.448 125.933 174.203 126.552 174.668 127.984C175.403 130.267 172.539 131.273 170.798 130.577C169.018 129.88 167.741 128.139 166.773 126.591C164.8 123.379 163.716 119.741 162.981 116.065C161.394 108.016 160.775 99.6959 160.194 91.5307C160.078 90.0601 157.757 90.0214 157.873 91.5307C158.298 97.3353 158.84 103.101 159.575 108.867C159.769 110.377 159.962 111.924 160.194 113.434C159.459 113.434 158.763 113.472 158.027 113.511C157.718 106.584 157.137 99.6959 156.286 92.8077C156.093 91.3372 153.771 91.3372 153.964 92.8077C154.815 99.7346 155.396 106.7 155.706 113.666C155.009 113.743 154.312 113.821 153.577 113.898C153.538 113.008 153.5 112.157 153.5 111.344C153.422 105.23 153.345 99.1155 153.268 93.0399C153.229 91.5307 150.907 91.5307 150.946 93.0399C151.062 101.786 151.217 110.57 151.294 119.316C151.333 123.263 151.139 128.023 147.811 130.732C146.379 131.893 144.328 132.55 142.548 131.893C140.575 131.157 139.607 128.99 140.342 127.055C140.884 125.662 138.64 125.043 138.098 126.436C136.705 130.112 139.53 134.021 143.322 134.408C147.656 134.872 151.1 131.583 152.532 127.791C153.887 124.23 153.848 120.167 153.693 116.22C154.39 116.104 155.125 116.026 155.822 115.988C156.054 122.025 156.093 128.061 155.938 134.137C155.899 135.646 158.221 135.646 158.26 134.137C158.414 128.023 158.376 121.947 158.144 115.833C158.956 115.794 159.769 115.756 160.581 115.756C161.046 118.387 161.704 120.98 162.671 123.456C164.103 127.094 166.502 131.776 170.566 132.937C173.932 133.982 178.112 131.119 176.912 127.365Z" fill="#57455D"/>
<path d="M116.388 35.0704C114.995 32.2455 112.673 29.7688 110.042 28.0661C107.178 26.2086 103.734 25.7829 100.367 25.6281C94.4467 25.3572 87.4811 26.9439 84.6948 32.7872C83.2243 35.8831 83.65 39.2111 85.0431 42.2295C86.4749 45.364 88.6807 48.8082 91.9313 50.24C92.0861 50.3174 92.2409 50.3561 92.357 50.3561C92.4731 50.4335 92.6279 50.4722 92.7827 50.4722C98.8582 51.13 106.52 53.0649 112.286 50.2013C118.014 47.3763 118.981 40.3333 116.388 35.0704Z" fill="#B4C7E7"/>
<path d="M92.1248 55.348C91.9313 54.2258 91.2734 52.6779 90.306 52.02C90.306 51.5556 90.0738 51.0913 89.4933 50.9365C87.094 50.3173 84.3465 49.8529 82.1407 51.3235C80.0897 52.7166 79.4319 55.348 78.774 57.5925C76.9165 64.1325 75.8717 70.982 75.7556 77.7928C75.7169 80.1921 76.2973 82.3205 78.8901 82.9009C80.2058 83.1718 81.5989 83.1331 82.9534 83.2105C84.2304 83.2879 85.817 83.6749 87.0166 83.2492C88.0228 82.9009 88.255 82.2044 88.4485 81.2756C88.8354 79.4181 89.0676 77.4832 89.3772 75.587C89.9577 72.0268 90.5381 68.5053 91.1186 64.9451C91.6604 61.888 92.6665 58.4439 92.1248 55.348Z" fill="#EF86B0"/>
<path d="M104.354 89.6731C98.0458 87.8156 90.848 88.0091 84.3467 88.9379C84.1532 88.8605 83.9211 88.8605 83.6502 88.9766C80.2061 90.4084 76.4911 93.8912 79.8191 97.5675C81.4057 99.3476 83.8823 100.276 86.0494 101.089C88.6035 102.056 91.3123 102.637 94.0599 102.908C98.6649 103.372 105.476 103.372 108.649 99.3476C111.9 95.323 108.61 90.9501 104.354 89.6731Z" fill="#EF86B0"/>
<path d="M103.85 35.3413C103.657 35.0318 103.386 34.8383 102.96 34.7609C94.9496 33.9095 93.0535 48.1117 100.483 49.8531C104.16 50.7044 105.824 47.0281 106.443 44.1258C107.101 40.9525 107.023 36.8506 103.85 35.3413Z" fill="#F7D3BC"/>
<path d="M138.253 71.4077C135.35 70.0533 132.216 69.3567 129.236 68.1958C123.238 65.9126 118.749 61.3463 114.995 56.2768C113.37 54.1097 111.861 50.6269 109.229 49.5821C107.642 48.9242 105.746 48.8855 104.082 48.6146C101.954 48.2664 99.8255 47.9568 97.6971 47.6085C97.4263 47.5698 97.1941 47.6085 96.9619 47.7246C96.8071 47.6472 96.6136 47.6085 96.3814 47.6472C90.8089 48.2277 86.7843 54.0324 84.1916 58.4826C81.7536 62.662 78.3869 69.4728 81.3279 74.194C82.0632 75.3936 83.0693 76.2063 84.2303 76.7867C82.3341 83.5202 81.3666 92.7302 88.7579 96.4452C95.4527 99.812 104.237 96.9483 110.777 93.5429C108.029 104.649 105.785 115.833 104.121 127.133C104.044 127.597 104.16 128.216 104.663 128.448C107.217 129.532 109.771 130.732 112.364 131.738C114.26 132.473 116.04 132.705 117.704 131.389C118.594 130.693 117.743 129.493 116.891 129.416C114.647 129.184 113.138 127.017 112.789 124.927C112.364 122.489 113.331 119.935 114.182 117.69C115.034 115.446 115.924 113.201 116.814 110.957C116.891 111.847 116.969 112.698 117.046 113.588C117.162 115.059 116.969 117.226 118.014 118.464C118.981 119.587 120.722 119.625 122.038 119.819C124.515 120.128 127.03 120.244 129.545 120.167C130.203 120.128 130.977 119.432 130.668 118.697C130.358 117.923 130.01 117.497 129.313 117.033C128.036 116.22 127.495 115.872 126.953 114.324C126.063 111.808 125.831 109.061 125.792 106.429C125.714 101.128 126.372 95.71 124.824 90.5245C123.702 86.8095 121.225 83.2106 117.588 81.5853C113.757 79.8825 109.81 80.9274 106.172 82.4753C107.062 78.2959 107.952 74.1553 108.842 69.9759C108.842 69.9372 108.842 69.8985 108.842 69.8598C109.384 69.4341 109.887 69.0471 110.39 68.6215C110.738 68.3119 110.816 67.9636 110.738 67.654C111.125 67.267 111.551 66.8414 111.938 66.4157C116.04 70.092 120.761 72.9943 125.947 74.9292C128.733 75.9741 131.596 76.7093 134.499 77.135C136.434 77.4059 139.723 78.3346 140.845 76.1676C141.89 74.0005 140.033 72.2591 138.253 71.4077Z" fill="white"/>
<path d="M175.674 82.3206C172.152 80.0374 168.089 78.4508 164.026 77.522C155.628 75.5098 146.728 76.245 138.756 79.4956C135.699 80.347 132.526 81.7401 130.823 84.4877C128.849 87.6609 132.796 90.4858 135.389 91.492C139.491 93.0399 144.367 93.1173 148.701 93.2721C153.887 93.4656 159.072 93.2334 164.219 92.5755C166.541 92.2659 168.824 91.9177 171.107 91.4533C173.081 91.0663 175.325 90.7954 177.028 89.5958C180.279 87.3513 178.305 84.0233 175.674 82.3206Z" fill="#F7D06F"/>
<path d="M140.265 72.53C139.182 71.2917 137.208 70.7886 135.776 70.2081L128.656 67.2671C127.224 66.6866 125.521 65.5257 124.128 66.764C122.735 68.0023 121.806 70.3629 121.032 71.9882C120.49 73.0718 121.767 74.0779 122.58 73.6522C126.605 76.4772 131.79 78.5669 136.744 78.4121C138.717 78.3347 140.962 77.4446 141.31 75.2389C141.503 74.0392 141.039 73.1105 140.265 72.53Z" fill="#74A2D6"/>
<path d="M107.526 39.9463C107.565 37.4696 104.779 34.6447 102.534 34.1416C99.7093 33.4837 96.9618 35.3799 95.6461 37.7405C93.8273 40.9137 93.5564 45.0544 93.5564 48.6533C93.5564 49.3112 94.0981 49.7755 94.7173 49.8142C96.2652 49.8916 99.6706 50.743 100.715 49.1564C101.257 48.3437 101.141 46.7184 101.219 45.8284C101.257 45.4027 101.296 44.977 101.335 44.5513C101.528 44.8609 101.876 45.0544 102.263 45.0544H102.418C103.037 45.0544 103.618 44.5126 103.579 43.8935C103.54 43.2743 103.076 42.7325 102.418 42.7325H102.263C101.954 42.7325 101.683 42.8486 101.451 43.0421C101.451 42.8486 101.489 42.6551 101.489 42.4616C103.811 42.539 107.488 42.6938 107.526 39.9463Z" fill="#57455D"/>
<path d="M110.429 48.2664C107.604 47.5311 104.469 47.2989 101.567 47.0667C100.793 46.9894 97.1553 46.7959 94.0595 47.1441C93.866 46.9894 93.6338 46.912 93.3242 46.9507C92.5503 47.0668 91.3893 47.3763 90.6541 47.9955C89.6092 48.5373 89.1449 49.3499 89.8801 50.5109C90.4606 51.4396 91.5828 51.4783 92.5503 51.5557C92.8212 51.5944 93.092 51.5944 93.3629 51.5944C94.2917 51.8266 95.2978 51.9814 96.1879 52.1749C99.0515 52.6779 101.954 52.9488 104.895 52.8714C106.288 52.8327 107.681 52.7166 109.074 52.5232C110.119 52.4071 111.396 52.3297 112.17 51.5944C113.795 50.0465 111.938 48.6534 110.429 48.2664Z" fill="#EF86B0"/>
<path d="M134.344 118.077C133.416 117.11 132.293 116.762 131.055 116.413C129.004 115.794 128.075 114.711 127.495 112.66C127.03 110.918 126.837 109.099 126.566 107.358C126.411 106.275 126.218 105.191 126.063 104.107C125.947 103.372 125.947 102.366 125.599 101.708C124.941 100.47 123.354 100.818 122.232 100.934C120.645 101.089 118.71 101.205 117.24 101.863C115.692 102.56 116.156 104.301 116.195 105.733C116.234 107.513 116.311 109.293 116.35 111.073C113.68 110.067 110.971 109.293 108.184 108.712C107.411 108.558 106.753 109.061 106.714 109.835C106.675 110.183 106.675 110.531 106.637 110.88C106.559 111.112 106.443 111.383 106.366 111.654C106.327 111.731 106.288 111.808 106.288 111.924C106.288 111.963 106.288 112.002 106.25 112.041C106.133 112.427 106.056 112.853 105.979 113.24C105.979 113.318 105.979 113.395 105.979 113.472C105.553 115.717 105.089 117.961 104.663 120.206C104.392 121.521 104.16 122.837 103.889 124.192C103.696 125.12 103.231 126.359 103.425 127.326C103.734 129.106 106.443 129.958 107.836 130.615C110.081 131.66 112.403 132.512 114.802 133.053C116.118 133.363 117.936 133.673 118.942 132.434C120.22 130.848 118.672 129.261 117.588 128.139C115.653 126.088 114.183 124.308 115.111 121.328C115.692 119.509 116.388 117.69 117.124 115.91C117.278 116.568 117.472 117.226 117.704 117.845C118.362 119.548 119.446 119.625 121.148 119.857C125.405 120.399 130.165 121.754 134.267 119.974C134.809 119.625 134.809 118.58 134.344 118.077Z" fill="#74A2D6"/>
<path d="M105.05 59.2953C103.695 58.7535 101.528 59.2566 100.135 59.334C98.8194 59.3727 96.8458 59.0244 95.6462 59.6823C94.5626 60.2627 94.4852 61.7333 94.2531 62.8168C93.7887 64.7904 93.2856 66.764 92.8212 68.7376C92.7051 69.2406 92.8986 69.6663 93.2469 69.8985C93.5178 70.479 94.1757 70.866 94.8722 70.4403C97.9294 68.6989 101.373 67.1123 104.16 64.9452C105.398 63.9003 107.604 60.3014 105.05 59.2953Z" fill="#F7D06F"/>
<path d="M105.011 74.5036C105.011 73.5361 104.044 73.1492 103.27 73.4975C99.8643 74.968 96.2267 75.9741 92.5504 76.4385C92.2021 76.3998 91.8538 76.4772 91.6216 76.7481C91.2733 77.019 91.1572 77.4833 91.1959 77.909C90.809 79.3795 90.3446 81.5853 91.312 82.6301C92.5504 84.0233 95.5688 82.6688 97.0006 82.3593C98.3163 82.0884 99.6321 81.7788 100.987 81.5079C101.915 81.3144 103.308 81.237 104.121 80.7339C105.824 79.7278 105.011 76.2063 105.011 74.5036Z" fill="#F7D06F"/>
<path d="M125.831 56.7412C120.607 57.9022 115.46 55.8899 110.274 55.5416C108.572 55.4255 106.327 55.1546 105.205 56.7026C103.812 58.6374 103.347 61.3463 103.154 63.6682C103.154 63.823 103.154 63.9391 103.193 64.0551C102.806 67.7314 102.999 71.4077 103.85 75.084C104.005 75.7032 104.702 76.0128 105.282 75.8967C106.095 75.7032 106.946 75.5097 107.759 75.3162C109.655 75.5484 111.513 75.7032 113.409 75.7419C115.344 75.7806 118.323 76.245 119.639 74.5036C120.413 73.4974 120.839 72.0656 121.381 70.9434C122.038 69.5503 122.658 68.1571 123.315 66.8027C124.593 64.0164 125.87 61.2689 127.147 58.4827C127.572 57.5539 126.876 56.5091 125.831 56.7412Z" fill="#B4C7E7"/>
<path d="M106.211 43.1195C105.127 43.1195 104.818 44.3578 105.321 45.0544C104.702 45.1705 104.082 45.1705 103.425 45.0931C102.805 45.0157 102.264 45.6736 102.264 46.254C102.264 46.9506 102.805 47.3376 103.425 47.415C104.353 47.5311 105.243 47.4537 106.133 47.2602C106.753 47.1441 107.101 46.4088 106.946 45.8284C106.907 45.6349 106.791 45.4801 106.675 45.364C107.681 44.8996 107.527 43.1195 106.211 43.1195Z" fill="#57455D"/>
<path d="M94.7564 68.544C92.4732 68.5053 90.3448 67.9636 88.2938 66.9574C86.9781 66.2995 85.7785 68.3118 87.1329 68.9697C89.5322 70.1693 92.0862 70.8272 94.7564 70.8659C96.2269 70.8659 96.2269 68.544 94.7564 68.544Z" fill="#57455D"/>
<path d="M105.708 81.4305C101.916 82.6301 98.1233 83.7137 94.2536 84.6037C92.783 84.952 93.4022 87.1965 94.8727 86.8482C98.7425 85.9195 102.535 84.8746 106.327 83.675C107.759 83.2493 107.14 81.0048 105.708 81.4305Z" fill="#57455D"/>
<path d="M126.063 104.069C123.238 104.688 120.413 104.92 117.549 104.843C117.936 104.611 118.169 104.185 118.052 103.604C117.278 100.199 116.35 96.8323 115.305 93.5043C114.531 91.105 113.331 89.8667 110.855 91.2598C109.539 91.995 110.739 94.0073 112.016 93.2721C113.022 92.6916 113.138 94.3943 113.37 95.1296C113.68 96.1744 113.989 97.2193 114.299 98.2254C114.841 100.199 115.344 102.173 115.808 104.146C115.885 104.417 116.001 104.649 116.195 104.765C115.111 105.075 115.266 106.971 116.582 107.049C119.987 107.242 123.354 106.932 126.682 106.236C128.114 106.004 127.495 103.759 126.063 104.069Z" fill="#57455D"/>
<path d="M184.497 49.6982C184.303 49.7756 184.381 49.3499 184.303 49.5047C184.303 49.466 184.303 49.466 184.303 49.4273C184.381 49.2338 184.381 49.0016 184.342 48.8469C184.342 48.4986 184.303 48.189 184.265 47.8407C184.071 46.3702 181.827 46.9894 182.02 48.4599C182.214 49.853 181.556 51.13 180.472 51.904C180.124 52.0588 179.814 52.2523 179.543 52.5232C178.537 53.4906 179.814 54.8837 180.936 54.342C181.169 54.2259 181.401 54.1098 181.633 53.955C181.981 53.9163 182.368 54.0711 182.601 54.3807C182.678 54.7676 182.794 55.1159 182.949 55.5029C183.452 56.5864 185.116 56.006 185.116 54.9224C185.116 54.4193 185 53.955 184.806 53.5293C184.806 52.8327 185.116 52.1749 185.658 51.7492C186.857 50.8204 185.851 49.0016 184.497 49.6982Z" fill="#F7D06F"/>
<path d="M160.426 13.6705C159.575 14.1349 158.801 14.0188 158.337 13.5544C158.608 12.2774 158.492 10.9229 157.834 9.68462C157.137 8.36889 155.125 9.52982 155.821 10.8456C155.86 10.8843 155.86 10.9229 155.899 11.0003C155.667 11.1938 155.473 11.4647 155.434 11.8517C155.357 12.6257 155.512 13.3222 155.783 13.9027C155.667 14.0962 155.589 14.251 155.434 14.4058C154.467 14.5605 153.499 15.141 152.803 16.1859C152.222 17.0759 153.19 18.1208 154.119 17.8886C155.009 17.6951 155.783 17.2694 156.441 16.7276C156.905 16.8824 157.292 17.3468 157.331 18.0434C157.369 19.3204 159.265 19.6687 159.614 18.3529C159.923 17.1533 160.543 16.2633 161.626 15.6054C162.903 14.8701 161.742 12.8965 160.426 13.6705Z" fill="#F7D06F"/>
<path d="M62.134 84.2555C62.2114 83.2493 60.8183 82.7075 60.1604 83.4428C59.8508 83.7911 59.6186 84.1394 59.3865 84.5263C59.0769 84.4876 58.6899 84.2941 58.6125 84.2168C58.032 83.6363 57.9933 82.5141 57.9546 81.7788C57.9159 81.0048 57.2581 80.6179 56.6776 80.6566C55.7102 80.0761 54.2396 81.0822 55.0136 82.1658C55.7489 83.1719 55.8263 84.4102 55.4006 85.4164C54.4331 85.8808 53.5818 86.7321 53.1561 87.893C52.7691 88.9379 54.0461 89.5958 54.8588 89.2088C55.7876 88.7831 56.5228 88.0865 57.0259 87.2739C57.7998 87.2739 58.5738 87.8157 58.9221 88.667C59.4639 89.944 61.3214 88.9766 61.0505 87.777C60.9344 87.2352 60.9731 86.6934 61.1279 86.1903C61.7083 85.6873 62.0953 85.0294 62.134 84.2555Z" fill="#F7D06F"/>
<path d="M72.7756 38.9401C72.1565 39.0949 71.6147 39.3658 71.1503 39.7528C70.9181 39.6754 70.7246 39.4819 70.6473 39.2497C70.6473 39.0562 70.6473 38.9014 70.6086 38.7079C70.6086 38.5145 70.6085 38.321 70.5312 38.1662C70.4538 37.7792 70.3377 37.4309 70.1829 37.0439C69.6024 35.6895 67.5901 36.8504 68.1706 38.2049C68.248 38.3597 68.2867 38.5144 68.3254 38.6692C68.3254 38.9788 68.3254 39.2497 68.3641 39.4819C68.3254 39.8689 68.2093 40.2172 68.0545 40.5654C66.584 40.6428 65.3843 41.7651 65.3843 43.2356C65.3843 43.9709 66.1196 44.59 66.8549 44.3578C67.6675 44.1256 68.3641 43.7 68.9058 43.1969C68.9058 43.1969 68.9445 43.1969 68.9445 43.2356C69.4089 43.5452 69.6798 44.1256 69.9894 44.59C70.6472 45.6349 72.6208 44.977 72.1178 43.7C71.8469 43.0808 71.9243 42.4229 72.2726 41.9199C72.9304 41.7264 73.5496 41.3007 74.0527 40.6428C74.7492 39.7915 73.6657 38.7466 72.7756 38.9401Z" fill="#F7D06F"/>
<path d="M108.726 14.4057C107.952 14.1348 107.178 14.1735 106.443 14.4831C106.211 14.2509 106.095 13.864 106.25 13.4383C106.598 12.1612 104.895 11.5421 104.199 12.3934C103.541 12.4321 102.844 12.9739 103.038 13.8253C103.309 15.0249 102.689 16.031 101.722 16.5341C101.335 16.6115 100.948 16.7276 100.561 16.9211C99.3227 17.579 100.251 19.2043 101.451 19.0495C101.838 18.9721 102.225 18.8947 102.573 18.7399C103.463 18.7399 104.237 19.5138 104.353 20.4426C104.547 21.7196 106.791 21.4487 106.637 20.133C106.559 19.4751 106.404 17.9272 106.791 17.0759C107.488 17.1533 108.262 16.9985 108.958 16.5341C109.887 15.9536 109.655 14.754 108.726 14.4057Z" fill="#F7D06F"/>
<path d="M155.319 50.0852C154.815 50.2787 154.235 50.0465 153.964 49.6209C154.08 49.35 154.158 49.0791 154.235 48.7695C154.467 47.7634 153.461 47.1442 152.687 47.3764C152.223 47.3764 151.758 47.6086 151.604 48.189C151.487 48.6147 151.487 49.0017 151.526 49.4274C151.062 50.3174 150.326 51.014 149.398 51.4397C149.011 51.5171 148.624 51.6718 148.237 51.904C147.076 52.5619 147.85 54.342 149.127 54.0324C149.475 53.955 149.823 53.8389 150.172 53.6841C151.023 53.6067 151.952 54.0711 152.261 54.9612C152.648 56.1221 154.661 56.0447 154.545 54.6516C154.467 53.6067 154.932 52.7167 155.938 52.4071C157.331 51.8266 156.75 49.6209 155.319 50.0852ZM152.958 51.8266C152.919 51.904 152.842 51.9814 152.803 52.0588C152.726 52.0201 152.648 51.9814 152.571 51.904C152.648 51.8266 152.726 51.7492 152.764 51.6718C152.842 51.7105 152.881 51.7879 152.958 51.8266Z" fill="#F7D06F"/>
<path d="M46.6549 107.049V107.281C46.6549 108.79 48.9768 108.79 48.9768 107.281V107.049C48.9768 105.539 46.6549 105.539 46.6549 107.049Z" fill="white"/>
<path d="M56.4838 95.9034C55.8647 95.9421 55.3229 96.4065 55.3229 97.0644V97.4514C55.3229 98.0705 55.8647 98.651 56.4838 98.6123C57.103 98.5736 57.6448 98.1092 57.6448 97.4514V97.0644C57.6448 96.4452 57.103 95.8647 56.4838 95.9034Z" fill="white"/>
<path d="M73.3565 104.417C73.2404 104.301 73.0857 104.146 72.9696 104.03C72.5439 103.604 71.7699 103.566 71.3442 104.03C70.9186 104.494 70.8799 105.23 71.3442 105.655C71.4603 105.771 71.6151 105.926 71.7312 106.042C72.1569 106.468 72.9309 106.507 73.3565 106.042C73.7822 105.617 73.8209 104.881 73.3565 104.417Z" fill="white"/>
<path d="M41.0437 89.2474C40.4245 89.2861 39.8827 89.7505 39.8827 90.4084V90.7954C39.8827 91.4145 40.4245 91.995 41.0437 91.9563C41.6628 91.9176 42.2046 91.4532 42.2046 90.7954V90.4084C42.2046 89.7892 41.6628 89.2087 41.0437 89.2474Z" fill="white"/>
<path d="M63.6045 66.6092L63.2175 66.2222C62.7919 65.7966 62.0179 65.7579 61.5922 66.2222C61.1666 66.6866 61.1279 67.4219 61.5922 67.8475L61.9792 68.2345C62.4049 68.6602 63.1788 68.6989 63.6045 68.2345C64.0302 67.8088 64.0689 67.0736 63.6045 66.6092Z" fill="white"/>
<path d="M53.1177 50.9752C51.6085 50.9752 51.6085 53.2971 53.1177 53.2971C54.6269 53.2971 54.6269 50.9752 53.1177 50.9752Z" fill="white"/>
<path d="M80.6705 15.7215C80.1287 15.4506 79.3548 15.5667 79.0839 16.1471C78.9678 16.418 78.813 16.6889 78.6969 16.9598C78.426 17.5016 78.5421 18.2368 79.1226 18.5464C79.6643 18.8173 80.4383 18.7012 80.7092 18.1207C80.8253 17.8498 80.9801 17.579 81.0962 17.3081C81.367 16.7663 81.251 16.031 80.6705 15.7215Z" fill="white"/>
<path d="M119.562 9.10413C118.053 9.10413 118.053 11.426 119.562 11.426C121.032 11.426 121.032 9.10413 119.562 9.10413Z" fill="white"/>
<path d="M129.236 33.2516C127.727 33.2516 127.727 35.5735 129.236 35.5735C130.706 35.5735 130.706 33.2516 129.236 33.2516Z" fill="white"/>
<path d="M133.26 47.3763C131.751 47.3763 131.751 49.6982 133.26 49.6982C134.731 49.6982 134.731 47.3763 133.26 47.3763Z" fill="white"/>
<path d="M135.66 61.0366C135.041 61.0753 134.499 61.5397 134.499 62.1976V62.5845C134.499 63.2037 135.041 63.7842 135.66 63.7455C136.279 63.7068 136.821 63.2424 136.821 62.5845V62.1976C136.821 61.6171 136.279 61.0366 135.66 61.0366Z" fill="white"/>
<path d="M164.916 44.1257H164.529C163.91 44.1257 163.329 44.6675 163.368 45.2867C163.407 45.9058 163.871 46.4476 164.529 46.4476H164.916C165.535 46.4476 166.116 45.9058 166.077 45.2867C166.077 44.6288 165.574 44.1257 164.916 44.1257Z" fill="white"/>
<path d="M165.844 30.8523C164.335 30.8523 164.335 33.1742 165.844 33.1742C167.354 33.1742 167.354 30.8523 165.844 30.8523Z" fill="white"/>
<path d="M179.157 29.6527C177.647 29.6527 177.647 31.9746 179.157 31.9746C180.627 31.9746 180.627 29.6527 179.157 29.6527Z" fill="white"/>
<path d="M169.482 65.0613H169.095C168.476 65.0613 167.896 65.603 167.934 66.2222C167.973 66.8414 168.437 67.3832 169.095 67.3832H169.482C170.101 67.3832 170.682 66.8414 170.643 66.2222C170.604 65.603 170.14 65.0613 169.482 65.0613Z" fill="white"/>
<path d="M183.181 76.3611C181.672 76.3611 181.672 78.683 183.181 78.683C184.652 78.683 184.652 76.3611 183.181 76.3611Z" fill="white"/>
<path d="M173.506 101.321C171.997 101.321 171.997 103.643 173.506 103.643C175.015 103.643 175.015 101.321 173.506 101.321Z" fill="white"/>
<path d="M132.022 96.484C130.513 96.484 130.513 98.8059 132.022 98.8059C133.531 98.8059 133.531 96.484 132.022 96.484Z" fill="white"/>
<path d="M123.586 78.7604H123.199C122.58 78.7604 122 79.3021 122.038 79.9213C122.077 80.5405 122.541 81.0822 123.199 81.0822H123.586C124.205 81.0822 124.786 80.5405 124.747 79.9213C124.708 79.3021 124.244 78.7604 123.586 78.7604Z" fill="white"/>
<path d="M144.677 31.278C143.168 31.278 143.168 33.5998 144.677 33.5998C146.186 33.5998 146.186 31.278 144.677 31.278Z" fill="white"/>
<path d="M136.937 11.1552C135.428 11.1552 135.428 13.477 136.937 13.477C138.446 13.477 138.446 11.1552 136.937 11.1552Z" fill="white"/>
<path d="M121.961 46.7572C120.451 46.7572 120.451 49.0791 121.961 49.0791C123.47 49.0791 123.47 46.7572 121.961 46.7572Z" fill="white"/>
<path d="M142.858 99.9281C141.349 99.9281 141.349 102.25 142.858 102.25C144.367 102.25 144.367 99.9281 142.858 99.9281Z" fill="white"/>
<path d="M47.158 69.4728C45.6488 69.4728 45.6488 71.7947 47.158 71.7947C48.6672 71.7947 48.6672 69.4728 47.158 69.4728Z" fill="white"/>
<path d="M152.184 67.3057C151.875 65.4482 151.526 63.6294 151.217 61.7719C151.139 61.3075 150.559 60.8818 150.095 60.9205C149.011 60.9979 148.005 61.1914 146.999 61.5397C145.606 62.0428 146.186 64.2873 147.618 63.7842C148.121 63.5907 148.624 63.4746 149.166 63.3585C149.437 64.8677 149.708 66.3769 149.94 67.8862C150.211 69.3954 152.455 68.7762 152.184 67.3057Z" fill="#57455D"/>
<path d="M154.893 73.1492C154.816 71.6399 155.28 68.9311 154.235 67.6541C153.113 66.2996 150.443 67.2671 149.011 67.4606C147.424 67.6928 145.683 68.041 144.986 69.6663C144.638 70.5177 144.715 71.3691 145.102 72.0656C145.567 74.5423 145.838 77.1737 146.612 79.5343C147.231 81.4692 148.508 81.3531 150.327 81.1983C151.836 81.0822 154.003 81.2757 154.777 79.6504C155.667 77.909 155.009 75.0067 154.893 73.1492Z" fill="white"/>
<path d="M155.164 66.5705C153.732 65.5257 151.139 66.377 149.553 66.5705C148.121 66.7253 145.102 66.4157 144.212 67.8475C144.019 68.1571 143.942 68.428 143.903 68.6602C142.007 73.1878 149.862 71.2916 151.759 71.0981C152.958 70.9434 155.59 71.2142 156.247 69.8211C156.712 68.815 156.015 67.1897 155.164 66.5705Z" fill="#74A2D6"/>
<path d="M176.022 85.1068C169.521 88.667 161.162 88.3961 153.964 88.5896C146.457 88.7831 138.756 88.2413 131.945 84.7972C130.63 84.1394 129.43 86.1129 130.784 86.8095C137.982 90.4471 146.031 91.1437 153.964 90.9502C161.627 90.7567 170.295 90.9115 177.183 87.1578C178.499 86.3838 177.338 84.4102 176.022 85.1068Z" fill="#57455D"/>
<path d="M112.519 61.9654C111.745 60.1852 109.887 59.6435 108.146 60.2239C105.94 60.9592 104.082 62.9715 102.148 64.2098C99.7482 65.7578 97.1942 67.0735 94.6014 68.157C94.4079 68.2344 94.2531 68.3892 94.1371 68.5053C93.8662 68.7762 93.6727 69.1245 93.7501 69.6275C94.0984 72.0268 94.9497 74.6583 96.4589 76.5932C97.736 78.1798 99.1678 77.2897 100.677 76.4771C104.818 74.2713 108.533 71.0594 111.319 67.267C112.402 65.7191 113.331 63.8228 112.519 61.9654Z" fill="#74A2D6"/>
<path d="M116.853 115.252C113.293 114.014 109.694 112.931 106.056 112.079C104.586 111.731 103.966 113.975 105.437 114.324C109.113 115.214 112.712 116.259 116.234 117.497C117.627 117.961 118.246 115.717 116.853 115.252Z" fill="#57455D"/>
<path d="M101.76 73.4587C100.483 71.5238 99.2838 69.5502 98.1616 67.4992C97.4263 66.1835 95.414 67.3444 96.1493 68.6601C97.2715 70.6724 98.4711 72.6847 99.7482 74.6196C100.561 75.8579 102.573 74.697 101.76 73.4587Z" fill="#57455D"/>
<path d="M126.605 66.6866C125.405 68.9311 124.244 71.1756 123.045 73.4201C122.348 74.7358 124.36 75.8967 125.057 74.581C126.257 72.3365 127.418 70.092 128.617 67.8476C129.314 66.5318 127.302 65.3322 126.605 66.6866Z" fill="#57455D"/>
<path d="M100.29 62.2363H96.6913C95.1821 62.2363 95.1821 64.5582 96.6913 64.5582H100.29C101.799 64.5582 101.799 62.2363 100.29 62.2363Z" fill="#57455D"/>
<path d="M101.296 76.8254C99.1291 77.2124 96.962 77.6768 94.7949 78.2185C93.3631 78.6055 93.9436 80.85 95.4141 80.463C97.5425 79.9212 99.7096 79.4569 101.915 79.0699C103.386 78.8377 102.767 76.5932 101.296 76.8254Z" fill="#57455D"/>
<path d="M58.4963 139.168C58.0706 137.852 56.4066 137.465 55.2069 137.194C51.9563 136.42 47.9704 136.691 45.0294 138.471C44.062 139.052 43.4815 140.019 43.9459 141.18C44.1394 141.644 44.4489 141.993 44.7972 142.225C44.9133 142.651 45.2616 142.999 45.8421 142.999C48.0865 142.999 50.2923 142.999 52.5368 142.999C54.0847 142.999 55.7487 143.038 57.1031 142.186C58.148 141.528 58.8446 140.406 58.4963 139.168ZM51.8015 140.677C50.6019 140.677 49.441 140.677 48.2413 140.677C48.0478 140.445 47.777 140.29 47.3513 140.329C46.9643 140.367 46.5773 140.406 46.1903 140.483C46.6547 140.213 47.1578 140.019 47.6609 139.826C48.5509 139.516 49.5184 139.284 50.4471 139.168C51.6854 139.052 54.4717 138.819 55.4778 139.671C56.7549 140.793 52.4594 140.677 51.8015 140.677Z" fill="#57455D"/>
<path d="M100.29 144.818H97.6974C96.1882 144.818 96.1882 147.139 97.6974 147.139H100.29C101.799 147.139 101.799 144.818 100.29 144.818Z" fill="#57455D"/>
<path d="M75.2916 131.66C74.3242 131.544 73.318 131.66 72.3893 131.931C70.9575 132.357 71.5766 134.601 73.0085 134.176C73.7824 133.943 74.479 133.905 75.2916 133.982C75.9108 134.06 76.4526 133.402 76.4526 132.821C76.4526 132.125 75.9108 131.738 75.2916 131.66Z" fill="#57455D"/>
<path d="M54.6265 123.921H49.9828C48.4736 123.921 48.4736 126.243 49.9828 126.243H54.6265C56.1357 126.243 56.1357 123.921 54.6265 123.921Z" fill="#57455D"/>
<path d="M146.186 144.276C142.703 141.606 137.634 142.07 134.577 145.166C134.344 145.437 134.228 145.708 134.228 145.979C133.029 146.985 132.177 148.726 131.365 149.81C130.475 151.009 132.487 152.17 133.377 150.971C133.919 150.235 134.422 149.423 135.041 148.726C135.699 147.952 136.008 147.565 137.053 147.526C138.524 147.449 140.072 147.797 141.503 147.875C143.477 147.952 145.489 147.681 146.573 145.824C146.96 145.282 146.689 144.663 146.186 144.276ZM138.292 145.398C139.994 144.663 141.929 144.702 143.632 145.476C142.277 145.979 140.072 145.63 138.292 145.398Z" fill="#57455D"/>
<path d="M173.042 143.541C171.03 143.425 169.018 143.618 167.044 144.082C165.573 144.431 166.193 146.675 167.663 146.327C169.443 145.901 171.223 145.785 173.042 145.901C174.551 145.94 174.551 143.618 173.042 143.541Z" fill="#57455D"/>
<path d="M181.866 121.599C180.589 121.173 179.195 121.173 177.88 121.599C176.487 122.063 177.067 124.308 178.499 123.843C179.428 123.534 180.318 123.534 181.246 123.843C182.678 124.308 183.297 122.063 181.866 121.599Z" fill="#57455D"/>
<path d="M143.902 114.362H142.084C141.465 114.362 140.884 114.904 140.923 115.523C140.961 116.142 141.426 116.684 142.084 116.684H143.902C144.522 116.684 145.102 116.142 145.063 115.523C145.025 114.904 144.56 114.362 143.902 114.362Z" fill="#57455D"/>
<path d="M124.786 137.658C123.741 138.007 122.735 138.355 121.69 138.703C120.297 139.168 120.877 141.412 122.309 140.948C123.354 140.599 124.36 140.251 125.405 139.903C126.798 139.439 126.218 137.194 124.786 137.658Z" fill="#57455D"/>
<path d="M207.213 88.7444C206.71 88.8218 206.207 88.8992 205.703 88.9766C205.587 88.0865 205.394 87.1965 205.123 86.3451C204.697 84.9133 202.453 85.5325 202.879 86.9643C203.111 87.7383 203.266 88.5122 203.382 89.3249C202.879 89.4023 202.375 89.4797 201.872 89.5184C200.402 89.7118 201.021 91.9563 202.492 91.7628C202.84 91.7241 203.188 91.6467 203.536 91.608C203.536 91.9563 203.536 92.3046 203.498 92.6916C203.382 94.2008 205.703 94.1621 205.82 92.6916C205.858 92.2272 205.858 91.7628 205.858 91.2985C206.516 91.2211 207.174 91.105 207.832 91.0276C209.302 90.7954 208.683 88.5509 207.213 88.7444Z" fill="#F7D06F"/>
<path d="M212.901 31.7811C212.708 31.1232 212.088 30.8523 211.469 30.9684C211.198 31.0071 210.928 31.0845 210.657 31.1232C210.424 30.0009 210.115 28.8787 209.728 27.7952C209.263 26.402 207.019 26.9825 207.483 28.4143C207.832 29.4205 208.141 30.4653 208.373 31.5102C208.219 31.5489 208.064 31.5489 207.909 31.5876C207.29 31.7037 206.942 32.4389 207.096 33.0194C207.29 33.6773 207.909 33.9481 208.528 33.832C208.606 33.832 208.722 33.7933 208.799 33.7933C208.799 33.9094 208.838 34.0255 208.838 34.1416C209.031 35.6121 211.353 35.6121 211.16 34.1416C211.121 33.9094 211.082 33.6386 211.044 33.4064C211.392 33.329 211.701 33.2903 212.05 33.2129C212.708 33.0968 213.056 32.3615 212.901 31.7811Z" fill="#F7D06F"/>
<path d="M42.2044 35.6509C41.7788 35.6509 41.3531 35.6509 40.9274 35.6896C40.7339 34.5674 40.463 33.4838 40.1147 32.4003C39.6504 30.9685 37.4059 31.5876 37.8703 33.0195C38.1798 34.0256 38.4507 35.0318 38.6055 36.0379C38.0251 36.154 37.4446 36.3088 36.8641 36.5023C35.4323 36.9667 36.0515 39.2111 37.4833 38.7467C37.9477 38.592 38.412 38.4759 38.8764 38.3598C38.8764 38.592 38.9151 38.8628 38.9151 39.095C38.9538 40.6042 41.2757 40.6042 41.237 39.095C41.237 38.7468 41.1983 38.3598 41.1983 38.0115C41.5466 37.9728 41.8562 37.9728 42.2044 37.9728C43.675 37.9728 43.675 35.6509 42.2044 35.6509Z" fill="#F7D06F"/>
<path d="M21.6562 100.779C21.0757 100.857 20.4953 100.973 19.9148 101.05C19.7213 100.044 19.4891 99.038 19.1795 98.0706C18.7152 96.6388 16.4707 97.2579 16.9351 98.6898C17.2446 99.5798 17.4768 100.509 17.6316 101.437C17.206 101.515 16.7803 101.553 16.3546 101.631C14.8841 101.863 15.5032 104.107 16.9738 103.875C17.2833 103.837 17.6316 103.759 17.9412 103.72C17.9799 104.069 17.9799 104.417 18.0186 104.765C18.0573 106.236 20.3792 106.275 20.3405 104.765C20.3405 104.301 20.3018 103.837 20.2631 103.372C20.9596 103.256 21.6175 103.14 22.3141 103.063C23.7459 102.792 23.1267 100.547 21.6562 100.779Z" fill="#F7D06F"/>
<path d="M30.5177 65.6805C29.8211 65.7966 29.0859 65.9127 28.3893 65.9514C28.1958 65.1774 27.925 64.4422 27.5767 63.7069C26.9575 62.3525 24.9452 63.5134 25.5644 64.8678C25.7192 65.2548 25.874 65.6418 25.9901 66.0288C25.487 66.0288 24.9452 65.9901 24.4421 65.9514C22.9716 65.8353 22.9716 68.1572 24.4421 68.2732C25.1 68.3119 25.7966 68.3506 26.4544 68.3506C26.4931 68.6602 26.4931 68.9698 26.4931 69.2794C26.4931 70.7886 28.815 70.7886 28.815 69.2794C28.815 68.9311 28.815 68.5828 28.7763 68.2345C29.5503 68.1571 30.3629 68.0411 31.1369 67.8863C32.6074 67.6154 31.9882 65.4096 30.5177 65.6805Z" fill="#F7D06F"/>
<path d="M61.3598 18.4303C59.8505 18.4303 59.8505 20.7522 61.3598 20.7522C62.8303 20.7522 62.8303 18.4303 61.3598 18.4303Z" fill="white"/>
<path d="M29.434 46.4476C27.9248 46.4476 27.9248 48.7695 29.434 48.7695C30.9045 48.7695 30.9045 46.4476 29.434 46.4476Z" fill="white"/>
<path d="M14.4969 81.5852C12.9877 81.5852 12.9877 83.9071 14.4969 83.9071C16.0061 83.9071 16.0061 81.5852 14.4969 81.5852Z" fill="white"/>
<path d="M35.4327 109.951H35.0844C34.4652 109.951 33.8848 110.493 33.9235 111.112C33.9622 111.731 34.4265 112.273 35.0844 112.273H35.4327C36.0518 112.273 36.6323 111.731 36.5936 111.112C36.5936 110.493 36.0905 109.951 35.4327 109.951Z" fill="white"/>
<path d="M13.4522 116.723C11.943 116.723 11.943 119.045 13.4522 119.045C14.9614 119.045 14.9614 116.723 13.4522 116.723Z" fill="white"/>
<path d="M29.7827 81.9336C28.2735 81.9336 28.2735 84.2555 29.7827 84.2555C31.2532 84.2555 31.2532 81.9336 29.7827 81.9336Z" fill="white"/>
<path d="M200.75 58.8696C199.241 58.8696 199.241 61.1915 200.75 61.1915C202.259 61.1915 202.259 58.8696 200.75 58.8696Z" fill="white"/>
<path d="M194.481 100.741C194.017 100.315 193.281 100.276 192.856 100.741C192.74 100.857 192.623 100.973 192.507 101.089C192.082 101.515 192.043 102.289 192.507 102.714C192.972 103.14 193.707 103.179 194.133 102.714C194.249 102.598 194.365 102.482 194.481 102.366C194.907 101.94 194.945 101.166 194.481 100.741Z" fill="white"/>
<path d="M217.816 46.8346H217.467C216.848 46.8346 216.268 47.3764 216.306 47.9955C216.345 48.6147 216.809 49.1565 217.467 49.1565H217.816C218.435 49.1565 219.015 48.6147 218.976 47.9955C218.938 47.3377 218.435 46.8346 217.816 46.8346Z" fill="white"/>
<path d="M214.256 74.1166C212.747 74.1166 212.747 76.4385 214.256 76.4385C215.726 76.4385 215.765 74.1166 214.256 74.1166Z" fill="white"/>
<path d="M186.586 14.8701C185.077 14.8701 185.077 17.192 186.586 17.192C188.057 17.192 188.057 14.8701 186.586 14.8701Z" fill="white"/>
<path d="M195.796 34.7609C194.287 34.7609 194.287 37.0827 195.796 37.0827C197.306 37.0827 197.306 34.7609 195.796 34.7609Z" fill="white"/>
<path d="M201.098 135.182C200.402 135.066 199.666 134.911 198.97 134.795C198.351 134.679 197.732 134.95 197.538 135.608C197.383 136.188 197.732 136.923 198.351 137.039C199.047 137.155 199.783 137.31 200.479 137.426C201.098 137.542 201.717 137.272 201.911 136.614C202.027 136.033 201.717 135.298 201.098 135.182Z" fill="#57455D"/>
<path d="M26.6094 132.434C26.4546 131.854 25.758 131.389 25.1776 131.622C24.1327 132.009 23.0492 132.279 21.9656 132.318C20.4951 132.396 20.4564 134.717 21.9656 134.64C23.2814 134.563 24.5584 134.33 25.7967 133.827C26.4159 133.634 26.8029 133.092 26.6094 132.434Z" fill="#57455D"/>
<path d="M73.8208 151.977C73.6273 151.319 73.0082 151.087 72.389 151.164C71.5763 151.28 70.725 151.435 69.9123 151.551C69.2932 151.667 68.9449 152.441 69.0997 152.983C69.2932 153.641 69.9123 153.873 70.5315 153.796C71.3441 153.679 72.1955 153.525 73.0082 153.409C73.6273 153.292 73.9756 152.518 73.8208 151.977Z" fill="#57455D"/>
</svg>
