<svg width="228" height="137" viewBox="0 0 228 137" fill="none" xmlns="http://www.w3.org/2000/svg">
<path d="M215.791 37.9517C193.568 11.8295 148.1 -1.87526 105.169 0.206951C82.4159 1.30484 60.0038 6.60502 41.7939 16.1832C24.379 25.3449 11.1664 38.2546 4.50337 52.6408C-8.44419 80.5045 7.1156 112.343 43.6111 127.865C46.1476 128.963 48.7598 129.91 51.4478 130.78C51.5235 131.31 51.9778 131.803 52.9242 132.03C76.775 137.254 102.254 137.444 126.71 134.15C139.09 132.484 151.167 129.948 162.865 126.73C174.222 123.587 185.542 119.953 195.499 114.994C230.556 97.5787 237.143 63.0518 215.791 37.9517Z" fill="#112A62"/>
<path d="M124.287 56.6919C120.539 51.581 114.293 48.9688 108.008 49.8017C101.724 50.5967 94.2277 55.0261 92.7134 61.6135C91.1612 68.3901 94.9849 77.2111 102.102 79.0283C102.178 79.4448 102.519 79.8234 103.087 79.7855C107.592 79.5583 112.097 79.3691 116.602 79.1419C119.858 78.9905 122.849 78.4226 124.855 75.6211C128.641 70.3588 127.997 61.7649 124.287 56.6919Z" fill="#B4C7E7"/>
<path d="M143.178 80.7321C141.248 76.9462 138.522 73.5768 134.395 72.0625C133.79 71.8353 133.032 72.4411 133.07 73.0468C133.449 77.4005 136.213 80.6942 138.522 84.215C139.695 85.9944 140.793 87.9251 141.058 90.0831C141.096 90.5752 141.172 91.2188 141.021 91.711C140.566 93.1496 139.165 92.8089 138.105 92.6196C136.818 92.3546 135.569 91.9381 134.395 91.3324C125.801 86.9408 119.403 74.5233 108.197 77.3248C107.932 77.0977 107.516 77.0598 107.137 77.3248C98.4677 83.4579 93.1676 93.9446 90.1389 103.864C88.776 108.369 89.4574 114.54 95.0605 115.41C97.0291 115.713 99.1492 115.486 101.231 114.956C101.345 115.183 101.534 115.41 101.913 115.486C102.556 115.6 103.2 115.713 103.806 115.827C103.162 116.433 103.2 117.833 104.146 118.023C104.033 118.742 105.131 136.346 105.926 136.346C110.242 136.497 115.618 136.119 120.426 135.475C122.621 135.172 124.779 134.718 126.899 133.923C128.073 133.507 130.307 132.749 130.155 130.781C130.079 129.986 129.095 112.798 128.641 112.647C128.679 112.571 128.679 112.495 128.679 112.382C128.717 108.217 128.187 104.129 127.127 100.153C130.496 102.046 134.282 103.182 138.143 102.387C142.308 101.554 145.753 98.4876 146.396 94.2097C147.267 89.6288 145.261 84.7829 143.178 80.7321Z" fill="white"/>
<path d="M116.11 69.2987C115.39 67.2923 114.406 64.7557 112.324 63.7714C107.099 61.3106 104.941 69.2609 105.623 73.0846C105.661 73.9553 105.812 74.7125 106.002 75.3561C107.516 80.0505 113.535 81.4891 116.072 76.7569C117.321 74.4096 116.98 71.7217 116.11 69.2987Z" fill="#F7D3BC"/>
<path d="M119.517 75.3938C116.829 74.6745 113.574 75.2046 110.848 75.2803C109.258 75.3181 97.4081 74.3717 100.512 79.2175C101.8 81.224 104.866 80.5804 106.835 80.5047C107.441 80.5047 108.084 80.4669 108.69 80.4669C110.621 80.5047 112.551 80.4669 114.482 80.3533C114.596 80.3533 114.709 80.3154 114.823 80.3154C115.58 80.2776 116.337 80.2776 117.132 80.2397C117.397 80.2397 117.624 80.1262 117.776 80.0126C118.117 79.9747 118.419 79.9369 118.76 79.8611C119.707 79.7097 120.729 79.634 121.372 78.8011C122.66 77.1732 121.07 75.7724 119.517 75.3938Z" fill="#EF86B0"/>
<path d="M144.806 79.8234C143.141 76.7191 140.718 74.0311 137.878 71.9868C136.742 71.1539 135.493 70.3967 134.092 71.116C132.919 71.7217 132.427 73.1225 132.54 74.4097C132.729 76.189 133.827 77.9684 134.547 79.5963C135.493 81.6785 136.44 83.7986 137.348 85.8808C137.689 86.6001 138.484 86.5244 138.9 86.0701C139.203 86.4108 139.658 86.5622 140.15 86.2594C141.664 85.3508 143.784 84.5179 144.996 83.2307C146.094 82.1707 145.412 80.9213 144.806 79.8234Z" fill="#EF86B0"/>
<path d="M114.406 80.391C113.649 80.8831 112.968 81.6403 112.362 82.4353C112.324 82.3975 112.248 82.3218 112.211 82.2839C110.431 80.9967 108.425 80.391 106.229 80.4288C105.51 80.4288 105.093 81.0724 105.245 81.7539C105.661 83.6468 108.198 89.8556 111.075 88.0005C111.643 87.6219 111.946 86.9783 112.286 86.4105C112.438 86.1833 112.551 85.9561 112.703 85.729C114.104 87.2433 115.996 88.1141 118.117 88.3412C118.647 88.3791 119.214 87.8112 119.139 87.3191C118.949 85.464 117.662 78.2709 114.406 80.391Z" fill="#F7D06F"/>
<path d="M122.66 93.6035C121.486 92.5056 119.631 92.5056 118.155 92.5435C115.997 92.5813 113.763 92.8463 111.719 93.6035C108.614 94.7393 106.116 97.6922 107.706 101.062C107.743 101.137 107.781 101.213 107.819 101.251C107.062 102.046 108.046 103.56 109.069 102.879C111.037 101.592 113.081 100.456 115.277 99.623C116.224 99.2444 117.17 98.9415 118.155 98.6765C119.404 98.3358 120.123 97.8058 120.161 99.3958C120.312 103.22 117.852 106.967 114.293 108.33C113.271 108.747 113.347 110.337 114.558 110.375C116.564 110.375 118.912 110.299 120.805 109.504C122.584 108.785 123.038 107.384 123.303 105.605C123.644 103.295 123.833 100.986 123.795 98.6387C123.758 97.0107 123.947 94.8528 122.66 93.6035Z" fill="#F7D06F"/>
<path d="M108.992 120.256C108.16 114.237 107.364 108.179 106.532 102.16C106.494 101.97 106.418 101.819 106.342 101.705C106.38 101.592 106.38 101.516 106.38 101.403C106.115 98.4875 105.85 95.6103 105.585 92.6952C105.358 90.1587 105.434 87.2814 104.752 84.8206C104.336 83.2684 102.935 81.8298 101.194 82.2084C99.3764 82.587 98.1649 85.2749 97.2563 86.6378C93.7355 91.8623 89.7982 98.8282 89.4575 105.605C88.9275 108.861 89.2303 112.23 91.464 114.804C92.4862 116.016 93.8112 116.887 95.2498 117.379C96.4613 117.909 97.7863 118.098 99.0735 117.909C99.1871 117.909 99.3385 117.909 99.4521 117.871C98.9221 119.802 98.3921 121.77 97.862 123.701C97.6727 124.345 98.1649 125.026 98.8464 125.026L103.352 124.913C104.714 124.875 106.342 125.064 107.667 124.761C109.939 124.231 109.22 121.96 108.992 120.256Z" fill="#74A2D6"/>
<path d="M145.829 82.9656C145.677 82.4735 145.109 82.057 144.542 82.2463C142.232 83.0035 139.923 83.7985 137.614 84.5557C137.046 84.745 136.818 85.2371 136.894 85.8429C137.083 87.0543 137.159 88.228 137.197 89.4394C137.197 89.6666 137.349 90.6887 137.159 90.878C136.856 91.143 135.645 90.8402 135.456 90.7645C133.373 90.2723 131.556 88.9851 129.966 87.5844C127.089 84.9721 124.704 81.8299 121.145 80.0505C120.653 79.8234 120.047 79.8991 119.744 80.4291C119.139 80.4291 118.457 80.9213 118.646 81.7163C121.827 94.2853 124.098 107.081 125.385 119.991C125.461 120.673 125.991 121.165 126.71 120.975C128.528 120.521 130.685 120.294 132.389 119.499C133.828 118.855 133.866 117.644 133.601 116.281C132.919 112.419 132.162 108.596 131.443 104.734C136.137 106.551 141.626 105.454 144.996 101.441C149.615 96.0646 147.835 89.023 145.829 82.9656Z" fill="#74A2D6"/>
<path d="M122.205 98.5248C121.448 97.0862 119.972 96.8212 118.571 97.3133C116.261 98.1083 114.066 99.3198 111.87 100.342C109.447 101.44 107.062 102.538 104.639 103.598C103.957 103.901 103.995 104.582 104.336 105.036C103.92 105.301 103.617 105.869 103.882 106.437C104.412 107.573 104.98 108.747 105.51 109.882C105.85 110.639 106.153 111.624 106.91 112.078C108.349 112.987 110.507 111.624 111.794 110.98C115.429 109.049 119.063 106.096 121.524 102.803C122.432 101.516 122.962 99.9634 122.205 98.5248Z" fill="#EF86B0"/>
<path d="M116.413 65.2479C114.785 62.4085 111.529 60.667 108.463 62.4464C104.904 64.4907 104.639 68.8066 104.866 72.4788C104.866 72.5545 104.866 72.5924 104.904 72.6303C104.866 73.1981 104.904 73.7282 105.093 74.3339C105.358 75.1289 106.191 75.2804 106.835 74.7882C107.478 74.2582 108.122 73.7282 108.69 73.1981C108.728 73.766 109.068 74.296 109.788 74.296C111.226 74.296 111.264 72.0624 109.826 72.0245C110.28 71.4945 110.658 70.9645 110.999 70.3588C110.999 70.3588 110.999 70.3588 111.037 70.3588C111.264 70.3209 111.605 70.7373 111.908 70.9645C112.551 71.4945 113.46 72.1002 114.406 72.4788C114.141 72.8953 114.141 73.501 114.444 73.9175C113.725 73.9932 113.006 74.0689 112.248 74.1446C111.643 74.2203 111.113 74.6368 111.113 75.2804C111.113 75.8482 111.643 76.4918 112.248 76.4161C113.006 76.3404 113.763 76.2647 114.52 76.189C115.126 76.1132 115.656 75.6968 115.656 75.0532C115.656 74.7882 115.542 74.5232 115.353 74.296C116.186 74.2582 116.489 73.4632 116.299 72.8196C119.82 72.3274 117.359 66.9137 116.413 65.2479Z" fill="#57455D"/>
<path d="M137.5 67.2922C135.91 66.4972 132.086 65.2857 130.647 66.9515C129.019 68.8444 132.465 72.3652 133.714 73.5388L133.752 73.5767C133.184 75.091 133.373 76.9461 133.184 78.6497C132.654 78.6497 132.124 78.6497 131.594 78.6497C130.231 78.6497 130.307 80.5426 131.594 80.7319C132.389 80.8455 133.184 80.9212 133.979 81.0348C134.244 81.0726 134.509 80.9212 134.698 80.7319C135.531 80.7319 136.364 80.7319 137.197 80.7319C138.522 80.7319 138.522 78.6876 137.197 78.6497C136.553 78.6497 135.872 78.6497 135.228 78.6497C135.304 77.7032 135.266 76.7946 135.342 75.8103C135.455 74.5231 135.834 73.6145 137.045 73.0845C137.613 72.8195 138.219 72.7059 138.749 72.3274C141.21 70.6994 139.544 68.3144 137.5 67.2922Z" fill="#B4C7E7"/>
<path d="M162.41 31.4021C161.275 28.7899 159.95 26.2912 158.435 23.8683C157.489 22.3918 156.353 20.9153 154.687 22.5054C152.492 24.6633 150.599 27.1998 148.554 29.5092C146.926 31.3643 145.147 33.0679 144.92 35.6044C144.882 35.9451 145.147 36.4373 145.488 36.5887C146.283 36.9673 147.078 37.1187 147.949 37.1944C149.539 37.3459 150.296 37.5352 150.561 39.3524C150.939 42.0403 151.166 44.7661 151.469 47.4541C151.545 48.2491 152.113 48.6655 152.908 48.552C155.028 48.2491 157.186 47.9084 159.306 47.6055C159.76 47.5298 160.177 46.9619 160.139 46.5076C159.988 43.4411 159.874 40.3745 159.722 37.2702C160.101 37.2702 160.593 37.5352 160.972 37.573C161.805 37.6487 162.751 37.5352 163.357 36.8916C164.682 35.4908 163.016 32.8786 162.41 31.4021Z" fill="#EF86B0"/>
<path d="M81.6966 51.9216C80.9773 51.9595 80.3337 52.2245 79.7658 52.6031C79.6522 52.5274 79.5386 52.4138 79.5008 52.2245C79.5386 51.9973 79.5386 51.7702 79.5386 51.5431C79.6522 51.2023 79.6144 50.8995 79.4629 50.6723C79.4251 50.5209 79.3872 50.3316 79.3494 50.1801C78.9329 48.7794 76.7371 49.3851 77.1536 50.7859C77.1914 50.9373 77.2293 51.1266 77.2671 51.278C77.1914 51.5809 77.1536 51.9216 77.1914 52.1867C77.0778 52.6031 76.8507 52.9817 76.5478 53.2845C76.0557 53.436 75.6014 53.6631 75.1849 54.1174C74.4656 54.9124 75.1471 56.4268 76.2828 56.0103C76.6614 55.8589 77.04 55.6696 77.3807 55.4803C77.7214 55.4425 78.1 55.5939 78.2893 55.8968C78.3272 56.1239 78.365 56.3132 78.4408 56.5404C78.8193 57.714 80.7123 57.5625 80.6744 56.2375C80.6744 56.0103 80.6365 55.7832 80.5608 55.556C80.5608 55.3289 80.5987 55.1396 80.6744 54.9124C81.3558 54.7989 81.9994 54.4581 82.5295 53.7767C83.0216 53.171 82.7945 51.8459 81.6966 51.9216Z" fill="#F7D06F"/>
<path d="M135.758 43.8197C135.266 43.9711 134.812 44.1983 134.395 44.4633C133.903 44.5012 133.487 44.274 133.184 43.8576C133.184 43.3275 133.108 42.7975 132.957 42.2675C132.957 42.2297 132.957 42.2297 132.957 42.1918C133.146 41.6239 132.919 41.2075 132.54 40.9803C132.502 40.9046 132.464 40.791 132.427 40.7153C131.897 39.3524 129.701 39.9582 130.231 41.3211C130.344 41.5861 130.458 41.8889 130.571 42.1918C130.382 42.9868 130.496 43.7061 130.761 44.3497C130.723 44.4254 130.723 44.4633 130.685 44.5012C130.041 44.4633 129.36 44.5769 128.716 44.8419C127.846 45.2205 127.543 46.3562 128.451 46.9241C129.398 47.492 130.458 47.4541 131.329 46.962C132.01 47.1891 132.54 47.6813 132.805 48.4384C133.297 49.8392 135.228 49.2713 135.001 47.8327C134.887 47.227 135.152 46.6969 135.569 46.3184C135.985 46.1669 136.402 45.9398 136.78 45.6369C137.765 44.9933 136.78 43.5547 135.758 43.8197Z" fill="#F7D06F"/>
<path d="M163.508 66.3459C162.978 66.5352 162.448 66.8002 161.88 66.7623C161.767 66.7623 161.237 66.6487 160.972 66.4594C160.972 66.308 160.934 66.1566 160.896 66.043C161.502 65.2858 161.01 64.3394 160.328 64.1122C159.685 63.2415 157.981 63.8472 158.322 65.0965C158.397 65.3994 158.511 65.8537 158.625 66.3459C158.625 66.4973 158.662 66.6487 158.7 66.8002C158.738 67.2545 158.738 67.7088 158.663 68.0874C157.905 68.2766 157.186 68.6931 156.618 69.3367C156.012 70.056 156.391 71.2675 157.413 71.2675C158.397 71.2675 159.268 70.8889 159.912 70.2074C160.48 70.2453 161.01 70.5103 161.313 71.0403C162.032 72.1761 163.584 71.381 163.395 70.1696C163.281 69.4124 163.698 68.7688 164.341 68.3902C165.477 67.8223 164.72 65.8537 163.508 66.3459Z" fill="#F7D06F"/>
<path d="M87.224 83.8742C86.7697 83.647 86.3533 83.4956 85.8611 83.4577C85.6718 83.4199 83.8925 83.3442 83.8925 83.382C84.3847 82.5113 83.6653 81.7162 82.9082 81.6784C82.151 80.5426 80.2959 81.6405 81.0153 82.8899C81.4696 83.6849 81.3181 84.7071 80.7881 85.4642C79.9552 85.5778 79.1223 85.9942 78.4409 86.7514C77.873 87.395 78.1759 88.7958 79.2359 88.6822C80.1445 88.6065 80.9774 88.2279 81.621 87.7357C81.886 87.7736 82.1132 87.925 82.3403 88.1143C82.416 88.6822 82.6053 89.2879 82.946 89.8179C83.5139 90.7644 85.104 90.3858 85.0661 89.2501C85.0282 88.5686 84.8768 87.9629 84.6118 87.4707C84.6875 86.5621 85.5583 85.8807 86.7319 85.9942C87.7541 86.07 88.2083 84.3285 87.224 83.8742Z" fill="#F7D06F"/>
<path d="M102.784 31.9699C102.14 32.3484 101.459 32.1592 101.194 31.667C101.421 30.9477 101.459 30.1527 101.345 29.3198C101.118 27.9947 99.2251 28.4112 99.1493 29.6226C99.0358 29.7362 98.9601 29.8877 98.9222 30.0769C98.8086 30.607 98.7708 31.0991 98.8465 31.5534C98.6193 31.8941 98.3165 32.1592 97.9757 32.3484C97.5972 32.4242 97.2186 32.5756 96.8778 32.7649C95.7042 33.4085 96.5371 35.0742 97.7486 34.8471C98.1272 34.7714 98.4679 34.6578 98.7708 34.5064C99.6794 34.4685 100.626 35.0743 100.853 35.945C100.853 36.1721 100.891 36.3614 100.929 36.5886C101.194 37.8379 103.238 37.5729 103.162 36.2857C103.162 36.0586 103.124 35.8693 103.087 35.6421C103.049 34.9228 103.389 34.2792 103.995 33.8628C105.169 33.1435 104.071 31.2506 102.784 31.9699Z" fill="#F7D06F"/>
<path d="M159.004 86.827C158.398 86.8648 157.868 87.3191 157.868 87.9627V88.3413C157.868 88.947 158.398 89.5149 159.004 89.4771C159.609 89.4392 160.139 88.9849 160.139 88.3413V87.9627C160.139 87.357 159.609 86.7891 159.004 86.827Z" fill="white"/>
<path d="M165.818 53.5119H165.439C164.833 53.5119 164.266 54.0419 164.303 54.6477C164.341 55.2534 164.796 55.7834 165.439 55.7834H165.818C166.423 55.7834 166.991 55.2534 166.954 54.6477C166.916 54.0041 166.423 53.5119 165.818 53.5119Z" fill="white"/>
<path d="M144.882 60.5909C143.405 60.5909 143.405 62.8624 144.882 62.8624C146.321 62.8624 146.321 60.5909 144.882 60.5909Z" fill="white"/>
<path d="M123.038 25.1181C121.561 25.1181 121.561 27.3896 123.038 27.3896C124.477 27.3896 124.477 25.1181 123.038 25.1181Z" fill="white"/>
<path d="M119.29 36.3998C118.836 35.9834 118.117 35.9455 117.7 36.3998C117.587 36.5134 117.435 36.6648 117.322 36.7784C116.905 37.1948 116.867 37.952 117.322 38.3684C117.776 38.7849 118.495 38.8227 118.912 38.3684C119.025 38.2549 119.177 38.1034 119.29 37.9899C119.707 37.6113 119.745 36.8162 119.29 36.3998Z" fill="white"/>
<path d="M78.8191 37.5734C77.3426 37.5734 77.3426 39.8449 78.8191 39.8449C80.2956 39.8449 80.2956 37.5734 78.8191 37.5734Z" fill="white"/>
<path d="M88.2086 46.3185C87.6028 46.3564 87.0728 46.8107 87.0728 47.4543V47.8328C87.0728 48.4386 87.6028 49.0065 88.2086 48.9686C88.8143 48.9307 89.3443 48.4764 89.3443 47.8328V47.4543C89.3443 46.8485 88.8143 46.2806 88.2086 46.3185Z" fill="white"/>
<path d="M63.6002 58.0549H63.2216C62.6159 58.0549 62.048 58.5849 62.0858 59.1907C62.1237 59.7964 62.578 60.3264 63.2216 60.3264H63.6002C64.2059 60.3264 64.7738 59.7964 64.7359 59.1907C64.6981 58.5471 64.2059 58.0549 63.6002 58.0549Z" fill="white"/>
<path d="M82.9458 69.715C81.4693 69.715 81.4693 71.9865 82.9458 71.9865C84.4223 71.9865 84.4223 69.715 82.9458 69.715Z" fill="white"/>
<path d="M65.1146 86.0701C63.6381 86.0701 63.6381 88.3416 65.1146 88.3416C66.5532 88.3416 66.5532 86.0701 65.1146 86.0701Z" fill="white"/>
<path d="M76.851 99.6988C76.2453 99.7367 75.7153 100.191 75.7153 100.835V101.213C75.7153 101.819 76.2453 102.387 76.851 102.349C77.4568 102.311 77.9868 101.857 77.9868 101.213V100.835C77.9868 100.229 77.4568 99.661 76.851 99.6988Z" fill="white"/>
<path d="M111.491 109.655C110.356 107.611 109.031 105.718 107.554 103.901C107.441 103.749 107.289 103.636 107.176 103.598C107.327 102.803 106.759 101.894 105.851 102.273C103.768 103.068 101.724 103.863 99.6417 104.658C100.21 101.478 100.891 98.3356 101.724 95.1933C101.648 95.6098 101.648 96.0641 101.724 96.4805C101.989 98.2598 103.276 99.6227 104.525 100.796C105.586 101.819 107.176 100.191 106.116 99.2063C104.677 97.8055 103.541 96.5562 104.26 94.474C104.601 93.414 105.548 92.1646 105.321 91.0289C105.131 90.0446 104.071 89.3631 103.39 88.7195C102.443 87.8488 102.368 87.2052 102.67 85.918C102.86 85.0851 103.276 84.2901 103.541 83.4572C104.033 82.0943 101.838 81.4886 101.345 82.8515C100.74 84.5173 99.6039 86.5616 100.247 88.341C100.475 88.9845 100.929 89.5146 101.383 89.9689C101.724 90.3096 102.86 90.9532 102.973 91.4453C103.087 92.0132 102.368 93.1868 101.989 93.944C102.065 93.7168 102.103 93.4897 102.178 93.2625C102.557 91.8618 100.399 91.256 99.9825 92.6568C98.8089 96.8212 97.8624 101.061 97.1431 105.339C97.1431 105.415 97.1431 105.491 97.1431 105.529C97.0674 105.567 96.9917 105.604 96.9159 105.604C95.553 106.134 96.1588 108.33 97.5217 107.8L105.661 104.658C105.661 104.923 105.737 105.188 105.926 105.415C107.251 107.081 108.463 108.86 109.485 110.715C110.242 112.078 112.211 110.942 111.491 109.655Z" fill="#57455D"/>
<path d="M143.671 79.1041C141.324 79.8613 138.939 80.5427 136.554 81.1106C135.115 81.4513 135.721 83.6471 137.159 83.3064C139.545 82.7385 141.93 82.0571 144.277 81.2999C145.678 80.8456 145.072 78.6498 143.671 79.1041Z" fill="#57455D"/>
<path d="M133.601 108.596C132.768 103.901 131.746 99.2447 130.648 94.6259C130.307 93.2252 128.111 93.7931 128.452 95.2317C129.588 99.8504 130.572 104.507 131.405 109.201C131.67 110.64 133.866 110.034 133.601 108.596Z" fill="#57455D"/>
<path d="M127.316 94.0959C127.127 92.5816 126.105 91.673 124.855 90.9915C125.915 89.5529 127.165 87.7736 126.635 86.1456C126.332 85.1992 125.385 84.4799 124.704 83.7984C123.72 82.8141 122.735 81.8298 121.713 80.8455C120.691 79.8233 119.063 81.4134 120.123 82.4355C121.297 83.6091 122.925 84.7827 123.833 86.1456C124.893 87.6978 123.038 89.4772 122.167 90.8401C121.713 91.5215 122.205 92.2408 122.849 92.5059C124.817 93.3009 125.423 94.5502 124.439 96.5188C123.871 97.6924 123.152 98.7903 122.508 99.9261C121.789 101.213 123.757 102.349 124.477 101.062C125.65 99.0932 127.657 96.5945 127.316 94.0959Z" fill="#57455D"/>
<path d="M114.861 97.0865C113.536 96.973 112.21 96.9351 110.885 97.0108C109.447 97.0865 109.409 99.358 110.885 99.2823C112.21 99.2066 113.536 99.2445 114.861 99.358C116.337 99.4716 116.337 97.2001 114.861 97.0865Z" fill="#57455D"/>
<path d="M113.725 83.6467C113.725 83.6088 113.725 83.571 113.725 83.571C113.725 83.4574 113.725 83.306 113.762 83.1924C113.838 82.5867 113.195 82.0188 112.627 82.0567C111.945 82.0945 111.567 82.5488 111.491 83.1924C111.453 83.4196 111.453 83.6846 111.491 83.9117C111.491 83.9496 111.491 83.9874 111.491 84.0253C111.491 84.0631 111.491 84.0631 111.491 84.101C111.491 84.1389 111.491 84.1389 111.491 84.1767C111.529 84.4417 111.605 84.7067 111.68 84.9339C111.87 85.4639 112.324 85.8425 112.93 85.7289C113.535 85.6532 113.838 85.1989 113.914 84.631C113.952 84.2903 113.876 83.9496 113.725 83.6467Z" fill="#57455D"/>
<path d="M138.522 30.5693C137.916 30.6072 137.386 31.0615 137.386 31.705V32.0836C137.386 32.6894 137.916 33.2572 138.522 33.2194C139.127 33.1815 139.657 32.7272 139.657 32.0836V31.705C139.657 31.0993 139.127 30.5314 138.522 30.5693Z" fill="white"/>
<path d="M52.7352 63.9608C45.8072 59.0013 35.0932 60.3263 30.1338 67.368C25.5529 73.8796 28.3166 81.9056 34.0711 86.335C39.2955 91.7488 48.1922 91.5974 53.6439 86.2593C59.5876 80.467 59.8148 69.0338 52.7352 63.9608Z" fill="#F7D06F"/>
<path d="M59.6632 72.1755C58.376 71.4562 57.2402 73.4248 58.5274 74.1441C59.1331 74.4849 59.701 74.6363 60.3446 74.7877C60.4582 74.8256 61.1775 74.9392 61.1775 75.0527C61.2154 75.242 60.0796 75.8856 59.9282 75.9613C58.1867 77.0971 56.2559 77.9678 54.3251 78.6493C50.4257 80.0122 46.337 80.6558 42.2862 81.1479C37.8567 81.678 33.4273 82.0944 28.9979 82.3973C27.8243 82.473 26.6885 82.5487 25.5149 82.5487C24.9092 82.5487 22.4105 82.6623 22.1077 82.1323C21.2369 80.5043 26.9157 79.0657 27.8621 78.99C29.3007 78.8764 29.3386 76.6049 27.8621 76.7185C25.1363 76.9078 22.4105 77.93 20.5176 79.9365C19.1926 81.3372 19.1547 83.268 21.0476 84.1388C23.9249 85.4259 27.7864 84.7445 30.7772 84.5173C34.1466 84.2523 37.516 83.9495 40.8854 83.5709C46.7156 82.8894 52.6594 82.0565 58.0353 79.5579C59.7767 78.725 63.0326 77.4757 63.3733 75.3177C63.7897 72.8948 61.1396 73.0084 59.6632 72.1755Z" fill="#EF86B0"/>
<path d="M35.6233 68.2006C33.7683 69.1849 31.6861 69.5635 29.6417 69.2228C28.2031 68.9956 27.5974 71.1914 29.036 71.4186C31.7618 71.835 34.3361 71.4564 36.7969 70.1693C38.0463 69.4878 36.9105 67.5192 35.6233 68.2006Z" fill="#57455D"/>
<path d="M56.6723 71.7969C54.4766 72.3269 52.2808 72.8948 50.085 73.4248C48.6842 73.7655 49.2521 75.9613 50.6907 75.6206C52.8865 75.0906 55.0823 74.5227 57.2781 73.9927C58.6788 73.652 58.111 71.4562 56.6723 71.7969Z" fill="#57455D"/>
<path d="M43.8006 85.7291C42.0212 86.3348 40.2419 86.7134 38.3489 86.827C36.9103 86.9027 36.8725 89.1742 38.3489 89.0985C40.4312 88.9849 42.4376 88.6064 44.4063 87.9249C45.7692 87.4327 45.1635 85.237 43.8006 85.7291Z" fill="#57455D"/>
<path d="M119.82 122.262C119.82 120.786 117.548 120.786 117.548 122.262C117.51 126.465 117.7 130.629 118.116 134.831C118.268 136.27 120.539 136.27 120.388 134.831C119.971 130.667 119.782 126.465 119.82 122.262Z" fill="#57455D"/>
<path d="M105.093 112.382C103.541 113.517 101.951 114.653 100.399 115.789C99.2252 116.622 100.361 118.59 101.535 117.757C103.087 116.622 104.677 115.486 106.229 114.35C107.403 113.517 106.267 111.549 105.093 112.382Z" fill="#57455D"/>
<path d="M209.885 76.6433C209.279 72.7818 206.137 70.056 202.54 69.3745C202.427 69.2988 202.351 69.261 202.2 69.2231C196.672 67.5573 191.486 73.8797 191.069 78.9148C190.577 84.6693 196.672 87.8873 201.745 87.3194C207.008 86.6758 210.718 81.9435 209.885 76.6433Z" fill="#74A2D6"/>
<path d="M137.159 69.412C136.212 68.9956 135.228 68.6927 134.244 68.5413C133.6 67.8977 132.237 68.1248 132.275 69.2606C132.351 71.6835 135.72 73.1221 137.424 71.1914C137.84 70.6992 137.878 69.7149 137.159 69.412Z" fill="#EF86B0"/>
<path d="M199.739 78.8013C197.392 79.7856 194.931 80.4292 192.395 80.6942C190.956 80.8456 190.956 83.1171 192.395 82.9657C195.348 82.6628 198.149 81.9435 200.875 80.7699C202.2 80.202 201.064 78.2334 199.739 78.8013Z" fill="#57455D"/>
<path d="M205.342 71.9487C203.184 72.8194 201.064 73.728 198.906 74.5987C197.581 75.1287 198.149 77.3624 199.512 76.7945C201.67 75.9238 203.79 75.0152 205.948 74.1444C207.273 73.6144 206.705 71.4186 205.342 71.9487Z" fill="#57455D"/>
<path d="M205.986 81.3751C205.569 81.7537 205.001 82.0566 204.471 82.1323C203.866 82.208 203.336 82.5866 203.336 83.268C203.336 83.8359 203.866 84.4795 204.471 84.4038C205.645 84.2524 206.705 83.8359 207.576 83.003C208.674 81.9809 207.046 80.3529 205.986 81.3751Z" fill="#57455D"/>
<path d="M196.938 45.0314C196.673 44.9935 196.37 44.9935 196.105 44.9935C195.991 44.6528 195.916 44.3121 195.802 43.9335C195.423 42.5327 193.228 43.1385 193.606 44.5392C193.682 44.7664 193.72 44.9935 193.795 45.2207C193.493 45.2964 193.152 45.3721 192.849 45.4478C191.448 45.8643 192.054 48.0601 193.455 47.6436C193.796 47.5301 194.098 47.4543 194.439 47.4165C194.553 47.8329 194.666 48.2494 194.818 48.7037C195.196 50.1044 197.392 49.4987 197.013 48.0979C196.938 47.8329 196.862 47.5679 196.786 47.3029C196.862 47.3029 196.9 47.3029 196.976 47.3029C198.376 47.4165 198.376 45.145 196.938 45.0314Z" fill="#F7D06F"/>
<path d="M164.455 110.943C164.379 110.981 164.304 110.981 164.228 111.019C163.887 110.299 163.395 109.618 162.827 109.05C161.805 107.99 160.177 109.618 161.237 110.64C161.578 110.981 161.843 111.359 162.07 111.738L161.048 112.079C159.685 112.533 160.253 114.729 161.654 114.275C161.994 114.161 162.373 114.047 162.714 113.896C162.714 114.01 162.751 114.161 162.751 114.275C162.751 115.751 165.023 115.751 165.023 114.275C165.023 113.896 164.985 113.517 164.909 113.139C164.947 113.139 164.985 113.101 165.061 113.101C166.424 112.647 165.818 110.451 164.455 110.943Z" fill="#F7D06F"/>
<path d="M195.461 98.752C194.666 98.9413 193.909 99.1684 193.114 99.3577C192.963 98.8277 192.773 98.2977 192.622 97.7677C192.206 96.3669 190.01 96.9726 190.426 98.3734L190.918 99.9635C190.426 100.115 189.896 100.228 189.404 100.38C188.003 100.758 188.609 102.954 190.01 102.576C190.54 102.424 191.07 102.311 191.6 102.159C191.713 102.538 191.827 102.954 191.978 103.333C192.395 104.734 194.591 104.128 194.174 102.727L193.833 101.591C194.591 101.402 195.348 101.175 196.105 100.986C197.468 100.569 196.862 98.3734 195.461 98.752Z" fill="#F7D06F"/>
<path d="M81.4698 120.37H79.9933C79.8419 120.029 79.7283 119.65 79.5768 119.31C79.3497 118.742 78.8197 118.325 78.1761 118.515C77.6461 118.666 77.1539 119.347 77.3811 119.915L77.5703 120.37H76.2075C74.731 120.37 74.731 122.641 76.2075 122.641H78.479L78.8954 123.701C79.1225 124.269 79.6526 124.686 80.2962 124.496C80.8262 124.345 81.3183 123.663 81.0912 123.095C81.0155 122.944 80.9776 122.793 80.9019 122.641H81.4698C82.9084 122.641 82.9084 120.37 81.4698 120.37Z" fill="#F7D06F"/>
<path d="M33.4273 98.3738C33.0487 98.4496 32.7079 98.5253 32.3294 98.601C32.1779 98.0331 31.9886 97.5031 31.7993 96.9731C31.3072 95.6102 29.1114 96.2159 29.6036 97.5788C29.7929 98.071 29.9443 98.601 30.1336 99.0931C29.9821 99.131 29.8307 99.1689 29.6793 99.2067C28.2407 99.5096 28.8464 101.705 30.285 101.403C30.4364 101.365 30.5879 101.327 30.7015 101.327C30.7772 101.705 30.8529 102.084 30.9286 102.5C31.1936 103.939 33.3515 103.333 33.1244 101.895C33.0487 101.554 33.0108 101.213 32.9351 100.835C33.3137 100.759 33.6923 100.683 34.0708 100.57C35.4716 100.267 34.8659 98.071 33.4273 98.3738Z" fill="#F7D06F"/>
<path d="M51.7124 41.2457C51.4096 41.3593 51.0688 41.4729 50.766 41.5864C50.6902 41.3593 50.6524 41.17 50.5767 40.9428C50.1602 39.5421 47.9644 40.1478 48.3809 41.5486C48.4566 41.8136 48.5323 42.0786 48.608 42.3436C48.1537 42.495 47.6616 42.6843 47.2073 42.8358C45.8444 43.3279 46.4122 45.5237 47.813 45.0316L49.2895 44.5015C49.3652 44.7665 49.4409 45.0316 49.5545 45.3344C49.9709 46.7352 52.1667 46.1294 51.7503 44.7287C51.6367 44.388 51.561 44.0851 51.4474 43.7444L52.356 43.4415C53.6811 42.9493 53.0753 40.7536 51.7124 41.2457Z" fill="#F7D06F"/>
<path d="M83.3621 13.23H81.6206C81.5449 12.7757 81.4692 12.2835 81.3177 11.8292C80.9392 10.4284 78.7434 11.0342 79.122 12.4349C79.1977 12.6999 79.2355 12.9649 79.3112 13.23H78.8191C77.3426 13.23 77.3426 15.5015 78.8191 15.5015H79.5005C79.5005 15.9179 79.4627 16.3343 79.4248 16.7508C79.2355 18.1894 81.4313 18.7951 81.6206 17.3565C81.6963 16.7508 81.7342 16.1072 81.772 15.5015H83.3621C84.8007 15.5015 84.8007 13.23 83.3621 13.23Z" fill="#F7D06F"/>
<path d="M133.714 13.2299C132.919 13.2299 132.124 13.2299 131.367 13.3057C131.253 12.6621 131.102 12.0563 130.988 11.4127C130.686 9.97412 128.528 10.5799 128.793 12.0185L129.133 13.6464C128.679 13.76 128.225 13.8735 127.733 13.9871C126.332 14.4036 126.938 16.5993 128.338 16.1829C128.755 16.0693 129.171 15.9557 129.588 15.88C129.626 16.1072 129.663 16.2965 129.701 16.5236C130.004 17.9622 132.162 17.3565 131.897 15.9179C131.859 15.8043 131.859 15.6529 131.821 15.5393C132.465 15.5014 133.071 15.4636 133.714 15.4636C135.153 15.5014 135.153 13.2299 133.714 13.2299Z" fill="#F7D06F"/>
<path d="M48.533 100.683H48.1544C47.5487 100.683 46.9808 101.213 47.0186 101.819C47.0565 102.424 47.5108 102.954 48.1544 102.954H48.533C49.1387 102.954 49.7066 102.424 49.6687 101.819C49.6309 101.213 49.1387 100.683 48.533 100.683Z" fill="white"/>
<path d="M56.8615 114.312C56.2558 114.35 55.7258 114.804 55.7258 115.448V115.827C55.7258 116.432 56.2558 117 56.8615 116.962C57.4672 116.925 57.9973 116.47 57.9973 115.827V115.448C57.9973 114.842 57.4672 114.274 56.8615 114.312Z" fill="white"/>
<path d="M14.8384 87.4324C13.362 87.4324 13.362 89.7039 14.8384 89.7039C16.2771 89.7039 16.2771 87.4324 14.8384 87.4324Z" fill="white"/>
<path d="M12.0372 67.5568C11.5071 67.2917 10.75 67.4053 10.485 67.9732C10.3714 68.2382 10.22 68.4654 10.1064 68.7304C9.84137 69.2604 9.95495 69.9797 10.5228 70.2826C11.0528 70.5476 11.81 70.434 12.075 69.8661C12.1886 69.6011 12.34 69.374 12.4536 69.109C12.7186 68.5789 12.605 67.8218 12.0372 67.5568Z" fill="white"/>
<path d="M26.5748 47.6815C25.969 47.7194 25.439 48.1737 25.439 48.8173V49.1959C25.439 49.8016 25.969 50.3695 26.5748 50.3316C27.1805 50.2938 27.7105 49.8395 27.7105 49.1959V48.8173C27.7105 48.2116 27.1805 47.6437 26.5748 47.6815Z" fill="white"/>
<path d="M52.3182 23.0732C50.8418 23.0732 50.8418 25.3447 52.3182 25.3447C53.7569 25.3447 53.7569 23.0732 52.3182 23.0732Z" fill="white"/>
<path d="M92.8267 10.2014C91.3502 10.2014 91.3502 12.4729 92.8267 12.4729C94.2653 12.4729 94.2653 10.2014 92.8267 10.2014Z" fill="white"/>
<path d="M120.123 10.9207C119.669 10.5042 118.949 10.4664 118.533 10.9207C118.419 11.0343 118.268 11.1857 118.154 11.2993C117.738 11.7157 117.7 12.4729 118.154 12.8893C118.608 13.3057 119.328 13.3436 119.744 12.8893L120.123 12.5107C120.539 12.0943 120.577 11.3371 120.123 10.9207Z" fill="white"/>
<path d="M148.478 14.7443C147.002 14.7443 147.002 17.0158 148.478 17.0158C149.917 17.0158 149.917 14.7443 148.478 14.7443Z" fill="white"/>
<path d="M179.144 27.6162C177.667 27.6162 177.667 29.8877 179.144 29.8877C180.582 29.8877 180.582 27.6162 179.144 27.6162Z" fill="white"/>
<path d="M188.609 59.0386H188.23C187.625 59.0386 187.057 59.5687 187.095 60.1744C187.132 60.7801 187.587 61.3101 188.23 61.3101H188.609C189.215 61.3101 189.783 60.7801 189.745 60.1744C189.707 59.5687 189.215 59.0386 188.609 59.0386Z" fill="white"/>
<path d="M212.838 57.9029C211.361 57.9029 211.361 60.1744 212.838 60.1744C214.276 60.1744 214.276 57.9029 212.838 57.9029Z" fill="white"/>
<path d="M211.702 93.8683C210.225 93.8683 210.225 96.1398 211.702 96.1398C213.141 96.1398 213.141 93.8683 211.702 93.8683Z" fill="white"/>
<path d="M176.153 87.7731C176.04 87.6596 175.888 87.5081 175.775 87.3946C175.358 86.9781 174.601 86.9403 174.185 87.3946C173.768 87.8488 173.73 88.5681 174.185 88.9846L174.563 89.3632C174.98 89.7796 175.737 89.8175 176.153 89.3632C176.57 88.9089 176.608 88.2274 176.153 87.7731Z" fill="white"/>
<path d="M179.182 111.624C179.068 111.51 178.917 111.359 178.803 111.245C178.387 110.829 177.63 110.791 177.213 111.245C176.797 111.7 176.759 112.419 177.213 112.835L177.592 113.214C178.008 113.63 178.765 113.668 179.182 113.214C179.598 112.76 179.636 112.078 179.182 111.624Z" fill="white"/>
<path d="M144.693 115.826C143.216 115.826 143.216 118.098 144.693 118.098C146.131 118.098 146.131 115.826 144.693 115.826Z" fill="white"/>
</svg>
