<svg width="229" height="160" viewBox="0 0 229 160" fill="none" xmlns="http://www.w3.org/2000/svg">
<path d="M227.609 55.9421C224.605 38.5386 214.785 22.6373 197.968 13.1478C182.03 4.13457 162.648 0.946974 143.852 0.214194C102.377 -1.43456 56.4681 6.11307 26.0944 34.1053C13.0875 46.0862 3.41482 61.4013 0.740174 77.8522C-2.44742 97.674 5.06357 116.873 15.5423 133.8C18.2903 138.233 21.258 142.557 24.3723 146.843C25.0685 147.796 26.3142 147.613 27.0103 146.917C38.3318 149.628 50.0563 150.434 61.7808 150.801C73.9083 151.167 86.0358 151.313 98.1999 151.387C123.371 151.533 148.688 150.874 173.603 146.99C183.422 145.451 194.854 144.059 203.024 138.417C206.981 135.705 209.583 132.005 211.634 128.011C214.052 123.248 216.178 118.338 218.229 113.429C225.814 94.9993 230.98 75.3242 227.609 55.9421Z" fill="#112A62"/>
<path d="M100.692 83.1283C100.582 82.8718 100.362 82.6886 99.9957 82.5787C95.0128 81.4062 94.1701 75.2509 94.4632 70.9641C94.7563 66.4575 96.5883 62.1708 99.5194 58.7267C100.216 57.884 99.4828 56.7848 98.6401 56.8215C98.2737 56.6016 97.7607 56.6016 97.3577 56.968C93.071 61.2182 90.3963 67.1537 90.5062 73.2357C90.6528 78.9881 94.0236 84.7037 100.179 85.1801C101.461 85.29 101.608 83.6412 100.692 83.1283Z" fill="#57455D"/>
<path d="M115.2 92.0315C114.064 89.3202 112.525 86.7921 111.39 84.0808C108.861 78.0354 107.139 71.6602 106.223 65.1385C106.187 64.8087 105.82 64.6255 105.527 64.6255C105.161 64.5889 104.831 64.6255 104.501 64.6622C104.392 64.3324 104.098 64.076 103.659 64.2225C101.534 64.882 99.262 65.6881 97.8331 67.52C96.3676 69.4619 96.5508 71.9167 97.1003 74.1517C98.456 80.0139 100.471 85.8029 102.669 91.4453C103.182 92.7276 103.695 94.0466 104.245 95.329C104.648 96.2816 104.978 97.7472 106.004 98.2235C106.956 98.6998 108.312 98.2968 109.301 98.1502C110.73 97.9304 112.269 97.7105 113.588 97.161C115.86 96.245 116.079 94.1199 115.2 92.0315Z" fill="#EF86B0"/>
<path d="M216.251 133.8C213.174 132.371 209.803 131.199 206.322 130.173C199.397 128.121 191.886 126.839 184.229 126.069C168.144 124.494 151.327 125.226 134.839 126.472C125.313 127.205 115.751 128.158 106.261 129.403C88.8209 130.759 71.4906 133.507 54.71 137.61C45.5136 139.845 36.537 142.483 27.7803 145.488C24.0431 146.77 20.0128 148.016 16.5688 149.665C14.2971 150.727 12.4652 152.339 13.0881 154.171C13.7109 155.93 16.4222 156.773 18.9137 157.212C23.5302 157.982 28.5131 158.238 33.2762 158.568C42.6191 159.264 52.072 159.704 61.5615 159.887C80.7237 160.253 100.069 159.704 119.341 158.605C138.247 157.505 157.263 156.04 175.912 152.889C185.108 151.313 194.195 149.372 202.988 146.843C208.301 145.305 218.816 143.106 220.062 138.636C220.795 136.401 218.633 134.899 216.251 133.8Z" fill="#C8D8F9"/>
<path d="M162.867 36.3769C160.962 34.435 158.324 33.7022 155.649 33.9587C155.356 33.9953 154.917 34.032 154.477 34.1053C150.483 33.7755 146.49 36.3036 145.281 40.224C143.852 44.8771 146.343 50.0432 150.776 51.9485C155.173 53.8171 160.522 52.5713 163.453 48.7242C166.311 45.0237 166.238 39.7843 162.867 36.3769Z" fill="#74A2D6"/>
<path d="M170.781 43.265C170.049 41.5063 167.301 40.7736 165.615 40.2972C164.186 39.8576 163.82 42.1658 165.212 42.5689C166.018 42.7887 167.044 43.0818 167.74 43.5948C167.887 43.7413 168.07 43.778 168.253 43.7413C167.887 43.778 167.484 43.8146 167.118 43.8512C165.469 44.0344 163.857 44.2176 162.208 44.3642C159.057 44.6939 155.906 45.0237 152.755 45.3534C149.604 45.6832 146.453 45.9763 143.302 46.306C142.716 46.3793 141.91 46.5625 141.324 46.4892C140.225 46.3427 140.151 45.6465 141.141 45.2069C142.35 44.6939 143.559 44.6573 144.731 43.9978C146.014 43.265 144.658 41.3964 143.376 42.1292C141.617 43.1184 139.492 42.7521 138.283 44.6573C137.513 45.8664 137.77 47.4052 138.942 48.2113C140.408 49.2372 142.643 48.6509 144.255 48.5044C147.149 48.2113 150.044 47.9182 152.975 47.625C155.76 47.3319 158.507 47.0388 161.292 46.7457C163.783 46.4892 166.605 46.5259 169.023 45.8664C170.342 45.6099 171.368 44.6206 170.781 43.265Z" fill="#EF86B0"/>
<path d="M76.7655 141.897C75.703 142.117 74.6771 142.117 73.6145 141.934C72.149 141.641 71.7826 143.949 73.2115 144.206C74.4572 144.425 75.7396 144.462 76.9853 144.206C77.6082 144.096 78.0845 143.583 78.0112 142.923C77.9746 142.374 77.3884 141.787 76.7655 141.897Z" fill="#57455D"/>
<path d="M150.191 135.632C149.311 134.02 146.307 134.24 144.841 134.679C143.156 135.156 141.8 136.438 141.544 138.233C141.507 138.6 141.581 138.893 141.764 139.076C141.837 139.332 142.057 139.589 142.387 139.735C144.145 140.468 146.124 140.468 147.846 139.662C149.238 139.003 151.143 137.354 150.191 135.632ZM145.794 137.94C145.208 138.05 144.622 138.013 144.035 137.904C144.292 137.501 144.658 137.207 145.171 136.988C145.721 136.768 146.417 136.731 147.003 136.768C147.37 136.768 147.992 137.061 148.066 136.621C147.992 137.317 146.38 137.83 145.794 137.94Z" fill="#57455D"/>
<path d="M137.184 127.352C136.048 127.242 134.912 127.388 133.887 127.938C133.337 128.231 132.971 128.817 133.227 129.44C133.447 129.99 134.18 130.393 134.729 130.099C135.389 129.77 136.085 129.586 136.818 129.66C137.44 129.733 138.027 129.367 138.137 128.707C138.21 128.121 137.807 127.425 137.184 127.352Z" fill="#57455D"/>
<path d="M165.945 133.177C165.432 132.737 164.773 132.884 164.333 133.36C163.93 133.8 163.307 133.947 162.721 133.837C161.255 133.617 160.852 135.888 162.318 136.108C163.747 136.328 165.103 135.815 166.092 134.789C166.568 134.386 166.385 133.544 165.945 133.177Z" fill="#57455D"/>
<path d="M86.1088 134.533C85.2295 134.899 84.2768 135.082 83.2876 135.046C82.6647 135.009 82.0785 135.339 81.9686 135.998C81.8587 136.548 82.2983 137.317 82.9212 137.317C84.3135 137.391 85.6325 137.207 86.9515 136.694C88.3438 136.145 87.5011 133.983 86.1088 134.533Z" fill="#57455D"/>
<path d="M136.011 103.06C135.938 103.133 135.864 103.206 135.791 103.28C135.608 103.463 135.095 102.987 135.132 102.877C135.242 101.851 134.179 101.338 133.446 101.631C132.97 101.777 132.64 102.181 132.75 102.803C132.86 103.536 132.604 104.232 131.907 104.525C130.552 105.112 131.358 107.273 132.75 106.687C133.556 106.357 134.509 106.467 135.095 107.163C135.938 108.153 137.513 107.347 137.11 106.064C136.964 105.661 137.074 105.222 137.403 104.928C137.477 104.855 137.55 104.819 137.623 104.745C138.539 103.793 137.037 102.181 136.011 103.06Z" fill="#F7D06F"/>
<path d="M175.069 101.411C174.959 101.448 174.849 101.448 174.775 101.484C174.189 101.631 173.493 100.971 173.53 100.385C173.603 99.5426 172.87 99.0296 172.211 99.0662C171.515 98.9563 170.709 99.3594 170.818 100.275C170.928 101.191 170.599 102.107 169.793 102.62C169.646 102.694 169.499 102.767 169.39 102.877C168.327 103.573 169.316 105.515 170.489 104.892C170.562 104.855 170.672 104.782 170.745 104.745C171.441 104.269 172.431 104.452 172.944 105.075C173.017 105.295 173.163 105.478 173.31 105.698C174.116 106.651 175.875 105.844 175.325 104.599C175.252 104.452 175.178 104.306 175.105 104.159C175.032 103.976 175.032 103.756 175.252 103.719C175.362 103.719 175.472 103.683 175.545 103.646C176.864 103.316 176.351 101.155 175.069 101.411Z" fill="#F7D06F"/>
<path d="M89.7735 77.4126C90.433 76.7164 89.7369 75.3241 88.7476 75.544C88.1981 75.6539 87.7217 75.9104 87.3187 76.2401C86.9523 76.2401 86.6226 75.947 86.5493 75.544C86.5859 75.2509 86.5859 74.9211 86.5493 74.5914C86.4027 73.1258 84.0945 73.3456 84.241 74.8112C84.2044 74.9944 84.2044 75.1409 84.2044 75.3241C84.0945 75.8004 83.7281 76.1668 83.2152 76.35C81.8229 76.9363 82.6289 78.988 84.0578 78.5117C85.0471 78.1087 86.1096 78.585 86.476 79.6109C87.0989 80.9666 89.1507 80.1971 88.6377 78.7682C88.5644 78.6217 88.5278 78.3652 88.5644 78.182C89.0408 78.0354 89.4438 77.779 89.7735 77.4126Z" fill="#F7D06F"/>
<path d="M67.9727 57.1512C67.5696 57.2245 67.2399 57.371 66.9468 57.5542C66.9101 57.4077 66.8369 57.1878 66.7636 57.0046C66.7269 56.8215 66.6903 56.6383 66.617 56.4917V56.4551C66.5804 56.2719 66.5437 56.1253 66.4705 55.9788C66.3239 55.5757 66.1407 55.1361 65.9209 54.7697C65.2614 53.4507 63.0997 54.2567 63.7592 55.6124C63.8691 55.8688 64.2355 56.6749 64.4187 57.4077C64.4187 57.481 64.4553 57.5542 64.4553 57.6275C64.5286 58.0672 64.5286 58.4702 64.3454 58.7267C63.9424 58.7267 63.5027 58.8 63.063 58.9832C62.0371 59.3862 62.1471 61.0349 63.2829 61.2181C63.7592 61.2914 64.2355 61.2181 64.6751 61.0716C65.1148 61.1449 65.4812 61.4746 65.5911 61.9875C65.8842 63.4165 68.1559 63.2333 67.8994 61.7677C67.8261 61.4746 67.6429 60.6319 67.7162 60.0823C68.3024 59.8991 68.8154 59.4961 69.0718 58.8732C69.4749 58.0672 68.852 56.968 67.9727 57.1512Z" fill="#F7D06F"/>
<path d="M76.4723 102.547C75.996 102.62 75.593 102.767 75.19 102.987C74.3839 103.023 73.5779 102.4 73.4679 101.594C73.358 100.678 72.4054 100.422 71.7459 100.715C71.0498 100.825 70.4635 101.411 70.8299 102.217C71.3062 103.28 71.0864 104.379 70.2804 105.112C70.0972 105.222 69.9506 105.368 69.7674 105.478C69.7674 105.478 69.7674 105.478 69.7308 105.478C69.6575 105.551 69.5842 105.588 69.5109 105.661C68.5583 106.687 70.0239 107.933 71.0864 107.31C71.3429 107.163 71.5627 106.98 71.7826 106.797C72.4054 106.614 73.1382 106.98 73.4313 107.566C73.4679 107.64 73.468 107.676 73.5046 107.75C74.1641 109.105 76.106 108.336 75.6663 106.907C75.6296 106.834 75.6296 106.76 75.593 106.724C75.4098 106.138 75.5564 105.441 76.0327 105.075C76.4723 104.965 76.8754 104.819 77.2784 104.562C78.231 104.012 77.6082 102.4 76.4723 102.547Z" fill="#F7D06F"/>
<path d="M40.7866 81.4062C39.834 81.0032 38.8081 81.1864 38.0387 81.7726C37.7456 81.6261 37.5624 81.2963 37.5624 80.82C37.599 79.9773 36.9029 79.501 36.2434 79.501C35.3274 78.7682 33.8252 79.9773 34.5946 81.1131C35.0343 81.736 35.1808 82.4688 35.0343 83.1283C34.1549 83.6779 33.6786 84.7404 34.0084 85.8396C34.2649 86.7555 35.4373 86.7189 35.9869 86.1327C36.28 85.8396 36.4998 85.5464 36.683 85.2167C36.7197 85.2533 36.793 85.29 36.8296 85.3633C37.0494 85.5831 37.196 85.9128 37.3059 86.206C37.3425 86.3159 37.3792 86.3891 37.4158 86.4991C37.9654 87.8913 40.1271 87.0486 39.5775 85.6564C39.5409 85.5464 39.2844 84.8137 39.2478 84.1908C39.834 84.0809 40.3836 83.8244 40.9332 83.3481C41.6293 82.8352 41.6293 81.7726 40.7866 81.4062Z" fill="#F7D06F"/>
<path d="M89.9192 95.9153C88.4537 96.0619 88.6735 98.3701 90.1391 98.2236C91.6413 98.077 91.3848 95.7688 89.9192 95.9153Z" fill="white"/>
<path d="M95.0487 115.737C94.4258 115.847 93.9495 116.36 94.0228 117.019L94.0594 117.349C94.1327 117.935 94.7189 118.485 95.3418 118.375C95.9647 118.265 96.441 117.752 96.3677 117.093L96.331 116.763C96.2578 116.177 95.6715 115.664 95.0487 115.737Z" fill="white"/>
<path d="M61.0851 126.912C59.6195 127.058 59.8394 129.367 61.3049 129.22C62.7705 129.074 62.5507 126.765 61.0851 126.912Z" fill="white"/>
<path d="M54.4163 92.3613C52.9507 92.5079 53.1706 94.8161 54.6361 94.6696C56.1383 94.523 55.9185 92.2147 54.4163 92.3613Z" fill="white"/>
<path d="M65.8844 82.0658L65.5546 82.1024C64.9684 82.1757 64.4188 82.7619 64.5287 83.3848C64.6387 84.0076 65.1516 84.4839 65.8111 84.4106L66.1409 84.374C66.7271 84.3007 67.2767 83.7145 67.1667 83.0916C67.0568 82.5054 66.5439 82.0291 65.8844 82.0658Z" fill="white"/>
<path d="M53.317 67.9231C51.8514 68.0697 52.0713 70.3779 53.5368 70.2314C55.039 70.0482 54.7825 67.7399 53.317 67.9231Z" fill="white"/>
<path d="M67.6065 45.3535C67.3134 45.4267 67.0203 45.5 66.8371 45.7565C66.6539 45.9763 66.544 46.3061 66.5806 46.5992C66.5806 46.6358 66.6173 46.7091 66.6173 46.7457C66.6173 46.7824 66.6173 46.819 66.6173 46.8557C66.7272 47.5152 67.2401 47.9182 67.8996 47.8815C68.6324 47.8449 69.1087 47.1488 69.0354 46.4526C68.9255 45.8664 68.3027 45.2069 67.6065 45.3535Z" fill="white"/>
<path d="M83.5444 57.6275C82.0789 57.7741 82.2987 60.0823 83.7643 59.9358C85.2665 59.7526 85.0466 57.481 83.5444 57.6275Z" fill="white"/>
<path d="M87.2454 32.8962C86.6226 33.0061 86.1463 33.5191 86.2195 34.1786L86.2562 34.5083C86.3295 35.0945 86.9157 35.6441 87.5385 35.5342C88.1614 35.4609 88.6377 34.9113 88.5644 34.2518L88.5278 33.9221C88.4545 33.3359 87.8683 32.7863 87.2454 32.8962Z" fill="white"/>
<path d="M135.901 30.4047C134.436 30.5513 134.655 32.8595 136.121 32.713C137.623 32.5664 137.403 30.2581 135.901 30.4047Z" fill="white"/>
<path d="M129.086 38.905C128.463 39.0149 127.987 39.5279 128.06 40.1874L128.097 40.5171C128.17 41.1034 128.756 41.6529 129.379 41.543C130.002 41.4331 130.479 40.9202 130.405 40.2607L130.369 39.9309C130.259 39.3447 129.672 38.8317 129.086 38.905Z" fill="white"/>
<path d="M157.848 71.5504C156.383 71.6969 156.603 74.0052 158.068 73.8586C159.57 73.6754 159.35 71.4038 157.848 71.5504Z" fill="white"/>
<path d="M162.391 62.9768C160.926 63.1234 161.146 65.4316 162.611 65.2851C164.113 65.1385 163.894 62.8303 162.391 62.9768Z" fill="white"/>
<path d="M173.384 51.8386C171.918 51.9851 172.138 54.2934 173.603 54.1468C175.106 53.9636 174.849 51.692 173.384 51.8386Z" fill="white"/>
<path d="M179.245 85.4732C177.78 85.6197 178 87.928 179.465 87.7814C180.931 87.5982 180.711 85.3266 179.245 85.4732Z" fill="white"/>
<path d="M162.538 94.7795C161.073 94.926 161.293 97.2343 162.758 97.0877C164.261 96.9412 164.041 94.6329 162.538 94.7795Z" fill="white"/>
<path d="M171.038 117.056C169.572 117.203 169.792 119.511 171.258 119.364C172.76 119.218 172.54 116.909 171.038 117.056Z" fill="white"/>
<path d="M144.072 113.612C142.607 113.758 142.827 116.067 144.292 115.92C145.794 115.737 145.538 113.465 144.072 113.612Z" fill="white"/>
<path d="M132.677 114.674C131.212 114.821 131.431 117.129 132.897 116.983C134.399 116.836 134.143 114.528 132.677 114.674Z" fill="white"/>
<path d="M146.014 88.9539L145.684 88.9905C145.098 89.0638 144.548 89.65 144.658 90.2729C144.768 90.8957 145.281 91.372 145.941 91.2988L146.27 91.2621C146.857 91.1888 147.406 90.6026 147.296 89.9798C147.223 89.3569 146.673 88.8806 146.014 88.9539Z" fill="white"/>
<path d="M148.798 41.6896H145.867C144.438 41.6896 144.438 43.8879 145.867 43.8879H148.798C150.191 43.8879 150.191 41.6896 148.798 41.6896Z" fill="#57455D"/>
<path d="M162.721 38.0257H159.057C157.628 38.0257 157.628 40.224 159.057 40.224H162.721C164.113 40.224 164.113 38.0257 162.721 38.0257Z" fill="#57455D"/>
<path d="M153.231 50.263C153.048 49.6402 152.462 49.3837 151.876 49.4936C151.07 49.6402 150.264 49.8234 149.421 49.9699C148.835 50.0798 148.505 50.776 148.652 51.3256C148.835 51.9484 149.421 52.2049 150.007 52.095C150.813 51.9484 151.619 51.7652 152.462 51.6187C153.048 51.5088 153.378 50.8126 153.231 50.263Z" fill="#57455D"/>
<path d="M110.254 137.757C109.082 137.684 107.946 137.83 106.81 138.087C105.418 138.417 106.004 140.542 107.397 140.212C108.349 139.992 109.302 139.919 110.254 139.955C111.683 140.029 111.647 137.83 110.254 137.757Z" fill="#57455D"/>
<path d="M44.7442 115.407C43.0221 111.633 37.856 108.226 34.3387 111.67C31.4442 113.099 29.4657 116.14 29.7955 119.657C30.2351 124.457 35.6943 128.89 40.5307 127.315C45.5136 125.666 46.7593 119.767 44.7442 115.407Z" fill="#F7D06F"/>
<path d="M218.559 67.3735C218.01 63.8195 215.408 61.2182 212.257 60.4121C212.184 60.1556 212.037 59.9358 211.744 59.7892C207.567 57.6275 203.757 59.7526 201.559 63.2333C199.983 64.4424 198.774 66.0545 198.115 67.9964C196.869 71.6603 197.968 76.0936 201.082 78.4751C203.977 80.6735 208.154 80.6002 211.231 78.8049C211.891 78.4385 212.44 77.9988 212.953 77.4859C216.654 75.6539 219.219 71.8801 218.559 67.3735Z" fill="#EF86B0"/>
<path d="M203.28 37.8791C203.097 37.989 202.841 37.989 202.657 37.9157C202.584 37.586 202.474 37.2562 202.328 36.9631C202.401 36.0105 201.192 35.5708 200.532 36.0838C200.056 36.3402 199.726 36.8898 200.093 37.4394C200.129 37.9524 200.276 38.4287 200.569 38.8317C200.569 39.2347 200.459 39.6744 200.203 40.0041C199.763 40.224 199.396 40.5537 199.14 41.03C198.627 41.9827 199.653 43.1185 200.642 42.5322C200.935 42.3857 201.192 42.1658 201.412 41.946C201.558 41.946 201.668 42.0193 201.705 42.1292C202.218 43.4116 204.233 42.9353 203.83 41.543C203.537 40.8102 203.72 40.1507 204.416 39.7477C205.552 39.0149 204.526 37.1829 203.28 37.8791Z" fill="#F7D06F"/>
<path d="M208.264 110.241C207.824 110.351 207.384 110.461 206.945 110.534L206.762 109.692C206.432 108.299 204.307 108.885 204.637 110.278C204.71 110.534 204.746 110.791 204.82 111.047C204.6 111.12 204.343 111.157 204.124 111.23C202.731 111.56 203.318 113.685 204.71 113.355C204.93 113.319 205.113 113.246 205.333 113.209C205.443 113.612 205.516 114.052 205.626 114.455C205.956 115.847 208.081 115.261 207.751 113.868L207.458 112.696C207.934 112.586 208.374 112.476 208.85 112.366C210.206 112.036 209.619 109.911 208.264 110.241Z" fill="#F7D06F"/>
<path d="M26.4971 57.9573C26.2773 57.9939 26.0208 58.0672 25.801 58.1038C25.7277 57.7374 25.6178 57.371 25.5079 56.968C25.1048 55.6124 22.9798 56.1986 23.3828 57.5542C23.4927 57.884 23.566 58.2137 23.6393 58.5435C23.053 58.6534 22.4668 58.8 21.8806 58.9099C20.4883 59.203 21.0745 61.328 22.4668 61.0349C22.9431 60.925 23.4194 60.8517 23.8957 60.7418C23.8957 61.1082 23.8957 61.5112 23.8591 61.9143C23.7492 63.3432 25.9475 63.3066 26.0574 61.9143C26.0941 61.3647 26.0941 60.8517 26.0941 60.3022C26.4238 60.2289 26.7536 60.1556 27.0833 60.0823C28.4756 59.7892 27.8894 57.6641 26.4971 57.9573Z" fill="#F7D06F"/>
<path d="M19.3163 97.4541C18.8034 97.7839 18.2538 98.077 17.7042 98.2602C17.631 97.2709 17.4478 96.3183 17.2279 95.3291C16.8982 93.9368 14.8098 94.523 15.1029 95.9153C15.3227 96.8313 15.4693 97.7839 15.5059 98.6998C15.1029 98.7365 14.6998 98.6998 14.2968 98.6632C12.9045 98.5166 12.9045 100.715 14.2968 100.862C14.6998 100.898 15.1395 100.898 15.5425 100.898C15.5425 101.155 15.5059 101.374 15.5059 101.631C15.396 103.06 17.5943 103.023 17.7042 101.631C17.7409 101.265 17.7409 100.898 17.7409 100.568C18.6568 100.312 19.5728 99.9089 20.3789 99.3593C21.588 98.5899 20.4888 96.6847 19.3163 97.4541Z" fill="#F7D06F"/>
<path d="M109.265 11.2792C108.862 11.3525 108.459 11.4624 108.056 11.5357C107.946 11.1326 107.872 10.693 107.763 10.2899C107.433 8.89765 105.308 9.48387 105.637 10.8762C105.711 11.2425 105.821 11.6456 105.894 12.012L105.088 12.1952C103.696 12.4883 104.282 14.6133 105.674 14.3202C105.931 14.2836 106.187 14.2103 106.407 14.1737C106.517 14.6133 106.627 15.053 106.737 15.4927C107.066 16.885 109.191 16.2987 108.862 14.9064C108.752 14.5034 108.678 14.1004 108.569 13.6974C109.008 13.5874 109.411 13.5142 109.851 13.4042C111.243 13.0745 110.657 10.9494 109.265 11.2792Z" fill="#F7D06F"/>
<path d="M173.42 14.0638C172.577 14.137 171.771 14.2836 170.965 14.4302C170.855 13.9905 170.746 13.5142 170.636 13.0745C170.306 11.7189 168.181 12.2685 168.511 13.6607L168.84 15.0164C168.327 15.1996 167.814 15.3828 167.301 15.6026C166.019 16.1522 167.118 18.0574 168.401 17.5078C168.73 17.3613 169.024 17.2514 169.353 17.1414C169.463 17.5078 169.536 17.8742 169.646 18.2406C169.976 19.5963 172.101 19.0467 171.771 17.6544C171.662 17.288 171.588 16.9216 171.478 16.5552C172.101 16.4087 172.761 16.3354 173.384 16.2621C174.812 16.1155 174.812 13.9172 173.42 14.0638Z" fill="#F7D06F"/>
<path d="M61.4145 26.2645C61.158 26.4477 60.8649 26.5942 60.6084 26.7408C60.352 25.9347 60.0589 25.1287 59.6925 24.3593C59.0696 23.0769 57.1644 24.2127 57.7872 25.4584C58.1536 26.1912 58.4101 26.924 58.6299 27.6934C57.9704 27.9865 57.3109 28.243 56.6148 28.4262C55.2592 28.8292 55.8454 30.9543 57.201 30.5513C57.8239 30.3681 58.4467 30.1482 59.033 29.8918C59.033 30.0749 59.0696 30.2215 59.0696 30.4047C59.1429 31.797 61.3412 31.8336 61.2679 30.4047C61.2313 29.8917 61.1947 29.4154 61.1214 28.9391C61.5977 28.6827 62.074 28.4262 62.5503 28.1331C63.7228 27.4003 62.6236 25.4951 61.4145 26.2645Z" fill="#F7D06F"/>
<path d="M45.2932 43.2284C43.8643 43.2284 43.8643 45.4267 45.2932 45.4267C46.7221 45.4267 46.7221 43.2284 45.2932 43.2284Z" fill="white"/>
<path d="M38.3683 64.479C36.9394 64.479 36.9394 66.6773 38.3683 66.6773C39.7972 66.6773 39.7972 64.479 38.3683 64.479Z" fill="white"/>
<path d="M16.1651 76.9729C14.7362 76.9729 14.7362 79.1712 16.1651 79.1712C17.594 79.1712 17.594 76.9729 16.1651 76.9729Z" fill="white"/>
<path d="M38.3683 101.045C36.9394 101.045 36.9394 103.243 38.3683 103.243C39.7972 103.243 39.7972 101.045 38.3683 101.045Z" fill="white"/>
<path d="M132.238 12.7081C130.809 12.7081 130.809 14.9064 132.238 14.9064C133.666 14.9064 133.666 12.7081 132.238 12.7081Z" fill="white"/>
<path d="M190.531 23.7731C189.102 23.7731 189.102 25.9715 190.531 25.9715C191.96 25.9715 191.96 23.7731 190.531 23.7731Z" fill="white"/>
<path d="M190.054 58.4702C188.625 58.4702 188.625 60.6686 190.054 60.6686C191.483 60.6686 191.483 58.4702 190.054 58.4702Z" fill="white"/>
<path d="M195.623 89.9431C194.194 89.9431 194.194 92.1414 195.623 92.1414C197.016 92.1414 197.016 89.9431 195.623 89.9431Z" fill="white"/>
<path d="M217.827 91.2988C216.398 91.2988 216.398 93.4971 217.827 93.4971C219.219 93.4971 219.219 91.2988 217.827 91.2988Z" fill="white"/>
<path d="M191.006 115.81C189.577 115.81 189.577 118.009 191.006 118.009C192.398 118.009 192.398 115.81 191.006 115.81Z" fill="white"/>
<path d="M87.3908 17.7643C86.8045 17.8009 86.2916 18.2406 86.2916 18.8635V19.3398C86.2916 19.926 86.8045 20.4756 87.3908 20.4389C87.977 20.4023 88.4899 19.9626 88.4899 19.3398V18.8635C88.4899 18.3139 87.977 17.7643 87.3908 17.7643Z" fill="white"/>
<path d="M29.0987 136.182C27.6698 136.182 27.6698 138.38 29.0987 138.38C30.5276 138.38 30.5276 136.182 29.0987 136.182Z" fill="white"/>
<path d="M20.3422 114.894C18.9133 114.894 18.9133 117.093 20.3422 117.093C21.7345 117.093 21.7345 114.894 20.3422 114.894Z" fill="white"/>
<path d="M205.992 73.9685C203.83 74.3349 201.632 74.7379 199.47 75.1043C198.078 75.3608 198.664 77.4859 200.057 77.2294C202.218 76.863 204.417 76.46 206.578 76.0936C207.971 75.8371 207.384 73.712 205.992 73.9685Z" fill="#57455D"/>
<path d="M214.712 62.1341C213.429 62.5005 212.184 62.647 210.865 62.647C209.436 62.647 209.436 64.8454 210.865 64.8454C212.367 64.882 213.869 64.6622 215.298 64.2591C216.654 63.8927 216.104 61.7677 214.712 62.1341Z" fill="#57455D"/>
<path d="M217.826 70.5977C217.496 70.0847 216.874 69.9382 216.324 70.1947C216.031 70.3412 215.701 70.4878 215.408 70.671C214.895 70.9274 214.712 71.6969 215.005 72.1732C215.335 72.6861 215.958 72.8327 216.507 72.5762L217.423 72.0999C217.973 71.8434 218.156 71.074 217.826 70.5977Z" fill="#57455D"/>
<path d="M206.358 68.033C206.211 67.52 205.552 67.0437 205.002 67.2636C204.05 67.63 203.097 67.7765 202.071 67.7032C200.642 67.5933 200.679 69.7917 202.071 69.9016C203.28 69.9748 204.489 69.7917 205.589 69.3886C206.175 69.1688 206.541 68.6558 206.358 68.033Z" fill="#57455D"/>
<path d="M43.6074 119.841C42.8014 120.537 41.7755 120.903 40.713 120.94C39.284 120.976 39.284 123.175 40.713 123.138C42.3984 123.101 43.9005 122.479 45.1829 121.379C46.2088 120.463 44.67 118.925 43.6074 119.841Z" fill="#57455D"/>
<path d="M34.3743 116.287L30.1975 117.642C28.8418 118.082 29.4281 120.207 30.7837 119.767L34.9605 118.412C36.2795 117.972 35.6933 115.847 34.3743 116.287Z" fill="#57455D"/>
<path d="M56.8714 145.048C55.4791 145.195 54.0868 145.341 52.6945 145.488C51.3023 145.634 51.3023 147.833 52.6945 147.686C54.0868 147.54 55.4791 147.393 56.8714 147.246C58.2637 147.1 58.3003 144.902 56.8714 145.048Z" fill="#57455D"/>
<path d="M42.8749 149.921C41.9955 148.492 40.4201 149.152 39.2476 148.602C39.0644 148.346 38.7713 148.162 38.3683 148.199C38.2584 148.199 38.1484 148.199 38.0385 148.236C35.6936 148.492 33.7151 149.372 31.9198 150.947C31.4069 151.387 31.5168 152.376 32.1396 152.669C35.0708 154.098 39.211 154.611 42.1055 152.742C43.0947 152.119 43.5344 150.947 42.8749 149.921ZM39.4674 151.46C37.9652 151.863 36.463 151.826 34.9975 151.423C35.9135 150.91 36.9394 150.581 38.0019 150.434C38.4049 150.691 38.8446 150.8 39.3209 150.874C39.3942 150.874 40.6765 150.91 40.6765 150.947C40.7132 151.167 39.5774 151.423 39.4674 151.46Z" fill="#57455D"/>
<path d="M202.035 133.91C200.826 133.031 199.397 133.36 198.115 133.837C197.822 133.947 197.638 134.13 197.528 134.35C195.22 134.386 191.373 134.899 190.787 137.134C190.091 139.809 194.487 139.992 196.1 139.882C198.261 139.772 202.292 138.929 202.988 136.475C203.281 135.485 202.841 134.496 202.035 133.91ZM200.386 136.291C200.35 136.548 198.664 137.134 198.591 137.171C197.529 137.537 196.393 137.72 195.22 137.684C194.671 137.684 194.084 137.501 193.535 137.501C192.436 137.464 193.572 137.391 194.158 137.171C195.513 136.658 196.906 136.511 198.371 136.585C198.994 136.621 199.324 136.218 199.397 135.742C199.983 135.559 200.57 135.522 200.386 136.291Z" fill="#57455D"/>
<path d="M181.737 131.565H179.429C178 131.565 178 133.763 179.429 133.763H181.737C183.166 133.763 183.166 131.565 181.737 131.565Z" fill="#57455D"/>
<path d="M113.881 152.706C113.698 152.083 113.112 151.863 112.526 151.936C111.133 152.12 109.778 152.303 108.385 152.523C107.799 152.596 107.469 153.365 107.616 153.878C107.799 154.501 108.385 154.721 108.972 154.648C110.364 154.464 111.72 154.281 113.112 154.061C113.698 153.951 114.028 153.219 113.881 152.706Z" fill="#57455D"/>
<path d="M139.199 150.068H136.891C135.462 150.068 135.462 152.266 136.891 152.266H139.199C140.591 152.266 140.591 150.068 139.199 150.068Z" fill="#57455D"/>
<path d="M86.4762 150.984H82.7756C81.3467 150.984 81.3467 153.182 82.7756 153.182H86.4762C87.8685 153.182 87.8685 150.984 86.4762 150.984Z" fill="#57455D"/>
<path d="M142.057 58.5435C140.884 57.5542 139.675 59.0564 139.016 59.8991C137.733 61.5112 136.891 63.3798 136.011 65.2118C135.352 66.604 134.729 67.9597 134.106 69.352C134.106 68.2894 133.996 67.117 133.556 66.3109C132.934 65.1385 131.505 65.395 130.662 66.1277C129.49 67.117 128.683 68.6558 127.987 70.0847C125.972 64.7355 122.272 60.1922 117.435 57.1145C117.289 57.0046 117.142 57.0046 116.996 57.0046C116.886 56.7115 116.593 56.5283 116.226 56.6749C114.284 57.371 112.416 58.2137 110.657 59.2396C110.657 59.203 110.657 59.1663 110.657 59.1663V58.8732C110.694 58.7267 110.657 58.5801 110.62 58.4335C110.511 58.1771 110.254 57.9572 109.961 57.9939C109.704 57.9939 109.485 58.1404 109.375 58.3236C108.825 58.8732 108.349 59.4594 107.946 60.0823C102.303 63.5264 102.047 70.9641 104.099 76.6065C105.308 79.9773 106.993 83.3481 109.155 86.2059C109.192 86.2792 109.265 86.3158 109.301 86.3891C110.437 94.2665 111.317 102.254 112.782 110.095C109.265 116.983 105.528 123.724 101.571 130.319C100.581 132.005 99.5555 133.653 98.4929 135.302C97.7968 136.438 96.3312 137.94 96.661 139.406C96.9541 140.688 98.4563 141.897 99.3723 142.777C100.618 143.949 101.937 144.975 103.366 145.927C103.952 146.294 104.465 145.671 104.392 145.121C104.062 142.813 103 139.772 104.502 137.757C105.857 135.925 107.543 134.313 108.972 132.518C111.463 129.367 113.735 125.996 115.713 122.479C117.985 130.099 121.063 137.61 125.093 144.425C125.569 145.268 126.155 146.001 127.145 146.184C128.171 146.367 129.38 146.037 130.405 145.891C132.75 145.524 135.022 144.828 136.891 143.289C137.294 142.96 137.074 142.19 136.597 142.117C135.462 141.897 134.363 141.714 133.227 141.494C132.567 141.384 132.128 141.348 131.798 140.688C131.578 140.285 131.505 139.772 131.395 139.332C130.772 137.244 130.186 135.119 129.599 133.031C128.5 128.964 127.511 124.823 126.632 120.72C125.899 117.349 125.276 113.942 124.69 110.534C126.155 107.127 127.108 103.573 127.511 99.8722C127.731 97.8205 127.767 95.6954 127.621 93.6436C127.474 91.5186 126.815 89.3202 126.998 87.1585C127.071 87.0852 127.145 86.9753 127.218 86.902C134.399 89.3935 138.759 79.1346 140.664 74.0418C141.983 70.5244 143.119 66.6773 143.302 62.9035C143.302 61.5845 143.193 59.4961 142.057 58.5435Z" fill="white"/>
<path d="M120.037 38.0256C115.567 33.3725 107.359 33.5923 101.68 35.4975C95.8181 37.4394 90.8352 42.8253 91.971 49.3471C93.1068 55.9054 98.9324 61.1082 105.271 62.5005C106.187 63.5996 108.678 62.4272 109.704 62.0608C111.976 61.2547 114.101 60.1556 116.116 58.7999C116.299 58.69 116.373 58.5435 116.409 58.3603C118.424 57.0046 120.183 55.2093 121.429 53.1209C124.14 48.4677 123.847 42.0193 120.037 38.0256Z" fill="#B4C7E7"/>
<path d="M143.156 59.4595C142.863 57.8474 141.251 57.8108 140.115 58.5802C139.675 58.5435 139.199 58.9099 139.346 59.4595C139.859 61.3281 140.372 63.2333 141.068 65.0653C141.031 65.1386 141.031 65.2118 140.994 65.2851C140.848 65.7248 141.141 66.0545 141.507 66.1278C142.094 67.3003 143.303 67.3003 143.669 65.9813C144.072 64.4791 144.182 61.2182 143.156 59.4595Z" fill="#74A2D6"/>
<path d="M122.858 74.0052C122.089 72.2465 121.429 70.0848 120.22 68.5826C119.744 67.9964 118.535 67.0804 117.729 67.4468C117.692 67.4468 117.619 67.4834 117.582 67.5201C115.97 68.2895 114.175 68.9123 112.673 69.9016C111.464 70.671 111.06 71.8435 111.354 73.1991C111.72 74.9211 112.673 76.5699 113.369 78.182C114.138 79.9773 114.871 81.7726 115.677 83.5679C116.153 84.6671 116.923 85.2167 118.095 84.7038C119.487 84.1175 120.806 83.055 121.832 81.9558C122.748 80.9666 123.774 79.6842 124.104 78.3286C124.47 76.863 123.444 75.2875 122.858 74.0052Z" fill="#EF86B0"/>
<path d="M139.309 75.8004C137.074 76.3867 134.986 77.3393 133.081 78.6949C132.494 79.1346 132.824 80.0139 133.374 80.0506C134.253 80.6001 135.169 81.3695 136.158 81.7359C136.635 81.9191 137.001 81.8459 137.404 81.5161C138.723 80.307 139.566 78.2919 140.189 76.6798C140.408 76.1668 139.786 75.6905 139.309 75.8004Z" fill="#74A2D6"/>
<path d="M144.475 73.3456C144.292 70.8175 143.486 68.1795 142.826 65.7247C142.13 63.0501 141.287 60.3754 140.371 57.7741C139.785 56.1253 139.272 53.1575 137 53.1942C135.938 53.1942 134.839 53.7438 133.849 54.0735C132.64 54.5132 131.468 54.9895 130.295 55.4658C127.804 56.5283 125.349 57.7374 123.004 59.0931C121.099 60.1922 118.681 61.4013 117.582 63.4165C116.263 65.798 117.252 68.6558 117.948 71.074C118.827 74.1517 119.853 77.1927 120.953 80.1971C121.026 80.3803 121.136 80.4902 121.246 80.5635C121.136 81.1864 122.125 81.6627 122.565 81.0032C124.14 78.7316 125.569 76.3867 126.815 73.9319C127.474 72.6861 128.06 71.4038 128.647 70.158C129.16 69.0589 129.709 67.9231 130.698 67.1903C131.761 66.4209 133.446 66.2377 134.106 67.5933C134.619 68.6192 134.362 69.9382 134.143 71.0007C133.556 73.7853 132.677 76.4966 131.505 79.098C131.285 79.6109 131.651 80.3437 132.311 80.1238C135.059 79.1712 137.77 78.1453 140.481 77.0462C142.203 76.3134 144.621 75.7272 144.475 73.3456Z" fill="#F7D06F"/>
<path d="M133.227 65.798C133.154 65.798 133.117 65.7613 133.044 65.7613C132.384 65.5781 131.615 65.798 130.992 66.2376C129.783 67.1536 129.087 68.6192 128.391 69.9015C128.207 70.2679 128.024 70.5977 127.804 70.9274C127.621 71.1839 127.475 71.4037 127.292 71.6236C125.423 74.2982 123.628 77.0095 121.942 79.7941C121.796 79.904 121.686 80.0505 121.576 80.1971C121.429 80.3436 121.319 80.5635 121.319 80.7833C121.319 80.7833 121.319 80.7833 121.319 80.8199C121.1 81.1863 121.246 81.5527 121.503 81.6993C121.796 82.2855 122.419 82.6885 122.968 83.0549C124.25 83.861 125.496 84.7037 126.815 85.5097C127.511 85.9494 128.391 86.1692 128.867 85.3998C129.16 85.3265 129.453 85.1434 129.746 84.777C131.798 82.1756 132.787 78.6949 133.41 75.5073C133.484 75.1409 133.557 74.7745 133.593 74.4081C133.74 73.9318 133.887 73.4555 133.996 72.9792C134.509 71.2572 135.938 66.5674 133.227 65.798Z" fill="#74A2D6"/>
<path d="M134.509 140.761C133.557 140.615 132.531 140.322 132.165 139.332C131.725 138.16 131.652 136.804 131.432 135.595C130.919 132.921 130.443 130.246 129.93 127.571L129.49 125.263C129.417 124.787 129.38 124.274 129.05 123.907C128.317 123.065 127.108 123.761 126.266 124.017C123.335 125.007 120.44 125.959 117.509 126.948H117.472C117.033 126.948 116.593 127.278 116.776 127.791C118.498 132.591 120.477 137.281 122.712 141.861C123.261 142.96 123.774 144.096 124.36 145.158C124.8 145.891 125.276 146.404 126.156 146.587C128.244 146.99 130.772 146.477 132.787 145.854C134.253 145.415 136.891 144.682 137.587 143.106C138.466 141.091 135.755 140.981 134.509 140.761Z" fill="#74A2D6"/>
<path d="M113.258 126.912C111.316 124.86 109.081 123.138 106.553 121.782C106.004 121.489 105.454 122.002 105.491 122.479C103.842 125.08 102.193 127.681 100.545 130.319C98.8591 132.994 97.0272 135.595 95.4884 138.343C95.0121 139.223 95.0487 140.029 95.6716 140.835C96.4776 141.934 97.4302 142.923 98.3462 143.912C99.9217 145.598 101.68 147.833 104.208 147.833C104.502 147.833 104.831 147.613 104.905 147.32C105.271 145.525 104.575 143.986 104.318 142.227C103.989 140.065 105.124 138.123 106.517 136.548C107.762 135.119 109.191 133.91 110.364 132.444C111.536 130.979 112.562 129.44 113.368 127.755C113.478 127.461 113.478 127.132 113.258 126.912Z" fill="#74A2D6"/>
<path d="M108.495 44.6573C104.428 45.6099 103.512 50.1898 104.722 53.6339C104.795 53.8903 104.978 54.0003 105.161 54.0735C106.187 56.8947 108.788 59.8625 112.049 58.3237C117.618 55.6856 115.274 43.0452 108.495 44.6573Z" fill="#F7D3BC"/>
<path d="M121.319 54.1468C120.623 51.9485 114.944 55.3926 113.808 55.9788C110.291 57.6642 106.773 59.3862 103.256 61.0716C102.67 61.1082 102.303 61.3281 102.084 61.6578C101.717 61.841 101.644 62.1708 101.79 62.4639C101.79 62.8303 101.937 63.2333 102.193 63.4898C102.267 63.5631 102.303 63.5997 102.377 63.673C102.633 63.9295 103 64.1493 103.439 64.2226C104.612 64.4058 105.967 63.7463 107.03 63.3799C108.349 62.9036 109.668 62.3906 110.95 61.8044C112.672 60.9983 114.358 60.119 115.97 59.0931C116.153 59.0198 116.336 58.9465 116.483 58.8733C117.655 58.397 118.828 57.8474 119.817 57.0047C120.586 56.3818 121.649 55.1727 121.319 54.1468Z" fill="#F7D06F"/>
<path d="M113.441 45.8297C111.792 43.4482 107.835 43.3749 105.784 45.2069C103.585 47.1487 103.402 50.5928 103.549 53.3041C103.659 54.9895 103.952 56.7115 104.684 58.2503C105.381 59.6426 106.736 59.606 108.129 59.2762C109.521 58.9098 111.133 58.1038 110.913 56.455C110.693 54.7696 109.924 53.0476 109.118 51.5454C110.473 50.8493 111.902 50.1165 113.038 49.1272C114.064 48.2845 114.247 46.9655 113.441 45.8297Z" fill="#57455D"/>
<path d="M111.427 51.179C109.998 51.179 109.998 53.3774 111.427 53.3774C112.856 53.3774 112.856 51.179 111.427 51.179Z" fill="#57455D"/>
<path d="M115.347 49.2005C113.918 49.2005 113.918 51.3988 115.347 51.3988C116.776 51.3988 116.776 49.2005 115.347 49.2005Z" fill="#57455D"/>
<path d="M116.263 52.6446C115.969 52.1683 115.237 51.9118 114.76 52.2416C114.137 52.6813 113.478 53.0843 112.855 53.524C112.379 53.8537 112.159 54.4766 112.452 55.0262C112.745 55.5025 113.478 55.7589 113.954 55.4292L115.859 54.1468C116.372 53.8171 116.592 53.1576 116.263 52.6446Z" fill="#57455D"/>
<path d="M128.683 84.8503C126.595 87.3051 124.177 89.3569 121.429 91.0423C121.026 90.969 120.549 91.1522 120.293 91.482C116.592 92.1415 112.709 89.1737 110.291 86.6456C109.301 85.6198 107.762 87.1952 108.752 88.1845C111.573 91.1156 116.043 94.3032 120.33 93.6803C121.429 99.2494 122.455 104.819 123.407 110.424C123.664 111.817 125.752 111.23 125.532 109.838C124.58 104.232 123.554 98.5899 122.455 93.0208C125.386 91.2255 128.024 89.0272 130.259 86.4258C131.138 85.3266 129.599 83.7512 128.683 84.8503Z" fill="#57455D"/>
<path d="M116.446 123.541L116.409 123.431C116.336 123.211 116.19 123.028 116.006 122.882C115.97 122.808 115.97 122.735 115.933 122.625C115.86 122.039 115.677 121.453 115.53 120.903C115.274 119.877 115.054 118.815 114.761 117.789C114.248 115.7 113.661 113.649 113.075 111.597C112.672 110.241 110.547 110.827 110.95 112.183C111.683 114.674 112.342 117.203 112.965 119.731C113.258 120.866 113.515 122.039 113.771 123.211C113.955 123.944 114.028 124.494 114.687 124.897C115.09 125.117 115.713 125.08 116.006 124.714C116.043 124.677 116.043 124.64 116.08 124.64C116.409 124.311 116.593 123.907 116.446 123.541Z" fill="#57455D"/>
<path d="M111.683 129.477C109.668 127.718 107.689 125.996 105.674 124.237C104.612 123.321 103.036 124.86 104.135 125.776C106.15 127.535 108.129 129.257 110.144 131.015C111.17 131.931 112.745 130.393 111.683 129.477Z" fill="#57455D"/>
<path d="M129.05 125.959C127.072 126.069 125.13 126.436 123.298 127.095C121.429 127.755 119.707 129.037 117.765 129.403C116.373 129.66 116.959 131.785 118.352 131.528C120.074 131.199 121.503 130.209 123.115 129.55C125.02 128.744 127.035 128.304 129.087 128.194C130.442 128.048 130.443 125.849 129.05 125.959Z" fill="#57455D"/>
<path d="M131.322 81.5894C131.029 81.1864 130.589 80.9665 130.076 81.0765C130.039 81.0765 130.003 81.0765 129.966 81.1131C129.93 81.1131 129.893 81.1497 129.82 81.1497C129.417 80.9299 128.684 80.4902 128.537 80.4536C128.024 80.2337 127.548 79.9773 127.035 79.7574C125.863 79.2079 124.69 78.6583 123.518 78.1087C122.565 77.669 121.686 78.6216 121.869 79.3911C121.649 79.4643 121.429 79.6109 121.283 79.8674C120.44 81.2596 119.451 82.5054 118.315 83.6778C118.022 83.9709 117.692 84.264 117.399 84.5572C117.069 84.2274 116.849 83.8244 116.666 83.3847C116.263 82.6886 115.897 81.9191 115.53 81.1864L110.841 72.0632C110.181 70.8175 108.312 71.9167 108.935 73.1624C110.108 75.4707 111.317 77.7789 112.489 80.0872C113.442 81.9558 114.248 84.4472 115.677 85.9861C118.352 88.9172 121.979 82.8718 123.188 80.9665C123.298 80.7833 123.334 80.6001 123.371 80.417L127.218 82.2123C128.244 82.6886 129.526 83.6778 130.736 83.4213C131.102 83.3481 131.432 83.0183 131.505 82.6519C131.542 82.2489 131.542 81.8825 131.322 81.5894Z" fill="#57455D"/>
<path d="M130.992 65.6148L127.657 57.9939C127.108 56.7116 125.203 57.8107 125.752 59.0931C126.851 61.6212 127.95 64.1859 129.086 66.714C129.672 68.033 131.541 66.8972 130.992 65.6148Z" fill="#57455D"/>
<path d="M118.022 72.7228C117.729 72.1732 117.032 72.0633 116.52 72.3198C115.86 72.6495 115.237 73.0159 114.578 73.3457C114.065 73.6388 113.882 74.3349 114.175 74.8479C114.468 75.3974 115.164 75.5074 115.677 75.2509C116.336 74.9211 116.959 74.5547 117.619 74.225C118.168 73.9685 118.315 73.2357 118.022 72.7228Z" fill="#57455D"/>
<path d="M119.195 77.779C118.169 78.0721 117.289 78.5851 116.52 79.3179C115.494 80.3071 117.033 81.8459 118.059 80.8567C118.535 80.3804 119.121 80.0506 119.781 79.8674C121.136 79.501 120.55 77.376 119.195 77.779Z" fill="#57455D"/>
</svg>
