<svg width="114" height="137" viewBox="0 0 114 137" fill="none" xmlns="http://www.w3.org/2000/svg">
<path d="M109.214 38.0754C105.239 27.5019 98.0839 18.1739 87.9874 12.0789C82.3429 8.66041 76.1154 6.19591 69.9409 3.70491C63.6604 1.18741 57.4329 -0.826588 50.5429 0.339412C44.4744 1.37291 38.5384 3.89041 33.3179 6.91141C28.3624 9.77341 23.8839 13.3244 20.0414 17.4319C15.8014 21.9634 12.4889 27.1574 9.83893 32.6429C7.00343 38.4464 4.64493 44.5414 2.81643 50.6894C0.934927 56.9434 -0.098575 63.3829 0.00742493 69.8754C0.0869249 76.3149 1.14693 82.7279 2.81643 88.9554C4.45943 95.0239 6.60593 101.039 9.30892 106.763C11.4024 111.189 14.1849 115.694 18.5044 118.503C20.4389 119.775 22.6384 120.543 24.9969 120.808C25.2884 120.835 25.4739 120.729 25.5799 120.543C32.4434 122.186 39.4129 123.458 46.4354 124.333C53.5374 125.234 60.7984 125.896 67.9534 125.764C74.3929 125.658 80.6469 124.492 86.2384 121.418C91.1939 118.688 95.3809 114.846 98.7464 110.473C102.562 105.491 105.212 99.8204 107.226 94.0434C109.373 87.8424 110.936 81.4029 111.97 74.9369C113.904 62.6939 113.666 49.8944 109.214 38.0754Z" fill="#112A62"/>
<path d="M42.911 61.3159C43.176 61.0774 43.282 60.6799 42.964 60.3619C41.4005 58.7189 39.943 56.8374 38.194 55.3799C37.028 54.3994 35.491 53.6839 33.9275 54.2404C32.4435 54.7704 31.622 56.1749 31.1185 57.4999C30.35 59.4609 29.8995 61.5544 29.3695 63.5684C27.011 72.4194 25.209 81.4294 24.573 90.5189C24.414 92.7714 24.3345 95.0239 24.3345 97.3029C24.3345 99.4229 24.2815 101.596 24.6525 103.689C24.9175 105.306 25.686 106.843 27.223 107.717C28.654 108.539 30.3235 108.406 31.5955 107.426C33.0265 106.313 34.06 104.59 34.9875 103.133C36.074 101.463 37.028 99.7409 37.876 97.9389C39.519 94.4674 40.7115 90.8369 41.533 87.1004C43.388 78.6734 43.494 69.9284 42.911 61.3159Z" fill="#F087B1"/>
<path d="M94.533 88.5314C94.1355 84.4769 92.8634 80.5284 91.7769 76.6329C89.6304 68.9214 87.2984 61.2099 83.6944 53.9754C82.4489 51.4579 80.1434 47.1914 76.4069 48.7284C74.5519 49.4704 73.2534 51.3519 72.1669 52.8889C71.1069 54.3464 70.2324 55.9364 69.5169 57.5529C69.0929 57.2349 68.2185 57.5794 68.3775 58.2684C70.1 66.2714 71.6899 74.5129 75.5854 81.8799C77.2549 85.0069 79.375 87.9219 82.025 90.3864C83.297 91.5789 84.7015 92.6389 86.212 93.5664C87.5899 94.4144 89.2595 95.4214 90.9025 95.5804C94.957 95.9249 94.7715 91.0224 94.533 88.5314Z" fill="#F087B1"/>
<path d="M96.4674 118.264C93.9764 115.879 90.9024 114.077 87.6164 112.832C79.7459 109.784 70.8154 109.811 62.4414 109.784C53.9084 109.731 45.2694 110.155 37.0014 112.222C30.5884 113.812 23.3804 116.489 19.8559 122.133C19.8029 122.213 19.7499 122.319 19.6969 122.398C19.1404 122.928 18.5839 123.485 18.0804 124.068C16.1194 126.426 14.6619 129.633 17.5239 131.938C18.7959 132.972 20.4124 133.528 22.0024 134.032C24.0164 134.668 26.0834 135.118 28.1769 135.463C36.6834 136.814 45.4549 136.258 54.0409 136.019C63.0244 135.754 72.0344 135.357 80.9384 134.244C85.2314 133.714 89.5774 133.104 93.7644 132.044C96.5204 131.355 99.6739 130.03 100.495 127.221C101.502 123.882 98.7729 120.464 96.4674 118.264Z" fill="#C8D8F9"/>
<path d="M69.0134 104.829C68.5629 103.504 68.0594 102.179 67.5029 100.88C67.0524 99.8469 66.6284 98.3099 65.7009 97.5679C64.8529 96.8789 63.4484 97.1704 62.4149 97.1969C60.8249 97.2499 59.2084 97.2234 57.5918 97.3294C55.5778 97.4619 53.2723 98.1774 52.4508 99.9529C52.1858 99.9529 51.9208 100.112 51.8413 100.43C51.0463 103.371 50.5958 106.392 50.5163 109.44C50.4633 111.745 50.0923 115.058 51.9473 116.86C52.2918 117.178 53.0338 117.072 53.1398 116.568C53.2193 116.197 53.2723 115.826 53.3253 115.455C53.5373 116.33 53.7758 117.204 54.0674 118.079C54.7034 119.934 55.4188 122.822 57.4859 123.723C57.8834 123.909 58.4133 123.776 58.5194 123.326C58.7843 122.345 58.9963 121.391 59.1553 120.411C59.5528 121.391 60.0298 122.372 60.6128 123.273C60.7718 123.538 61.1163 123.644 61.4078 123.564C62.1763 123.379 62.5738 122.875 62.8388 122.186C63.2893 120.994 63.5014 119.722 63.7399 118.476C63.7664 118.37 63.7664 118.291 63.7929 118.185C64.2169 119.086 65.0384 119.907 66.0454 119.086C67.2909 118.105 67.1584 115.773 67.3439 114.422C67.5029 113.256 67.6354 112.09 67.7414 110.924C67.9799 111.507 68.2184 112.063 68.4834 112.646C68.7484 113.229 69.5699 112.938 69.7819 112.487C70.8684 110.076 69.8084 107.214 69.0134 104.829Z" fill="#F7D16F"/>
<path d="M71.4513 90.201C70.4178 89.8565 69.3048 90.201 68.2713 90.36C66.5753 90.625 64.8528 90.7045 63.1568 90.7575C59.7383 90.837 56.3198 90.625 52.8748 90.6515C51.2318 90.678 49.6153 90.731 47.9988 90.9165C46.8593 91.049 45.5873 91.049 44.8718 92.0295C44.8188 92.0825 44.7923 92.1355 44.7923 92.1885C44.6598 92.2945 44.5803 92.4535 44.5803 92.6655C44.6333 94.6795 44.9248 97.1705 47.2038 98.0979C47.6808 98.2834 48.5023 98.2304 48.8203 98.6279C49.0853 98.9459 49.0058 99.5819 49.0323 99.9529C49.1118 100.96 49.2973 101.834 49.9598 102.656C51.4703 104.537 54.0938 104.961 56.4523 105.094C59.2348 105.279 62.1498 105.147 64.8793 104.537C67.0258 104.06 69.2783 102.841 69.6758 100.615C69.7818 100.032 69.6228 99.5024 70.2058 99.1049C70.5768 98.8664 71.0273 98.7604 71.3718 98.4689C72.2463 97.7534 72.7498 96.72 72.9353 95.6335C73.2268 94.176 73.4123 90.8635 71.4513 90.201Z" fill="#74A3D7"/>
<path d="M77.838 76.7389C77.3875 70.2464 76.4865 63.8069 75.1615 57.4204C73.81 50.9809 72.008 44.5944 69.782 38.3669C68.669 35.2399 67.45 32.1659 66.0985 29.1449C65.118 26.9189 63.9255 24.6664 61.991 23.0499C60.2155 21.5394 57.8835 20.8504 55.578 21.7514C52.981 22.7584 50.967 25.1964 49.4565 27.3164C45.9585 32.1659 44.342 37.9694 42.964 43.6139C39.36 58.5069 38.0615 73.8769 39.0685 89.1409C39.0685 89.2734 39.1215 89.4059 39.201 89.4854C39.201 89.6179 39.254 89.7769 39.3865 89.9094C43.3615 94.0964 49.165 96.2959 55.0745 96.6139C58.493 96.7994 61.938 96.4019 65.2505 95.5804C68.192 94.8649 71.319 93.9374 73.8895 92.3739C76.2215 90.9429 77.7055 88.9554 78.05 86.3319C78.4475 83.1784 78.05 79.8659 77.838 76.7389Z" fill="white"/>
<path d="M67.2643 49.6824C66.5753 47.4829 65.1973 45.7074 63.4218 44.3029C63.0508 43.9584 62.6798 43.6139 62.2823 43.2694C61.2488 42.3154 60.0298 41.6264 58.7578 41.2554C57.8833 40.9639 56.9558 40.7784 56.0283 40.8314C55.7898 40.8314 55.5778 40.9374 55.4453 41.0699C54.3323 41.2554 53.2723 41.7324 52.3448 42.5009C49.8008 43.9319 47.8398 46.1844 47.0183 48.8874C45.8523 52.7564 46.9918 57.5529 50.7018 59.9114C54.2263 62.1374 59.5263 61.7134 63.0773 59.7259C64.1108 59.1429 64.9853 58.4274 65.6743 57.6059C65.8598 57.5529 66.0188 57.4469 66.1248 57.2614C66.2573 56.9964 66.3898 56.7314 66.4958 56.4399C67.7148 54.4524 68.0063 52.0409 67.2643 49.6824Z" fill="#F087B1"/>
<path d="M64.1904 48.8874C63.1304 46.6349 61.8584 44.7799 59.5529 44.0379C59.2879 43.9584 58.9964 43.8524 58.7579 43.7199C58.4134 43.5344 57.5919 43.4549 57.2474 43.4814C56.3994 43.5344 55.5779 43.7199 54.7829 43.9584C54.6769 43.9849 54.5974 43.9849 54.4914 44.0114C54.3589 44.0379 54.2529 44.0909 54.1734 44.1704C51.9739 45.0449 50.1454 46.6614 49.2179 48.7814C47.8929 51.8289 48.7939 55.6184 51.3909 57.8444C54.0409 60.0969 58.2809 60.4679 61.3019 58.6659C64.8264 56.5989 65.8334 52.3589 64.1904 48.8874Z" fill="#B6C8E8"/>
<path d="M47.4953 71.4654C47.4688 70.1139 47.7338 68.0469 46.0908 67.4109C45.2428 67.0664 44.1563 67.1459 43.2553 67.1194C41.9568 67.0929 40.6583 67.1724 39.3598 67.3049C38.6973 67.3844 38.5383 68.0999 38.8298 68.4444C38.2203 72.1279 37.9023 75.8644 37.9818 79.6009C38.0083 81.5619 38.1673 83.5229 38.3793 85.4839C38.4588 86.1464 38.4323 87.1269 38.8298 87.7099C39.2273 88.2664 39.8368 88.2664 40.4728 88.2664C41.4798 88.2929 42.4868 88.2664 43.4673 88.2399C44.2358 88.2134 45.1898 88.2664 45.9053 87.9484C47.3893 87.2859 47.0978 85.1924 47.1773 83.9469C47.4688 79.8394 47.5748 75.6524 47.4953 71.4654Z" fill="#F7D16F"/>
<path d="M78.3148 75.4669C77.9968 70.9354 77.2813 66.4039 76.1948 61.9784C76.1418 61.7399 75.9828 61.6074 75.7973 61.5279C75.5853 61.3689 75.2938 61.2894 74.9758 61.3954L72.2198 62.5349C71.5573 62.7999 70.7093 63.0119 70.2058 63.5419C69.8083 63.9659 69.7553 64.4959 69.7288 65.0259C69.6758 66.0329 69.6758 67.0664 69.6493 68.0734C69.5963 71.8364 69.6758 75.6524 70.3913 79.3624C70.5503 80.2104 70.7623 81.0849 71.0008 81.9329C71.2128 82.6484 71.3718 83.6024 71.9018 84.1589C72.8293 85.1659 74.9228 84.4504 76.0623 84.1589C77.5993 83.7349 78.4738 82.9399 78.5268 81.4029C78.5798 79.4419 78.4473 77.4544 78.3148 75.4669Z" fill="#F7D16F"/>
<path d="M62.2296 57.0494C61.6996 54.9294 60.931 52.9154 59.924 50.9544C59.659 50.4509 58.7315 50.5569 58.6255 51.1134C58.546 51.5374 58.4666 51.9614 58.3871 52.3854C58.3871 52.4119 58.387 52.4649 58.3605 52.5179C57.168 52.6504 55.9755 52.7829 54.8095 52.9684C54.571 52.2264 54.3061 51.4844 54.0676 50.7424C53.8556 50.1064 52.9281 50.1329 52.7161 50.7424C51.9741 52.7564 51.8415 55.0619 51.603 57.1819C51.285 57.3939 51.1525 57.8444 51.497 58.1624C51.497 58.1624 51.4971 58.1624 51.5236 58.1889C51.5766 58.4009 51.762 58.5334 51.974 58.5599C53.3785 59.6464 55.207 59.8849 57.009 59.8054C58.016 59.7524 59.1821 59.7259 60.1361 59.3814C61.0636 59.0369 61.5671 58.5599 62.2826 58.0034C62.4416 57.8709 62.2826 57.2614 62.2296 57.0494Z" fill="#56597A"/>
<path d="M35.4381 21.672C34.8286 21.5925 34.4576 21.0095 34.5636 20.4794C34.6961 19.8964 34.0601 19.5254 33.5831 19.6844C33.1855 19.7639 32.788 20.2145 33.0265 20.6915C33.0795 20.824 33.1325 20.9565 33.159 21.089C33.159 21.1155 33.1855 21.1685 33.1855 21.195C33.3181 21.884 33.0531 22.573 32.5761 23.103C32.0726 23.209 31.6485 23.527 31.4365 23.9775C31.145 24.587 31.728 25.17 32.3905 24.8784C32.7085 24.7459 32.9736 24.5605 33.2386 24.375C33.6626 24.5075 34.1396 25.0904 34.2986 25.3289C34.7491 25.9384 35.7561 25.5675 35.5971 24.8255C35.4116 24.0305 35.5971 23.3679 36.0476 22.6789C36.3656 22.2019 35.9416 21.725 35.4381 21.672ZM34.219 23.368C34.1925 23.3415 34.1661 23.3415 34.1396 23.315C34.2456 23.1295 34.3516 22.9175 34.4046 22.7055C34.4046 22.7055 34.4046 22.7055 34.4311 22.7055C34.3516 22.9175 34.272 23.156 34.219 23.368Z" fill="#F7D16F"/>
<path d="M89.1533 34.7629C89.0473 34.7894 88.9148 34.8424 88.8088 34.8954C88.5438 35.0014 88.2523 35.1074 87.9873 35.1869C87.8548 34.6569 87.7488 34.1534 87.6163 33.6234C87.5898 33.5174 87.5368 33.4379 87.4838 33.3584C87.4573 33.2259 87.4573 33.0934 87.4043 32.9609C87.2188 32.1394 85.8673 32.4839 86.0528 33.3054C86.1058 33.5704 86.1323 33.8089 86.1323 34.0474C86.1058 34.2064 86.0793 34.3919 86.0793 34.5509C85.9733 35.0544 85.7613 35.5049 85.4168 35.9289C84.9928 36.1144 84.6748 36.4589 84.5158 36.9094C84.2773 37.5984 85.2048 37.9164 85.7083 37.5454C85.8938 37.4129 86.0793 37.2539 86.2648 37.0684C86.6888 37.2009 87.2718 37.8899 87.3778 37.9959C87.7488 38.4199 88.6498 38.0754 88.5968 37.5189C88.4908 36.8034 88.8088 36.1939 89.5773 35.9819C90.3723 35.7434 90.0543 34.5244 89.1533 34.7629Z" fill="#F7D16F"/>
<path d="M98.1899 61.0244C97.4214 61.1834 96.8649 60.8389 96.6529 60.3354C96.7589 59.9644 96.7854 59.5669 96.7589 59.1694C96.7854 59.1429 96.7854 59.1164 96.8119 59.0899C97.0504 58.7454 96.8649 58.4009 96.5734 58.2154C96.5734 58.1889 96.5469 58.1624 96.5469 58.1359C96.2554 57.3409 94.9039 57.6854 95.1954 58.4804C95.2484 58.6394 95.2749 58.7719 95.3014 58.9309C95.1159 59.4079 95.0894 59.8849 95.1689 60.3089C94.9569 60.8389 94.5859 61.2894 94.0824 61.6074C93.9499 61.6604 93.8174 61.7399 93.6849 61.8194C92.9694 62.3229 93.5789 63.3564 94.4004 62.9589C94.5329 62.9059 94.6389 62.8529 94.7449 62.7734C95.5664 62.4554 96.5734 62.7734 96.8384 63.6479C97.0504 64.3369 98.2694 64.2574 98.2164 63.4624C98.1634 62.8529 98.3754 62.4554 98.8789 62.0579C99.4619 61.6869 98.8259 60.8919 98.1899 61.0244Z" fill="#F7D16F"/>
<path d="M83.774 102.709C82.8995 102.815 82.078 102.126 82.343 101.278C82.4225 101.039 82.343 100.854 82.237 100.721C82.237 100.562 82.2105 100.403 82.184 100.218C82.025 99.3699 80.6735 99.7409 80.8325 100.562C81.0445 101.728 80.541 102.947 79.5075 103.663C78.792 104.166 79.481 105.306 80.223 104.802C81.018 104.272 82.131 104.405 82.661 105.226C83.1115 105.889 84.092 105.438 83.9595 104.723C83.88 104.352 84.039 104.113 84.304 103.875C84.675 103.477 84.41 102.629 83.774 102.709Z" fill="#F7D16F"/>
<path d="M18.6105 104.643C18.4515 104.67 18.2925 104.723 18.1335 104.776C17.6035 104.829 17.0205 104.458 16.835 103.954C16.888 103.477 16.8615 103 16.7555 102.523C16.57 101.702 15.192 102.046 15.404 102.868C15.4305 102.947 15.4305 103.027 15.457 103.133V103.159C15.404 103.451 15.404 103.742 15.457 104.007C15.3775 104.484 15.2185 104.935 14.927 105.332C14.7945 105.332 14.6885 105.359 14.556 105.385C13.6285 105.597 13.072 106.392 13.2575 107.267C13.3635 107.691 13.92 107.85 14.291 107.664C14.715 107.452 15.086 107.187 15.404 106.869C15.51 106.922 15.563 106.949 15.5895 106.949C15.828 107.108 16.0135 107.346 16.199 107.532C16.57 107.929 17.206 107.664 17.3915 107.24C17.63 106.631 18.107 106.233 18.7165 106.021C18.8225 105.995 18.9285 105.968 19.0345 105.942C19.0875 105.915 19.1405 105.889 19.1935 105.889C19.909 105.544 19.3525 104.484 18.6105 104.643Z" fill="#F7D16F"/>
<path d="M14.5825 69.0009C14.397 69.1334 14.2115 69.2129 13.9995 69.2394L13.8935 68.4179C13.867 68.1794 13.7345 68.0204 13.549 67.9144C13.549 67.6229 13.496 67.3314 13.4165 67.0399C13.1515 66.2184 11.8 66.5629 12.065 67.3844C12.4095 68.5504 11.747 69.6634 10.634 70.0609C10.4485 70.0874 10.2895 70.1404 10.104 70.1934C9.25604 70.5114 9.57404 71.5979 10.475 71.4654C10.634 71.4389 10.793 71.4124 10.952 71.3594C11.7735 71.2799 12.648 71.6774 12.9395 72.4194C12.966 72.5784 12.9925 72.7639 13.0455 72.9494C13.2575 73.6384 14.5295 73.5324 14.4235 72.7639C14.4235 72.7109 14.397 72.6579 14.397 72.5784C14.397 72.5519 14.3705 72.4989 14.3705 72.4724C14.3705 72.4459 14.344 72.3929 14.344 72.3664C14.1585 71.4919 14.4765 70.6704 15.2715 70.1139C16.0135 69.6634 15.351 68.5504 14.5825 69.0009Z" fill="#F7D16F"/>
<path d="M17.0468 42.5539C16.9143 42.6599 16.8083 42.7924 16.7023 42.9249C16.5433 42.9779 16.3578 42.9249 16.1988 42.7924C16.2783 42.6334 16.2783 42.4479 16.1988 42.2624C16.1458 42.1564 16.1193 42.0504 16.0663 41.9709C16.1458 41.2289 15.9603 40.4604 15.5098 39.7979C15.0328 39.0824 13.8138 39.7449 14.2908 40.4604C14.3173 40.5134 14.3438 40.5664 14.3703 40.6194C14.2378 40.7254 14.1583 40.8844 14.1583 41.0699C14.1848 41.5734 14.2643 42.1299 14.4233 42.6334C14.3173 42.8189 14.2113 43.0044 14.0523 43.1634C13.6548 43.2959 13.2838 43.5609 13.0453 43.9584C12.6478 44.5414 13.4163 45.1509 13.9993 44.8594C14.2908 44.7269 14.5558 44.5414 14.8208 44.3294C15.3773 44.3824 16.0398 45.1774 16.2783 45.4689C16.7288 46.0519 17.7623 45.7339 17.5768 44.9654C17.4708 44.5679 17.5238 44.2234 17.7358 43.9054C17.9213 43.7729 18.0803 43.6139 18.1863 43.4019C18.5308 42.6864 17.6563 42.0504 17.0468 42.5539Z" fill="#F7D16F"/>
<path d="M65.8336 10.8864C65.3566 10.8864 64.9061 10.8864 64.4291 10.8864C64.3496 10.6479 64.2966 10.3829 64.2171 10.1444C64.2436 9.79989 64.2171 9.45539 64.1641 9.11089C64.0051 8.26289 62.6536 8.63389 62.8126 9.45539C62.8126 9.50839 62.8391 9.58789 62.8391 9.64089C62.7596 9.77339 62.7331 9.93239 62.7861 10.1179C62.8126 10.1709 62.8126 10.2239 62.8391 10.3034C62.7331 11.0189 62.2826 11.6814 61.6201 12.1054C61.5671 12.1319 61.5406 12.1584 61.4876 12.1849C61.4346 12.2114 61.3816 12.2379 61.3286 12.2909C60.6926 12.7679 61.5141 13.7219 62.1766 13.3244C62.3091 13.2449 62.4416 13.1654 62.5476 13.0859C63.2896 12.7149 64.2966 13.0329 64.6941 13.7219C65.0916 14.3579 66.2311 13.9339 65.9926 13.2184C65.8336 12.7414 65.9396 12.3439 66.3371 11.9994C66.7876 11.6284 66.4166 10.8864 65.8336 10.8864Z" fill="#F7D16F"/>
<path d="M54.7829 55.2474C54.6769 54.9824 54.4384 54.7969 54.0939 54.7969C53.0604 54.7969 53.0604 56.3869 54.0939 56.3869C54.1999 56.3869 54.2794 56.3604 54.3589 56.3339C54.5179 56.3074 54.6504 56.2544 54.7564 56.1484C55.0214 55.9099 55.0479 55.5124 54.7829 55.2474Z" fill="#57455E"/>
<path d="M59.5531 54.5584C58.5196 54.5584 58.5196 56.1484 59.5531 56.1484C60.5866 56.1484 60.5866 54.5584 59.5531 54.5584Z" fill="#57455E"/>
<path d="M60.0301 81.2969L56.5851 81.7209C55.5781 81.8534 55.5781 83.4434 56.5851 83.3109L60.0301 82.8869C61.0371 82.7544 61.0371 81.1644 60.0301 81.2969Z" fill="#57455E"/>
<path d="M59.5531 77.6134C58.5461 77.6399 57.5126 77.6929 56.5056 77.7194C55.4721 77.7459 55.4721 79.3359 56.5056 79.3094C57.5126 79.2829 58.5461 79.2299 59.5531 79.2034C60.5866 79.1769 60.5866 77.5869 59.5531 77.6134Z" fill="#57455E"/>
<path d="M59.712 73.9034C58.758 73.9034 57.804 73.9829 56.85 74.1419C55.843 74.3009 56.267 75.8379 57.274 75.6789C58.0955 75.5464 58.8905 75.4934 59.712 75.4934C60.7455 75.4934 60.7455 73.9034 59.712 73.9034Z" fill="#57455E"/>
<path d="M59.4205 70.1139C58.5725 70.2994 57.698 70.3789 56.8235 70.4054C55.79 70.4319 55.79 72.0219 56.8235 71.9954C57.8305 71.9689 58.8375 71.8364 59.8445 71.6244C60.8515 71.4389 60.4275 69.9019 59.4205 70.1139Z" fill="#57455E"/>
<path d="M58.6521 57.2084C58.0956 56.7314 57.3801 55.7774 56.5586 56.1749C55.8961 56.4929 55.4721 57.3409 55.2336 58.0034C55.1011 58.4009 55.3926 58.8779 55.7901 58.9839C56.2406 59.1164 56.6116 58.8249 56.7706 58.4274C56.8236 58.2419 56.9296 58.0829 57.0356 57.9239L57.0621 57.9504C57.2211 58.0829 57.3801 58.2154 57.5391 58.3479C58.3076 58.9839 59.4206 57.8709 58.6521 57.2084Z" fill="#57455E"/>
<path d="M53.5375 56.9434C52.822 56.5989 52.1595 56.2014 51.5235 55.7509C51.179 55.5124 50.649 55.6979 50.437 56.0424C50.1985 56.4399 50.3575 56.8904 50.7285 57.1289C51.3645 57.5794 52.0535 57.9769 52.7425 58.3214C53.14 58.5069 53.5905 58.4274 53.829 58.0299C54.041 57.6854 53.935 57.1289 53.5375 56.9434Z" fill="#57455E"/>
<path d="M63.0245 55.1944C62.7065 54.8764 62.2295 54.9029 61.9115 55.1944C61.4345 55.5919 60.9575 56.0159 60.4805 56.4134C60.1625 56.7049 60.189 57.2614 60.4805 57.5264C60.7985 57.8444 61.2755 57.8179 61.5935 57.5264C62.0705 57.1289 62.5475 56.7049 63.0245 56.3074C63.3425 56.0424 63.316 55.4859 63.0245 55.1944Z" fill="#57455E"/>
<path d="M60.2685 51.6964L60.1625 51.0869C60.136 50.9014 59.9505 50.6894 59.7915 50.6099C59.6325 50.5039 59.3675 50.4774 59.182 50.5304C58.9965 50.5834 58.811 50.7159 58.705 50.9014C58.599 51.1134 58.599 51.2989 58.6255 51.5109L58.7315 52.1204C58.758 52.3059 58.9435 52.5179 59.1025 52.5974C59.2615 52.7034 59.5265 52.7299 59.712 52.6769C59.8975 52.6239 60.083 52.4914 60.189 52.3059C60.295 52.1204 60.295 51.9349 60.2685 51.6964Z" fill="#57455E"/>
<path d="M53.6169 50.0269C53.1929 50.0534 52.8219 50.3714 52.8219 50.8219V51.9879C52.8219 52.4119 53.1929 52.8094 53.6169 52.7829C54.0409 52.7564 54.4119 52.4384 54.4119 51.9879V50.8219C54.4119 50.3979 54.0409 50.0004 53.6169 50.0269Z" fill="#57455E"/>
<path d="M45.6405 74.0624C45.561 72.9229 45.6405 71.4919 45.2165 70.4319C44.872 69.5839 43.971 69.3189 43.1495 69.0539C41.904 68.6564 40.632 68.4709 39.3335 68.4444C38.3 68.4179 38.3 70.0079 39.3335 70.0344C40.261 70.0609 41.162 70.1669 42.063 70.4054C42.381 70.4849 42.8845 70.5379 43.1495 70.7499C43.918 71.2799 43.865 72.0219 43.9445 72.7904C44.1035 74.6984 44.2095 76.6064 44.2095 78.5409C44.2095 79.4154 44.183 80.2899 44.1565 81.1644C44.13 82.1184 44.236 83.3639 43.971 84.2914C43.812 84.8214 43.918 84.9804 43.282 85.1129C42.911 85.1924 42.434 85.1129 42.0365 85.1129C41.056 85.1129 40.049 85.1129 39.0685 85.1129C38.035 85.1129 38.035 86.7029 39.0685 86.7029C40.473 86.7029 41.8775 86.7029 43.2555 86.7029C43.9975 86.7029 44.713 86.6234 45.1635 85.9609C45.72 85.1129 45.5875 83.7084 45.667 82.7279C45.7465 81.2439 45.7995 79.7599 45.7995 78.3024C45.7995 76.8449 45.7465 75.4669 45.6405 74.0624Z" fill="#57455E"/>
<path d="M77.9175 80.0514C76.99 80.2369 76.036 80.4224 75.1085 80.6079C75.0025 80.6344 74.075 80.8729 74.0485 81.0319C73.916 80.8199 73.8365 80.0249 73.81 79.8924C73.386 77.9579 73.3595 75.9704 73.3595 74.0094C73.3595 72.2074 73.439 70.3789 73.333 68.5504C73.28 67.4109 72.9355 66.4834 73.9425 65.7149C74.711 65.1319 75.8505 64.7874 76.6985 64.3369C77.626 63.8864 76.8045 62.5084 75.9035 62.9589C74.287 63.7539 71.531 64.4164 71.584 66.6424C71.6105 67.9144 71.796 69.2129 71.796 70.4849C71.796 71.8894 71.7695 73.2939 71.7695 74.6984C71.7695 75.9969 71.8225 77.3219 72.008 78.6204C72.1405 79.6009 72.22 80.8729 72.7235 81.7739C73.121 82.4629 73.6775 82.4629 74.393 82.3569C75.718 82.1449 77.0695 81.8269 78.368 81.5619C79.3485 81.3764 78.9245 79.8659 77.9175 80.0514Z" fill="#57455E"/>
<path d="M66.284 100.032C60.2155 101.066 54.041 100.377 48.317 98.1774C47.363 97.8064 46.939 99.3434 47.893 99.7144C53.9085 102.046 60.3745 102.656 66.708 101.569C67.715 101.41 67.291 99.8734 66.284 100.032Z" fill="#57455E"/>
<path d="M55.2068 111.533C55.0478 110.897 55.0478 110.261 55.1273 109.625C55.1803 109.201 54.7298 108.83 54.3323 108.83C53.8553 108.83 53.5903 109.201 53.5373 109.625C53.4313 110.42 53.5108 111.189 53.6698 111.957C53.9083 112.964 55.4453 112.54 55.2068 111.533Z" fill="#57455E"/>
<path d="M58.1219 115.641C58.0689 115.217 57.8039 114.846 57.3269 114.846C56.9294 114.846 56.4789 115.217 56.5319 115.641C56.5849 116.118 56.6644 116.595 56.7174 117.045C56.7704 117.469 57.0354 117.84 57.5124 117.84C57.9099 117.84 58.3604 117.469 58.3074 117.045C58.2544 116.568 58.2014 116.091 58.1219 115.641Z" fill="#57455E"/>
<path d="M61.461 109.943C61.1695 108.963 59.6325 109.387 59.924 110.367C60.083 110.897 60.1095 111.374 60.0565 111.931C60.0035 112.355 60.454 112.726 60.8514 112.726C61.3284 112.726 61.5934 112.355 61.6464 111.931C61.7259 111.242 61.6465 110.579 61.461 109.943Z" fill="#57455E"/>
<path d="M65.542 108.91C65.3035 108.539 64.8265 108.406 64.4555 108.618C64.111 108.83 63.9255 109.334 64.164 109.705C64.4025 110.049 64.482 110.42 64.376 110.844C64.111 111.825 65.648 112.249 65.913 111.268C66.125 110.473 65.9925 109.599 65.542 108.91Z" fill="#57455E"/>
<path d="M63.2365 119.298C63.1835 118.953 63.1305 118.582 63.051 118.238C62.9715 117.814 62.4415 117.549 62.0705 117.681C61.62 117.814 61.4345 118.211 61.514 118.662C61.567 119.006 61.62 119.377 61.6995 119.722C61.779 120.146 62.309 120.411 62.68 120.278C63.1305 120.146 63.316 119.748 63.2365 119.298Z" fill="#57455E"/>
<path d="M69.1194 34.6304C67.7944 31.2119 66.2309 27.8464 64.2169 24.7724C62.5209 22.2019 59.9239 19.7109 56.5849 20.1879C54.9949 20.3999 53.9349 21.3804 52.8749 22.4934C51.6559 23.7654 50.4634 25.0639 49.3504 26.4154C47.2039 29.0389 45.4019 31.9274 44.6069 35.2929C44.5274 35.6374 44.6599 35.9024 44.8719 36.0879C44.3684 36.4324 44.2889 37.3599 45.0574 37.4924C52.9279 38.8704 61.0104 38.2344 68.5629 35.6109C68.9339 35.4784 69.2784 35.0544 69.1194 34.6304Z" fill="#74A3D7"/>
<path d="M74.446 21.9899C73.4125 21.9899 73.4125 23.5799 74.446 23.5799C75.4795 23.5799 75.4795 21.9899 74.446 21.9899Z" fill="white"/>
<path d="M77.361 14.0399C76.3275 14.0399 76.3275 15.6299 77.361 15.6299C78.3945 15.6299 78.3945 14.0399 77.361 14.0399Z" fill="white"/>
<path d="M90.6107 22.7849H90.3457C89.9217 22.7849 89.5243 23.1559 89.5508 23.5799C89.5773 24.0039 89.8952 24.3749 90.3457 24.3749H90.6107C91.0347 24.3749 91.4322 24.0039 91.4057 23.5799C91.3792 23.1559 91.0612 22.7849 90.6107 22.7849Z" fill="white"/>
<path d="M98.0309 42.1299C96.9974 42.1299 96.9974 43.7199 98.0309 43.7199C99.0644 43.7199 99.0644 42.1299 98.0309 42.1299Z" fill="white"/>
<path d="M78.156 37.0949C77.1225 37.0949 77.1225 38.6849 78.156 38.6849C79.1895 38.6849 79.1895 37.0949 78.156 37.0949Z" fill="white"/>
<path d="M90.081 49.8149C89.657 49.8414 89.286 50.1594 89.286 50.6099V50.8749C89.286 51.2989 89.657 51.6964 90.081 51.6699C90.505 51.6434 90.876 51.3254 90.876 50.8749V50.6099C90.876 50.2124 90.505 49.8149 90.081 49.8149Z" fill="white"/>
<path d="M107.571 53.7899C106.537 53.7899 106.537 55.3799 107.571 55.3799C108.604 55.3799 108.604 53.7899 107.571 53.7899Z" fill="white"/>
<path d="M100.681 74.7249C99.6475 74.7249 99.6475 76.3149 100.681 76.3149C101.714 76.3149 101.714 74.7249 100.681 74.7249Z" fill="white"/>
<path d="M98.5609 94.5999C97.5275 94.5999 97.5275 96.1899 98.5609 96.1899C99.5944 96.1899 99.5944 94.5999 98.5609 94.5999Z" fill="white"/>
<path d="M76.8308 98.3099H76.5658C76.1418 98.3099 75.7443 98.6809 75.7708 99.1049C75.7973 99.5289 76.1153 99.8999 76.5658 99.8999H76.8308C77.2548 99.8999 77.6523 99.5289 77.6258 99.1049C77.5993 98.6809 77.2813 98.3099 76.8308 98.3099Z" fill="white"/>
<path d="M89.2859 108.38C88.2524 108.38 88.2524 109.97 89.2859 109.97C90.3194 109.97 90.3194 108.38 89.2859 108.38Z" fill="white"/>
<path d="M21.711 112.09C20.6775 112.09 20.6775 113.68 21.711 113.68C22.7445 113.68 22.7445 112.09 21.711 112.09Z" fill="white"/>
<path d="M44.501 98.5749C43.4675 98.5749 43.4675 100.165 44.501 100.165C45.5345 100.165 45.5345 98.5749 44.501 98.5749Z" fill="white"/>
<path d="M45.031 106.525C43.9975 106.525 43.9975 108.115 45.031 108.115C46.0645 108.115 46.0645 106.525 45.031 106.525Z" fill="white"/>
<path d="M10.051 89.8299C9.01747 89.8299 9.01747 91.4199 10.051 91.4199C11.0845 91.4199 11.0845 89.8299 10.051 89.8299Z" fill="white"/>
<path d="M23.831 71.0149C22.7975 71.0149 22.7975 72.6049 23.831 72.6049C24.8645 72.6049 24.8645 71.0149 23.831 71.0149Z" fill="white"/>
<path d="M11.376 53.2599C10.3425 53.2599 10.3425 54.8499 11.376 54.8499C12.4095 54.8499 12.4095 53.2599 11.376 53.2599Z" fill="white"/>
<path d="M33.106 46.8999C32.0725 46.8999 32.0725 48.4899 33.106 48.4899C34.1395 48.4899 34.1395 46.8999 33.106 46.8999Z" fill="white"/>
<path d="M22.241 32.0599C21.2075 32.0599 21.2075 33.6499 22.241 33.6499C23.2745 33.6499 23.2745 32.0599 22.241 32.0599Z" fill="white"/>
<path d="M39.996 30.7349C38.9625 30.7349 38.9625 32.3249 39.996 32.3249C41.0295 32.3249 41.0295 30.7349 39.996 30.7349Z" fill="white"/>
<path d="M45.561 16.6899C44.5275 16.6899 44.5275 18.2799 45.561 18.2799C46.5945 18.2799 46.5945 16.6899 45.561 16.6899Z" fill="white"/>
<path d="M50.066 6.0899C49.0325 6.0899 49.0325 7.6799 50.066 7.6799C51.0995 7.6799 51.0995 6.0899 50.066 6.0899Z" fill="white"/>
<path d="M24.361 49.8149C23.937 49.8414 23.566 50.1594 23.566 50.6099V50.8749C23.566 51.2989 23.937 51.6964 24.361 51.6699C24.785 51.6434 25.156 51.3254 25.156 50.8749V50.6099C25.156 50.2124 24.785 49.8149 24.361 49.8149Z" fill="white"/>
<path d="M16.4111 83.9999C15.9871 84.0264 15.6161 84.3444 15.6161 84.7949V85.0599C15.6161 85.4839 15.9871 85.8814 16.4111 85.8549C16.8351 85.8284 17.2061 85.5104 17.2061 85.0599V84.7949C17.2061 84.3974 16.8351 83.9999 16.4111 83.9999Z" fill="white"/>
<path d="M41.7979 125.817C40.3934 124.783 39.3334 123.432 38.6444 121.842C38.6444 121.762 38.6709 121.656 38.6709 121.55C38.6179 119.059 35.5704 119.589 34.0599 119.987C32.5759 120.384 29.2104 120.888 29.7934 123.114C29.6609 123.246 29.5284 123.379 29.3959 123.538C28.2299 124.889 27.0374 126.241 25.8714 127.619C25.2089 128.387 26.3219 129.527 26.9844 128.732C27.9914 127.566 28.9984 126.4 30.0054 125.234C30.4294 124.73 30.8534 124.015 31.4629 123.803C32.1519 123.564 33.1059 123.67 33.8479 123.644C34.7489 123.591 36.4184 123.697 37.5314 123.22C38.3529 124.81 39.5189 126.135 40.9764 127.195C41.8244 127.804 42.6194 126.426 41.7979 125.817ZM36.3919 121.895C36.1534 122.001 35.6764 121.948 35.4379 121.948C34.4574 122.001 33.5034 122.027 32.5229 122.08C32.4434 122.08 32.3639 122.08 32.2844 122.08C33.3974 121.603 35.2259 121.259 35.6234 121.179C36.3654 120.808 36.7364 120.914 36.6834 121.471C36.8159 121.815 36.7099 121.948 36.3919 121.895Z" fill="#57455E"/>
<path d="M88.3848 121.047C87.2453 120.755 86.0793 120.49 84.9398 120.199C84.7808 120.146 84.6218 120.172 84.4893 120.225C83.4558 120.066 82.3693 120.013 81.5478 120.755C80.8588 121.365 80.5408 122.531 81.0178 123.352C81.6538 124.492 83.1908 124.28 84.2773 124.147C85.8143 123.935 87.2718 123.352 88.5703 122.504C89.1003 122.133 89.0738 121.206 88.3848 121.047ZM83.9593 122.584C83.5353 122.637 82.1308 122.875 82.4753 122.133C82.7933 121.418 84.1183 121.762 84.7013 121.868C84.8338 121.895 84.9398 121.895 85.0723 121.868C85.3638 121.948 85.6553 122.001 85.9468 122.08C85.2843 122.319 84.6483 122.478 83.9593 122.584Z" fill="#57455E"/>
<path d="M79.0569 115.906C77.9704 115.8 76.8574 115.667 75.7709 115.561C74.7639 115.455 74.7639 117.045 75.7709 117.151C76.8574 117.257 77.9704 117.39 79.0569 117.496C80.0639 117.602 80.0639 116.012 79.0569 115.906Z" fill="#57455E"/>
<path d="M50.3043 123.432H48.5023C47.4688 123.432 47.4688 125.022 48.5023 125.022H50.3043C51.3113 125.022 51.3113 123.432 50.3043 123.432Z" fill="#57455E"/>
<path d="M73.0414 125.446C71.8489 125.578 70.6564 125.684 69.4639 125.817C68.4569 125.923 68.4569 127.513 69.4639 127.407C70.6564 127.274 71.8489 127.168 73.0414 127.036C74.0484 126.93 74.0749 125.34 73.0414 125.446Z" fill="#57455E"/>
<path d="M44.3156 114.13C43.2291 114.077 42.1956 114.342 41.2151 114.846C40.3141 115.323 41.1091 116.701 42.0101 116.224C42.7256 115.853 43.4941 115.694 44.2891 115.72C45.3226 115.747 45.3226 114.157 44.3156 114.13Z" fill="#57455E"/>
</svg>
