<svg width="228" height="162" viewBox="0 0 228 162" fill="none" xmlns="http://www.w3.org/2000/svg">
<path d="M226.041 78.355C222.635 61.0736 214.73 43.8342 200.518 30.2949C187.736 18.1012 170.328 9.10308 151.365 4.30969C110.579 -6.076 62.897 2.75393 31.6979 26.0061C16.8552 37.0645 6.1752 51.5288 1.97047 67.3807C-2.40245 83.7371 0.498806 100.85 10.7163 115.525C13.1971 119.057 16.0984 122.379 19.294 125.532C19.6303 125.868 20.0508 125.953 20.4292 125.911C20.4713 126.121 20.5974 126.373 20.9338 126.541C29.2171 131.881 39.3505 134.488 49.568 136.464C61.0469 138.651 72.652 140.333 84.3412 141.594C108.056 144.075 132.107 144.622 155.948 143.108C167.595 142.393 179.242 141.174 190.763 139.534C196.692 138.693 202.578 137.684 208.423 136.591C212.88 135.75 218.682 135.245 221.415 131.881C222.593 130.41 223.139 128.686 223.644 127.004C224.359 124.649 224.989 122.252 225.536 119.898C226.587 115.273 227.302 110.563 227.723 105.854C228.395 96.6876 227.849 87.4372 226.041 78.355Z" fill="#112A62"/>
<path d="M177.266 86.0076C177.097 82.7279 176.887 79.4903 176.593 76.2106C176.298 73.0991 175.92 70.0296 175.5 66.9602C175.121 64.3532 175.037 61.2418 173.818 58.803C171.337 53.7994 165.661 55.9438 162.129 58.3405C161.582 58.6769 161.498 59.2655 161.624 59.7281C161.33 59.9803 161.246 60.4008 161.414 60.8633C166.291 72.5104 167.342 85.3769 164.399 97.6547C164.231 98.4116 164.778 99.2946 165.618 99.2525C169.949 99.1264 174.995 98.4116 176.719 93.7443C177.602 91.3056 177.392 88.5725 177.266 86.0076Z" fill="#EF86B0"/>
<path d="M187.105 54.8506C185.086 50.5197 181.302 46.8616 177.139 44.549C172.052 41.7318 166.543 42.4046 161.035 43.3296C160.026 43.4978 159.942 44.549 160.405 45.1797C160.489 45.7263 160.867 46.1888 161.582 46.1468C169.445 45.6422 178.064 45.7263 182.774 53.1687C186.894 59.644 184.96 70.6183 175.836 71.0388C174.995 71.0808 174.448 71.7956 174.617 72.6366C174.701 73.1412 174.827 73.6457 174.911 74.1923C175.037 74.8651 175.836 75.2435 176.467 75.0753C181.092 73.9401 185.255 72.2161 187.357 67.633C189.291 63.5123 188.997 58.8871 187.105 54.8506Z" fill="#57455D"/>
<path d="M222.761 132.512C219.818 127.761 214.267 123.64 208.549 120.318C202.957 117.039 196.607 114.39 189.754 112.498C184.414 110.984 178.906 110.059 173.271 109.386C158.681 106.106 143.165 104.719 127.776 105.349C109.864 104.845 91.8676 105.434 74.1236 107.115C65.1255 107.956 56.1694 109.134 47.2974 110.521C39.5607 111.783 31.6138 113.254 24.9703 116.366C18.6212 119.351 13.7857 123.556 9.53893 127.845C5.3342 132.092 1.84428 137.179 4.49326 142.351C9.87531 152.779 29.8898 154.881 43.7654 156.857C78.8329 161.903 115.12 162.576 150.734 159.843C159.438 159.17 168.057 158.329 176.677 157.278C185.297 156.227 194.127 155.218 202.536 153.494C209.474 152.064 216.159 149.793 220.532 145.757C224.821 141.847 225.578 137.053 222.761 132.512Z" fill="#C8D8F9"/>
<path d="M196.65 79.3221C196.229 79.2801 195.851 79.3221 195.473 79.3642C194.379 79.1539 193.58 78.1448 193.791 76.9254C193.917 76.1686 193.412 75.622 192.824 75.4538C192.193 74.9492 191.142 74.9912 190.973 76.0004C190.679 77.6823 189.88 79.0278 188.409 79.9108C187.273 80.6256 187.988 82.5598 189.334 82.1393C190.175 81.887 191.268 82.3075 191.352 83.3166C191.478 84.6201 193.328 85.0406 193.749 83.653C194.043 82.6018 194.8 81.9711 195.767 81.7609C196.187 81.7609 196.608 81.7609 197.028 81.6768C198.416 81.4245 197.911 79.4062 196.65 79.3221Z" fill="#F7D06F"/>
<path d="M76.2678 94.1227C76.0576 94.0807 75.8474 94.0807 75.6371 94.0807C74.2496 93.8705 73.5348 92.609 74.0393 91.1374C74.3337 90.2544 73.6609 89.7078 72.9461 89.6657C72.1472 89.2032 70.8437 89.876 71.1381 91.0533C71.4324 92.3988 70.7597 93.6602 69.6664 94.2909C69.288 94.375 68.9096 94.5012 68.5311 94.7535C67.3538 95.4683 68.1107 97.2763 69.4562 96.982C69.7505 96.8979 70.0448 96.8138 70.2971 96.6876C71.054 96.7297 71.6426 97.7809 72.0211 98.3695C72.5256 99.1684 74.0814 99.1684 74.2496 98.0752C74.3757 97.1501 74.9223 96.6456 75.7212 96.5615C75.9315 96.5615 76.1417 96.5615 76.3519 96.5615C77.8656 96.4354 77.7815 94.333 76.2678 94.1227Z" fill="#F7D06F"/>
<path d="M53.7727 40.8067C52.0908 40.6386 50.5771 39.7976 49.5259 38.4521C48.727 37.4009 47.0031 37.9475 47.2974 39.3771C47.3395 39.4612 47.3395 39.5874 47.3815 39.6715C47.2974 40.176 47.0451 40.5965 46.7088 40.8908C46.078 41.017 45.4894 41.3113 44.8587 41.8159C43.8495 42.6568 44.9848 44.0444 46.036 43.8341C46.6247 43.708 47.1713 43.4978 47.6758 43.2034C48.727 43.4137 49.6941 44.9694 50.1566 45.6842C50.8294 46.7775 52.3011 46.2308 52.4272 45.0535C52.5113 44.0444 53.184 43.3716 54.1511 43.1193C55.4966 42.825 55.0762 40.9329 53.7727 40.8067ZM50.4089 42.2784C50.5771 42.3625 50.7453 42.4466 50.9555 42.5307C50.9135 42.5727 50.8714 42.6148 50.8294 42.6989C50.7033 42.5307 50.5771 42.4045 50.4089 42.2784Z" fill="#F7D06F"/>
<path d="M130.173 25.7959C129.71 25.88 128.028 25.5436 128.827 24.7447C129.668 23.9037 128.869 22.7264 127.986 22.6844C127.313 22.1377 126.01 22.4321 125.968 23.6094C125.926 24.9129 125.295 25.922 124.328 26.5948C124.076 26.6789 123.865 26.805 123.655 26.9732C122.352 27.8982 123.445 29.7063 124.875 29.0755C125.085 28.9915 125.253 28.9074 125.463 28.7812C126.43 28.4448 127.355 29.0335 127.524 30.2108C127.776 31.7666 130.088 31.0938 129.878 29.5801C129.794 28.9074 130.299 28.3607 130.887 28.1926C132.317 27.688 131.644 25.5856 130.173 25.7959Z" fill="#F7D06F"/>
<path d="M117.559 75.6219C116.171 75.7901 115.036 74.8651 114.868 73.6037C114.91 73.3934 114.952 73.1832 114.952 72.9309C114.994 72.2161 114.573 71.8377 114.027 71.7956C113.354 71.6695 112.513 72.0479 112.429 72.9309C112.387 73.1411 112.387 73.3934 112.429 73.6037C112.177 74.6969 111.504 75.6219 110.537 76.2526C109.233 77.0936 110.411 79.1119 111.756 78.355C112.891 77.7243 113.858 78.4391 113.816 79.6585C113.732 81.2142 116.129 81.2142 116.255 79.6585C116.339 78.6914 117.012 78.1448 117.937 77.9766C119.241 77.7663 118.946 75.4537 117.559 75.6219Z" fill="#F7D06F"/>
<path d="M119.493 41.4375C117.937 41.4375 117.937 43.8762 119.493 43.8762C121.049 43.8762 121.049 41.4375 119.493 41.4375Z" fill="white"/>
<path d="M190.132 89.7078C188.576 89.7078 188.576 92.1465 190.132 92.1465C191.688 92.1465 191.688 89.7078 190.132 89.7078Z" fill="white"/>
<path d="M103.178 9.85986H102.926C102.295 9.85986 101.665 10.4065 101.707 11.0792C101.749 11.752 102.253 12.2986 102.926 12.2986H103.178C103.809 12.2986 104.44 11.752 104.398 11.0792C104.356 10.4065 103.851 9.85986 103.178 9.85986Z" fill="white"/>
<path d="M121.889 55.4393C121.216 55.4813 120.67 55.9859 120.67 56.6586V56.9109C120.67 57.5416 121.216 58.1723 121.889 58.1303C122.562 58.0882 123.108 57.5837 123.108 56.9109V56.6586C123.108 55.9859 122.562 55.3972 121.889 55.4393Z" fill="white"/>
<path d="M146.403 22.3901C146.319 22.306 146.235 22.2219 146.151 22.1378C145.688 21.6753 144.889 21.6753 144.427 22.1378C143.964 22.6424 143.964 23.3572 144.427 23.8617L144.679 24.114C145.142 24.5765 145.941 24.5765 146.403 24.114C146.824 23.6515 146.866 22.8946 146.403 22.3901Z" fill="white"/>
<path d="M140.727 48.6276C139.171 48.6276 139.171 51.0663 140.727 51.0663C142.324 51.0243 142.324 48.6276 140.727 48.6276Z" fill="white"/>
<path d="M115.498 19.3627C113.942 19.3627 113.942 21.8014 115.498 21.8014C117.096 21.8014 117.096 19.3627 115.498 19.3627Z" fill="white"/>
<path d="M79.0011 14.4011C78.917 14.317 78.8329 14.2329 78.7488 14.1488C78.2863 13.6862 77.4874 13.6862 77.0249 14.1488C76.5623 14.6533 76.5623 15.3681 77.0249 15.8727C77.109 15.9568 77.1931 16.0409 77.2772 16.125C77.7397 16.5875 78.5386 16.5875 79.0011 16.125C79.4636 15.6625 79.5057 14.9056 79.0011 14.4011Z" fill="white"/>
<path d="M70.0447 37.1066C68.4889 37.1066 68.4889 39.5453 70.0447 39.5453C71.6004 39.5453 71.6004 37.1066 70.0447 37.1066Z" fill="white"/>
<path d="M37.3323 60.4008C36.8277 59.9383 36.1129 59.9383 35.6083 60.4008C35.5242 60.4849 35.4401 60.569 35.356 60.6531C34.8935 61.1157 34.8935 61.9145 35.356 62.3771C35.8606 62.8396 36.5754 62.8396 37.08 62.3771L37.3323 62.1248C37.7948 61.6623 37.8368 60.8213 37.3323 60.4008Z" fill="white"/>
<path d="M70.0451 56.5325C69.3724 56.5746 68.8257 57.0791 68.8257 57.7519V58.0042C68.8257 58.6349 69.3724 59.2656 70.0451 59.2235C70.7179 59.1815 71.2645 58.6769 71.2645 58.0042V57.7519C71.2645 57.1212 70.7179 56.4905 70.0451 56.5325Z" fill="white"/>
<path d="M49.7359 99.1685C48.1801 99.1685 48.1801 101.607 49.7359 101.607C51.2916 101.607 51.2916 99.1685 49.7359 99.1685Z" fill="white"/>
<path d="M36.3651 82.77C34.8093 82.77 34.8093 85.2088 36.3651 85.2088C37.9208 85.2088 37.9208 82.77 36.3651 82.77Z" fill="white"/>
<path d="M118.063 120.36C116.255 120.444 114.405 120.486 112.597 120.571C110.999 120.613 110.957 123.135 112.597 123.093C114.405 123.009 116.255 122.967 118.063 122.883C119.703 122.799 119.703 120.276 118.063 120.36Z" fill="#57455D"/>
<path d="M208.212 125.658C208.086 125.364 207.834 125.154 207.414 125.07C205.437 124.733 202.116 124.355 200.728 126.289C199.383 128.181 201.022 130.368 202.999 130.788C204.933 131.208 207.708 130.578 209.011 129.022C210.147 127.719 209.474 126.205 208.212 125.658ZM205.353 128.223C204.765 128.349 203.882 128.517 203.293 128.265C202.242 127.803 203.545 127.466 204.05 127.424C204.765 127.34 205.479 127.382 206.194 127.466C206.278 127.592 206.404 127.719 206.573 127.803C206.531 127.803 206.531 127.845 206.489 127.845C206.11 127.971 205.774 128.139 205.353 128.223Z" fill="#57455D"/>
<path d="M163.726 140.669H161.203C159.564 140.669 159.564 143.192 161.203 143.192H163.726C165.324 143.192 165.324 140.669 163.726 140.669Z" fill="#57455D"/>
<path d="M182.732 144.453C181.723 144.075 180.545 144.075 179.494 144.453C178.863 144.664 178.443 145.336 178.611 146.009C178.779 146.64 179.494 147.102 180.167 146.892C180.84 146.682 181.386 146.682 182.059 146.892C182.69 147.102 183.447 146.64 183.615 146.009C183.825 145.294 183.362 144.664 182.732 144.453Z" fill="#57455D"/>
<path d="M109.57 144.664C109.359 144.411 109.065 144.243 108.687 144.243C106.374 144.117 102.59 143.907 101.328 146.303C100.109 148.574 102.464 150.508 104.524 150.929C106.626 151.349 109.906 150.971 111.336 149.163C112.765 147.313 111.336 145.42 109.57 144.664ZM109.107 147.775C108.939 148.111 108.056 148.238 107.762 148.364C106.795 148.658 105.617 148.742 104.65 148.406C103.094 147.901 103.767 147.102 105.071 146.85C105.954 146.682 106.879 146.682 107.762 146.724C107.888 146.766 107.972 146.85 108.14 146.892C108.476 146.892 108.771 147.018 108.981 147.271C109.444 147.397 109.486 147.565 109.107 147.775Z" fill="#57455D"/>
<path d="M81.2299 142.099C81.0196 141.384 80.3469 141.09 79.6741 141.216C78.3286 141.426 77.0251 141.678 75.6796 141.889C75.0069 142.015 74.6284 142.814 74.7966 143.444C75.0069 144.159 75.6796 144.453 76.3524 144.327C77.6979 144.117 79.0014 143.865 80.3469 143.655C81.0196 143.528 81.3981 142.687 81.2299 142.099Z" fill="#57455D"/>
<path d="M88.6718 110.521C87.4945 110.437 86.2751 110.395 85.0978 110.311C83.4579 110.227 83.5 112.75 85.0978 112.834C86.2751 112.918 87.4945 112.96 88.6718 113.044C90.2696 113.128 90.2696 110.605 88.6718 110.521Z" fill="#57455D"/>
<path d="M44.6062 122.336C44.396 121.622 43.7232 121.369 43.0505 121.453C42.63 121.496 42.1254 121.453 41.6209 121.285C40.9902 121.075 40.2333 121.538 40.0651 122.168C39.8969 122.841 40.2754 123.514 40.9481 123.724C41.8732 124.018 42.7982 124.018 43.7232 123.892C44.396 123.808 44.7744 122.925 44.6062 122.336Z" fill="#57455D"/>
<path d="M35.1458 139.408C33.6321 139.282 32.1605 139.155 30.6468 139.029C29.049 138.903 29.049 141.426 30.6468 141.552C32.1605 141.678 33.6321 141.804 35.1458 141.931C36.7436 142.057 36.7436 139.534 35.1458 139.408Z" fill="#57455D"/>
<path d="M200.813 139.912C199.551 139.87 198.332 139.996 197.112 140.291C195.515 140.669 196.187 143.066 197.785 142.729C198.794 142.519 199.761 142.435 200.813 142.435C202.41 142.477 202.41 139.954 200.813 139.912Z" fill="#57455D"/>
<path d="M140.264 146.556C139.129 146.43 138.036 146.303 136.9 146.177C136.228 146.093 135.639 146.808 135.639 147.439C135.639 148.196 136.228 148.616 136.9 148.7C138.036 148.826 139.129 148.952 140.264 149.079C140.937 149.163 141.526 148.448 141.526 147.817C141.526 147.06 140.979 146.64 140.264 146.556Z" fill="#57455D"/>
<path d="M58.2295 141.51H54.8657C53.2259 141.51 53.2259 144.033 54.8657 144.033H58.2295C59.8273 144.033 59.8273 141.51 58.2295 141.51Z" fill="#57455D"/>
<path d="M27.9978 127.887C26.7784 128.181 25.559 128.433 24.3396 128.728C22.7418 129.064 23.4146 131.503 25.0124 131.166C26.2318 130.872 27.4511 130.62 28.6705 130.325C30.2263 129.989 29.5535 127.55 27.9978 127.887Z" fill="#57455D"/>
<path d="M130.089 12.2986C129.416 12.3407 128.827 12.8452 128.827 13.56V13.8964C128.827 14.5692 129.416 15.1999 130.089 15.1578C130.762 15.1158 131.35 14.6112 131.35 13.8964V13.56C131.35 12.8873 130.762 12.2566 130.089 12.2986Z" fill="white"/>
<path d="M211.24 95.5945H210.104C209.978 95.1319 209.852 94.6274 209.642 94.1649C209.39 93.5341 208.801 93.1137 208.086 93.2819C207.498 93.45 206.951 94.2069 207.203 94.8376C207.287 95.0899 207.371 95.3422 207.456 95.5945H206.11C204.47 95.5945 204.47 98.1173 206.11 98.1173H207.834C207.834 98.3696 207.834 98.6639 207.792 98.9162C207.708 99.589 207.96 100.262 208.675 100.472C209.264 100.64 210.147 100.262 210.231 99.589C210.315 99.0844 210.357 98.5798 210.357 98.1173H211.24C212.88 98.1173 212.88 95.5945 211.24 95.5945Z" fill="#F7D06F"/>
<path d="M190.342 35.677C189.796 35.719 189.249 35.719 188.703 35.719C188.618 35.2145 188.576 34.7519 188.492 34.2474C188.408 33.5746 187.525 33.1962 186.937 33.3644C186.222 33.5746 185.969 34.2474 186.054 34.9201L186.138 35.4667C185.927 35.4247 185.759 35.4247 185.549 35.3826C183.951 35.0463 183.278 37.485 184.876 37.8214C185.423 37.9475 185.969 38.0316 186.474 38.1157L186.768 40.0499C186.852 40.7227 187.735 41.1011 188.324 40.9329C189.039 40.7227 189.291 40.0499 189.207 39.3771C189.165 38.9987 189.123 38.6623 189.039 38.2839C189.459 38.2839 189.88 38.2839 190.3 38.2419C191.94 38.0737 191.982 35.5508 190.342 35.677Z" fill="#F7D06F"/>
<path d="M24.4654 72.0899C23.4983 72.216 22.5312 72.3842 21.5641 72.5945C21.5221 72.174 21.48 71.7115 21.438 71.291C21.2698 69.6932 18.747 69.6932 18.9152 71.291C18.9992 71.9638 19.0413 72.6365 19.1254 73.3093C18.9572 73.3513 18.8311 73.3934 18.6629 73.4774C17.1492 74.0241 17.8219 76.4628 19.3356 75.9162C19.3356 75.9162 19.3356 75.9162 19.3777 75.9162C19.4197 76.5469 19.5038 77.1776 19.5459 77.8083C19.7141 79.4061 22.2369 79.4061 22.0687 77.8083C21.9846 76.9253 21.9005 76.0423 21.8164 75.1593C22.6994 74.9491 23.5824 74.7809 24.4654 74.6548C26.0632 74.4445 26.0632 71.9217 24.4654 72.0899Z" fill="#F7D06F"/>
<path d="M31.9501 100.346C31.4455 100.346 30.9409 100.346 30.4784 100.346C30.3523 99.8412 30.2682 99.3786 30.142 98.8741C29.7636 97.2763 27.3249 97.949 27.7033 99.5468C27.7874 99.8832 27.8715 100.22 27.9556 100.598C27.5771 100.64 27.2408 100.724 26.8623 100.808C25.2645 101.145 25.9373 103.583 27.5351 103.247C27.8715 103.163 28.2079 103.121 28.5022 103.079C28.5863 103.499 28.7124 103.92 28.7965 104.34C29.1749 105.938 31.6137 105.265 31.2353 103.667C31.1932 103.415 31.1091 103.163 31.0671 102.869C31.3614 102.869 31.6557 102.869 31.9501 102.869C33.5899 102.953 33.5899 100.43 31.9501 100.346Z" fill="#F7D06F"/>
<path d="M96.8714 20.5399C95.2316 20.5399 95.2316 23.0628 96.8714 23.0628C98.5113 23.0628 98.5113 20.5399 96.8714 20.5399Z" fill="white"/>
<path d="M62.9813 22.6423C61.3414 22.6423 61.3414 25.1652 62.9813 25.1652C64.6211 25.1652 64.6211 22.6423 62.9813 22.6423Z" fill="white"/>
<path d="M29.5536 46.1467C27.9138 46.1467 27.9138 48.6696 29.5536 48.6696C31.1935 48.6696 31.1935 46.1467 29.5536 46.1467Z" fill="white"/>
<path d="M12.1878 92.5249C10.548 92.5249 10.548 95.0477 12.1878 95.0477C13.8277 95.0477 13.8277 92.5249 12.1878 92.5249Z" fill="white"/>
<path d="M202.41 51.9493C200.77 51.9493 200.77 54.4722 202.41 54.4722C204.008 54.4722 204.008 51.9493 202.41 51.9493Z" fill="white"/>
<path d="M207.834 73.7719C206.194 73.7719 206.194 76.2947 207.834 76.2947C209.474 76.2947 209.474 73.7719 207.834 73.7719Z" fill="white"/>
<path d="M195.934 102.07C195.262 102.112 194.673 102.616 194.673 103.331V103.667C194.673 104.34 195.262 104.971 195.934 104.929C196.607 104.887 197.196 104.382 197.196 103.667V103.331C197.196 102.658 196.607 102.028 195.934 102.07Z" fill="white"/>
<path d="M218.43 115.357C216.79 115.357 216.79 117.88 218.43 117.88C220.027 117.88 220.027 115.357 218.43 115.357Z" fill="white"/>
<path d="M161.498 28.1085C159.858 28.1085 159.858 30.6314 161.498 30.6314C163.096 30.6314 163.096 28.1085 161.498 28.1085Z" fill="white"/>
<path d="M128.828 67.759C127.188 67.759 127.188 70.2819 128.828 70.2819C130.467 70.2819 130.467 67.759 128.828 67.759Z" fill="white"/>
<path d="M189.711 127.508C188.87 123.766 187.651 120.192 186.053 116.702C185.086 114.558 183.783 110.185 180.881 110.227C180.503 110.227 180.125 110.311 179.746 110.395C177.476 108.125 175.205 105.097 171.799 106.401C168.604 107.62 165.492 109.134 162.423 110.605C169.361 92.0625 173.902 71.165 160.573 54.4722C159.774 53.463 158.554 54.0096 158.134 54.9767C152.878 56.4063 147.748 58.0882 142.66 60.0645C142.198 60.2326 141.904 60.569 141.735 60.9475C141.273 61.0315 140.852 61.3679 140.726 62.0407C139.591 68.8944 136.984 75.3276 132.863 80.9199C130.719 83.8632 128.154 86.3861 125.379 88.7828C122.94 90.8851 119.324 93.0716 117.768 96.0149C116.717 98.0332 117.558 100.304 119.534 101.355C121.931 102.616 124.664 101.481 126.977 100.388C126.935 100.472 126.851 100.514 126.809 100.598C125.505 102.658 126.346 105.181 128.364 106.443C129.247 106.989 130.13 107.199 131.055 107.199C129.205 109.596 127.608 112.161 126.262 114.852C124.16 119.057 122.099 123.892 122.646 128.644C123.108 132.806 125.884 136.17 129.794 137.642C133.536 139.071 137.489 138.483 141.021 136.969C147.538 138.861 155.275 137.516 161.414 135.287C168.52 132.722 174.869 128.602 181.134 124.397C182.774 126.499 184.792 128.139 187.315 129.232C188.618 129.821 190.048 128.938 189.711 127.508Z" fill="white"/>
<path d="M162.801 43.4978C161.834 40.2602 160.153 37.3589 157.461 35.2986C146.655 26.9312 129.29 35.0463 129.29 48.9219C129.29 55.7336 134.42 61.8304 141.021 63.0078C141.231 63.5544 141.778 64.059 142.493 63.9328C146.613 63.2601 150.65 62.0827 154.518 60.4429C157.63 59.0974 161.498 57.5837 163.012 54.304C164.61 51.0243 163.811 46.8196 162.801 43.4978Z" fill="#B4C7E7"/>
<path d="M151.827 44.1284C149.599 41.2272 144.553 40.0919 142.493 43.2034C135.933 48.7537 145.015 64.0168 152.29 57.5836C156.242 54.1357 154.644 47.8286 151.827 44.1284Z" fill="#F7D3BC"/>
<path d="M163.222 53.8415C162.381 51.1504 159.564 52.7482 157.84 53.421C151.491 55.8177 145.184 58.1723 138.835 60.569C137.868 60.9475 137.784 62.0407 138.246 62.6714C138.204 62.9237 138.162 63.176 138.204 63.4703C138.498 65.5306 141.274 65.1522 142.745 64.8579C145.773 64.2271 148.716 62.7555 151.575 61.6202C154.603 60.4429 157.756 59.3917 160.657 58.0462C162.297 57.2052 163.853 55.8177 163.222 53.8415Z" fill="#EF86B0"/>
<path d="M152.794 43.8341C151.112 41.8579 148.968 39.7976 146.192 39.9237C140.81 40.176 138.372 47.0297 139.086 51.6129C139.297 53.0425 140.558 56.3222 142.576 55.1028C142.576 55.7335 142.997 56.3222 143.796 56.3222C145.394 56.3222 145.436 53.8414 143.838 53.7993C144.09 53.463 144.3 53.0845 144.553 52.7482C145.394 51.8231 146.234 50.814 146.697 49.8048C147.075 49.5526 147.244 49.3423 147.159 49.1741L147.202 49.09C147.538 49.2582 147.832 49.4264 148.169 49.6367C148.841 50.0151 149.514 50.3935 150.187 50.7719C151.701 51.6129 154.938 53.7152 155.485 50.6458C155.989 48.123 154.265 45.6001 152.794 43.8341Z" fill="#57455D"/>
<path d="M149.052 51.739C147.412 51.739 147.412 54.2619 149.052 54.2619C150.692 54.2619 150.692 51.739 149.052 51.739Z" fill="#57455D"/>
<path d="M149.935 54.9347C149.599 54.346 148.8 54.0938 148.211 54.4722C147.37 55.0188 146.529 55.4813 145.646 55.9018C145.016 56.1961 144.889 57.0791 145.184 57.6257C145.562 58.2564 146.277 58.3826 146.908 58.0882C147.791 57.6678 148.674 57.2053 149.473 56.6586C150.019 56.2802 150.272 55.5234 149.935 54.9347Z" fill="#57455D"/>
<path d="M190.258 124.103C189.333 120.865 187.357 117.753 185.843 114.768C185.17 113.465 184.624 112.035 183.699 110.858C182.816 109.722 181.807 109.428 180.587 108.755C179.326 108.082 178.695 106.737 177.56 105.938C176.467 105.181 175.163 104.845 173.818 104.845C170.706 104.887 167.847 106.779 165.198 108.167C163.138 109.26 160.026 110.311 161.035 113.212C162.255 116.744 164.441 120.15 166.081 123.472C167.132 125.574 168.141 127.761 169.235 129.863C169.823 130.956 170.538 131.881 171.884 131.587C173.481 131.209 175.205 129.653 176.551 128.77C178.317 127.634 180.041 126.499 181.807 125.406C182.816 126.289 183.825 127.214 184.876 128.097C185.843 128.896 186.852 129.947 188.24 129.737C190.847 129.358 190.763 125.995 190.258 124.103Z" fill="#74A2D6"/>
<path d="M126.094 102.112C125.632 101.397 125.169 100.682 124.707 99.9673C124.16 98.9162 123.403 97.9491 122.899 97.1502C121.637 95.1319 120.208 91.1795 117.685 90.4647C116.297 90.0442 114.994 90.8431 113.733 91.3476C112.051 92.0625 110.369 92.7352 108.687 93.45C106.5 94.3751 103.347 95.2581 103.767 98.2434C104.188 101.481 106.374 105.013 107.93 107.872C109.318 110.353 110.537 113.801 113.859 112.75C118.021 111.446 122.016 109.428 125.8 107.326C126.263 107.073 126.557 106.653 126.557 106.148C127.272 105.055 126.851 103.331 126.094 102.112Z" fill="#F7D06F"/>
<path d="M72.6101 128.223C72.4839 127.382 72.3578 126.541 72.2317 125.7C72.1476 124.523 71.8532 123.346 71.685 122.379C71.3487 120.024 71.6009 115.819 69.6247 114.137C68.5315 113.212 67.0178 113.38 65.6723 113.338C63.8642 113.296 62.0562 113.254 60.2061 113.212C57.8094 113.17 54.6138 112.708 53.7729 115.609C52.8478 118.762 53.3945 122.883 53.6888 126.079C53.9411 128.896 53.6888 132.554 57.1367 132.932C61.4675 133.437 65.9666 133.185 70.2554 132.806C70.802 132.764 71.2225 132.512 71.4327 132.049C72.4839 131.419 72.7783 129.695 72.6101 128.223Z" fill="#F7D06F"/>
<path d="M90.5639 128.223C90.4377 127.382 90.3116 126.541 90.1855 125.7C90.1014 124.523 89.807 123.346 89.6388 122.379C89.3025 120.024 89.5547 115.819 87.5785 114.137C86.4853 113.212 84.9716 113.38 83.6261 113.338C81.818 113.296 80.01 113.254 78.1599 113.212C75.7632 113.17 72.5676 112.708 71.7267 115.609C70.8016 118.762 71.3483 122.883 71.6426 126.079C71.8949 128.896 71.6426 132.554 75.0905 132.932C79.4213 133.437 83.9204 133.185 88.2092 132.806C88.7558 132.764 89.1763 132.512 89.3866 132.049C90.4798 131.419 90.7741 129.695 90.5639 128.223Z" fill="#74A2D6"/>
<path d="M108.518 128.223C108.392 127.382 108.266 126.541 108.14 125.7C108.056 124.523 107.762 123.346 107.593 122.379C107.257 120.024 107.509 115.819 105.533 114.137C104.44 113.212 102.926 113.38 101.581 113.338C99.7726 113.296 97.9645 113.254 96.1144 113.212C93.7178 113.17 90.5222 112.708 89.6812 115.609C88.7562 118.762 89.3028 122.883 89.5971 126.079C89.8494 128.896 89.5971 132.554 93.045 132.932C97.3759 133.437 101.875 133.185 106.164 132.806C106.71 132.764 107.131 132.512 107.341 132.049C108.392 131.419 108.729 129.695 108.518 128.223Z" fill="#EF86B0"/>
<path d="M180.251 108.419C180.083 108.377 179.915 108.335 179.747 108.293C179.116 108.125 178.611 108.461 178.359 108.923C174.995 110.311 171.631 111.699 168.268 113.086C167.637 111.783 166.964 110.479 166.376 109.176C165.703 107.704 163.516 109.008 164.189 110.437C164.778 111.657 165.366 112.834 165.955 114.053C163.642 115.02 161.33 115.945 159.017 116.912C157.546 117.501 158.176 119.982 159.69 119.351C162.171 118.342 164.61 117.333 167.09 116.324C169.151 120.36 171.379 124.271 173.776 128.139C174.617 129.527 176.803 128.265 175.962 126.878C173.65 123.135 171.463 119.267 169.445 115.399C173.061 113.927 176.677 112.413 180.293 110.942C181.302 110.437 181.597 108.755 180.251 108.419Z" fill="#57455D"/>
<path d="M145.688 103.71C146.781 102.532 145.015 100.724 143.922 101.944C138.792 107.368 133.788 114.221 132.653 121.748C131.728 127.887 133.999 134.656 139.801 137.6C141.231 138.315 142.534 136.128 141.063 135.413C135.47 132.638 134.041 125.953 135.47 120.318C137.068 114.011 141.273 108.335 145.688 103.71Z" fill="#57455D"/>
<path d="M175.289 50.6038C173.649 50.6038 173.649 53.1266 175.289 53.1266C176.929 53.1266 176.929 50.6038 175.289 50.6038Z" fill="white"/>
<path d="M181.723 97.066C180.083 97.066 180.083 99.5889 181.723 99.5889C183.363 99.5889 183.363 97.066 181.723 97.066Z" fill="white"/>
<path d="M172.977 26.9312C171.337 26.9312 171.337 29.454 172.977 29.454C174.575 29.454 174.575 26.9312 172.977 26.9312Z" fill="white"/>
<path d="M111.041 42.3625C110.2 34.1633 102.8 26.5107 94.1798 27.2675C83.626 28.1926 78.0337 38.6624 78.8746 48.3753C78.9167 48.6276 79.0008 48.8798 79.1269 49.048C79.7156 51.9493 81.2293 54.6824 83.626 56.4904C87.2 59.2235 92.0775 59.644 96.4083 59.3076C105.112 58.5928 111.966 51.2765 111.041 42.3625Z" fill="#74A2D6"/>
<path d="M67.6907 69.0626C65.9247 66.6659 63.0234 64.8578 60.0801 64.5635C58.6085 64.1851 57.1368 64.5215 55.7493 65.3203C55.2447 65.5726 54.7822 65.909 54.3617 66.2874C52.0491 68.1796 50.199 71.0808 49.4842 73.2673C47.8444 78.313 50.157 83.4427 55.0344 85.461C59.7017 87.3952 64.9576 86.5122 68.0271 82.3495C71.0124 78.355 70.5919 72.973 67.6907 69.0626Z" fill="#EF86B0"/>
<path d="M74.1655 69.9876C72.9041 68.4739 70.9699 68.6421 69.246 69.0205C67.6482 69.3569 68.3209 71.7956 69.9187 71.4592C70.4233 71.2069 70.9279 71.291 71.3483 71.6274C72.2313 71.7115 72.3995 71.8797 71.8949 72.132C71.6847 72.5525 70.7597 72.8888 70.3812 73.0991C69.3301 73.7298 68.2789 74.3605 67.1857 74.9491C64.9992 76.1265 62.7707 77.1777 60.416 77.9766C58.2296 78.7334 56.0011 79.3641 53.7305 79.7426C52.427 79.9528 51.0815 80.0789 49.736 80.121C49.3155 80.121 48.6848 80.2471 48.2644 80.121C47.5916 80.3312 47.3393 80.163 47.5916 79.5744C47.5075 78.9857 47.8018 78.7334 48.4746 78.7334C49.9883 78.1868 49.3155 75.748 47.8018 76.2947C46.2461 76.8413 44.5642 77.6822 44.354 79.4903C44.1858 81.004 45.1108 82.1813 46.5825 82.4756C51.1236 83.4427 56.842 81.887 61.0888 80.3733C63.4014 79.5744 65.6299 78.5652 67.8164 77.4299C69.7926 76.4208 72.1472 75.3276 73.7871 73.8139C74.8803 72.8047 75.1746 71.249 74.1655 69.9876Z" fill="#F7D06F"/>
<path d="M85.14 70.5762C84.4673 70.6183 83.8786 71.1228 83.8786 71.8376V72.132C83.8786 72.8047 84.4673 73.4354 85.14 73.3934C85.8128 73.3513 86.4014 72.8468 86.4014 72.132V71.8376C86.4014 71.1649 85.8128 70.5342 85.14 70.5762Z" fill="white"/>
<path d="M90.8586 92.3988H90.5643C89.8915 92.3988 89.2608 92.9875 89.3028 93.6602C89.3449 94.333 89.8494 94.9216 90.5643 94.9216H90.8586C91.5314 94.9216 92.1621 94.333 92.12 93.6602C92.078 92.9454 91.5734 92.3988 90.8586 92.3988Z" fill="white"/>
<path d="M101.665 67.5488C100.025 67.5488 100.025 70.0717 101.665 70.0717C103.305 70.0717 103.305 67.5488 101.665 67.5488Z" fill="white"/>
<path d="M152.079 92.609C145.941 88.5304 139.844 84.4098 133.789 80.205C132.906 79.6164 132.107 80.3312 131.981 81.1301C128.785 84.1155 125.548 87.1008 122.352 90.0862C120.124 92.1885 116.297 94.6273 115.498 97.7388C114.868 100.135 116.507 102.28 118.61 103.205C120.964 104.214 123.319 103.625 125.632 102.827C125.337 104.298 125.632 105.77 127.103 106.863C129.626 108.797 132.696 107.536 135.261 106.358C141.61 103.415 147.833 99.9673 152.374 94.5432C152.878 93.9125 152.794 93.0715 152.079 92.609Z" fill="#74A2D6"/>
<path d="M147.202 96.8979C145.016 95.0898 142.829 93.3239 140.643 91.5158C141.82 90.2965 142.955 88.993 144.049 87.6475C148.337 82.2654 151.323 75.8322 151.281 68.8523C151.281 67.2125 148.758 67.2125 148.758 68.8523C148.8 75.664 145.646 81.887 141.315 87.0168C140.475 88.0259 139.592 88.9509 138.709 89.876C136.102 87.6895 133.495 85.5031 130.888 83.2746C129.668 82.2234 127.86 83.9893 129.122 85.0405C131.729 87.269 134.336 89.4555 136.943 91.642C136.186 92.3988 135.387 93.1136 134.588 93.8284C132.149 96.0569 129.668 98.2854 126.641 99.7571C125.169 100.472 126.473 102.658 127.902 101.944C130.972 100.472 133.537 98.1593 136.06 95.8887C136.985 95.0478 137.91 94.1648 138.835 93.2818C141.021 95.0898 143.208 96.8979 145.394 98.6639C146.655 99.7151 148.421 97.9491 147.202 96.8979Z" fill="#57455D"/>
<path d="M125.464 101.271C124.497 99.3367 123.446 97.4866 122.268 95.7206C122.142 95.4683 121.974 95.216 121.848 94.9637C121.722 94.7956 121.595 94.6274 121.469 94.5433C120.712 93.45 119.872 92.3989 119.031 91.3477C118.106 90.2124 116.592 91.5579 117.012 92.7352C116.382 92.9875 115.961 93.7444 116.298 94.5433C116.34 94.6274 116.382 94.7115 116.424 94.7956C115.919 94.5012 115.288 94.6274 114.91 95.0058C114.069 93.7444 112.009 94.9638 112.808 96.3513C114.784 99.8412 117.054 103.079 119.577 106.19C120.418 107.2 121.89 106.106 121.68 105.013C122.184 105.055 122.647 104.761 122.857 104.298C123.277 104.298 123.656 104.046 123.866 103.71C124.287 103.71 124.749 103.415 124.959 103.037C125.464 102.658 125.8 101.986 125.464 101.271Z" fill="#F7D06F"/>
<path d="M119.829 106.737C119.156 105.433 118.441 104.088 117.769 102.784C118.315 102.406 118.862 101.986 119.366 101.523C120.586 100.43 118.778 98.6638 117.6 99.7571C117.264 100.051 116.928 100.304 116.591 100.598C115.877 99.3786 115.204 98.1172 114.447 96.8978C113.9 95.9728 112.429 96.141 112.134 97.1922C111.504 99.4207 111.251 101.649 111.377 103.92C111.42 104.719 112.134 105.391 112.975 105.139C113.9 104.845 114.783 104.508 115.624 104.088C116.339 105.391 117.012 106.695 117.685 107.998C118.357 109.428 120.544 108.167 119.829 106.737ZM113.816 102.112C113.816 101.775 113.858 101.397 113.9 101.061C114.069 101.313 114.195 101.607 114.363 101.859C114.195 101.986 114.026 102.07 113.816 102.112Z" fill="white"/>
<path d="M64.4527 130.283C63.864 126.499 63.4436 122.715 63.1492 118.889C63.0651 117.837 61.8037 117.207 61.0048 118.006C59.7014 119.309 58.8184 120.781 58.2297 122.505C57.6831 124.06 60.1218 124.691 60.6684 123.177C60.7525 122.925 60.8366 122.673 60.9628 122.421C61.2571 125.28 61.5935 128.097 62.056 130.914C62.2662 132.554 64.705 131.881 64.4527 130.283Z" fill="white"/>
<path d="M85.2243 126.709C84.3413 126.878 83.4162 127.088 82.5332 127.256C83.8788 124.523 84.5095 121.285 82.9537 118.552C81.5241 116.029 77.5296 115.609 76.6887 118.805C76.2682 120.36 78.7069 121.033 79.1274 119.477C79.5899 117.795 81.0616 120.444 81.1877 120.823C81.44 121.832 81.3559 122.925 81.1036 123.934C80.7252 125.574 79.8843 127.004 78.9172 128.391C78.2444 129.358 79.3376 130.452 80.3468 130.241C82.1969 129.863 84.0469 129.485 85.897 129.106C87.4948 128.812 86.8221 126.373 85.2243 126.709Z" fill="white"/>
<path d="M103.263 126.331C103.179 124.229 101.623 123.262 99.8569 122.799C101.118 121.496 102.254 119.94 101.329 118.426C99.7728 115.903 96.9977 117.753 94.8953 117.669C93.2555 117.627 93.2555 120.15 94.8953 120.192C95.7363 120.234 98.2171 119.183 98.7637 119.561C99.2683 119.94 96.5772 122.505 96.1988 122.883C95.484 123.682 95.9465 125.07 97.0818 125.028C98.0489 125.028 100.067 124.859 100.614 125.911C100.488 126.457 100.361 127.004 100.235 127.55C99.7308 128.013 99.1421 128.307 98.5114 128.391C97.7125 128.56 96.8295 128.518 96.0306 128.518C94.3908 128.518 94.3908 131.04 96.0306 131.04C98.9319 131.082 103.389 130.241 103.263 126.331Z" fill="white"/>
<path d="M103.935 46.315C97.2498 49.9731 89.8916 52.1595 82.281 52.7062C80.6832 52.8323 80.6412 55.3551 82.281 55.229C90.3541 54.6403 98.1328 52.3698 105.239 48.5014C106.626 47.7025 105.323 45.5161 103.935 46.315Z" fill="#57455D"/>
<path d="M104.944 32.2291C100.235 36.0554 94.3904 37.9895 88.3356 37.9054C86.6958 37.8634 86.6958 40.3862 88.3356 40.4283C95.1052 40.5124 101.496 38.2418 106.752 33.995C107.972 32.9859 106.164 31.2199 104.944 32.2291Z" fill="#57455D"/>
<path d="M91.9097 29.7483C89.5551 31.178 87.0322 31.8507 84.2571 31.7246C82.6173 31.6405 82.6173 34.1633 84.2571 34.2474C87.4107 34.3735 90.4801 33.5747 93.1711 31.9348C94.5587 31.0939 93.2973 28.9074 91.9097 29.7483Z" fill="#57455D"/>
<path d="M62.3083 66.2875C60.248 67.9694 57.8933 69.1467 55.2864 69.7774C53.7306 70.1558 54.3613 72.5946 55.9591 72.2162C58.9865 71.4593 61.6776 70.0297 64.0743 68.0955C65.3777 67.0443 63.5697 65.2784 62.3083 66.2875Z" fill="#57455D"/>
<path d="M59.0703 73.4355C56.4214 74.823 53.6462 75.706 50.6609 75.9583C49.0631 76.1265 49.0631 78.6494 50.6609 78.4812C54.0667 78.1448 57.3044 77.2197 60.3318 75.6219C61.7614 74.8651 60.5 72.6786 59.0703 73.4355Z" fill="#57455D"/>
<path d="M67.1437 80.163C65.5039 81.088 63.822 81.8028 62.0139 82.3074C60.4582 82.7699 61.131 85.2087 62.6867 84.7461C64.6629 84.1575 66.5971 83.3586 68.4051 82.3494C69.8348 81.5505 68.5733 79.3641 67.1437 80.163Z" fill="#57455D"/>
</svg>
