<svg width="31" height="30" viewBox="0 0 31 30" fill="none" xmlns="http://www.w3.org/2000/svg">
<rect width="30" height="30" fill="#F9F9F9"/>
<mask id="mask0" mask-type="alpha" maskUnits="userSpaceOnUse" x="0" y="0" width="31" height="30">
<path fill-rule="evenodd" clip-rule="evenodd" d="M0.223755 15C0.223755 6.71573 6.93948 0 15.2238 0C23.508 0 30.2238 6.71573 30.2238 15C30.2238 23.2843 23.508 30 15.2238 30C6.93948 30 0.223755 23.2843 0.223755 15Z" fill="white"/>
</mask>
<g mask="url(#mask0)">
<path fill-rule="evenodd" clip-rule="evenodd" d="M0.223755 15C0.223755 6.71573 6.93948 0 15.2238 0C23.508 0 30.2238 6.71573 30.2238 15C30.2238 23.2843 23.508 30 15.2238 30C6.93948 30 0.223755 23.2843 0.223755 15Z" fill="#F9F9F9"/>
<path fill-rule="evenodd" clip-rule="evenodd" d="M15.2245 7C13.0518 7 12.7791 7.0095 11.9258 7.04833C11.0741 7.08733 10.4928 7.22217 9.98412 7.42C9.45794 7.62434 9.01161 7.89768 8.56694 8.34251C8.12193 8.78719 7.84859 9.23352 7.64359 9.75953C7.44526 10.2684 7.31026 10.8499 7.27192 11.7012C7.23375 12.5546 7.22375 12.8274 7.22375 15.0001C7.22375 17.1728 7.23342 17.4446 7.27209 18.298C7.31126 19.1496 7.44609 19.731 7.64376 20.2396C7.84826 20.7658 8.1216 21.2121 8.56644 21.6568C9.01094 22.1018 9.45728 22.3758 9.98312 22.5802C10.4921 22.778 11.0736 22.9128 11.9251 22.9518C12.7785 22.9907 13.051 23.0002 15.2235 23.0002C17.3964 23.0002 17.6682 22.9907 18.5215 22.9518C19.3732 22.9128 19.9552 22.778 20.4642 22.5802C20.9902 22.3758 21.4359 22.1018 21.8804 21.6568C22.3254 21.2121 22.5987 20.7658 22.8038 20.2398C23.0004 19.731 23.1354 19.1495 23.1754 18.2981C23.2138 17.4448 23.2238 17.1728 23.2238 15.0001C23.2238 12.8274 23.2138 12.5547 23.1754 11.7014C23.1354 10.8497 23.0004 10.2684 22.8038 9.7597C22.5987 9.23352 22.3254 8.78719 21.8804 8.34251C21.4354 7.89751 20.9904 7.62417 20.4637 7.42C19.9537 7.22217 19.372 7.08733 18.5204 7.04833C17.667 7.0095 17.3954 7 15.222 7H15.2245ZM14.5068 8.44167C14.7198 8.44133 14.9575 8.44167 15.2245 8.44167C17.3605 8.44167 17.6137 8.44933 18.4572 8.48767C19.2372 8.52333 19.6605 8.65367 19.9426 8.76317C20.3159 8.90817 20.5821 9.08151 20.8619 9.36151C21.1419 9.64151 21.3152 9.90818 21.4606 10.2815C21.5701 10.5632 21.7006 10.9865 21.7361 11.7665C21.7744 12.6099 21.7827 12.8632 21.7827 14.9982C21.7827 17.1333 21.7744 17.3866 21.7361 18.2299C21.7004 19.0099 21.5701 19.4333 21.4606 19.715C21.3156 20.0883 21.1419 20.3541 20.8619 20.634C20.5819 20.914 20.3161 21.0873 19.9426 21.2323C19.6609 21.3423 19.2372 21.4723 18.4572 21.508C17.6139 21.5463 17.3605 21.5546 15.2245 21.5546C13.0883 21.5546 12.8351 21.5463 11.9918 21.508C11.2118 21.472 10.7885 21.3416 10.5063 21.2321C10.1329 21.0871 9.86628 20.9138 9.58628 20.6338C9.30627 20.3538 9.13294 20.0878 8.9876 19.7143C8.8781 19.4326 8.7476 19.0093 8.7121 18.2293C8.67377 17.3859 8.6661 17.1326 8.6661 14.9962C8.6661 12.8599 8.67377 12.6079 8.7121 11.7645C8.74777 10.9845 8.8781 10.5612 8.9876 10.2792C9.1326 9.90585 9.30627 9.63918 9.58628 9.35918C9.86628 9.07917 10.1329 8.90584 10.5063 8.7605C10.7883 8.6505 11.2118 8.5205 11.9918 8.48467C12.7298 8.45133 13.0158 8.44133 14.5068 8.43967V8.44167ZM19.4949 9.77002C18.9649 9.77002 18.5349 10.1995 18.5349 10.7297C18.5349 11.2597 18.9649 11.6897 19.4949 11.6897C20.0249 11.6897 20.4549 11.2597 20.4549 10.7297C20.4549 10.1997 20.0249 9.76968 19.4949 9.76968V9.77002ZM15.2245 10.8917C12.9556 10.8917 11.1161 12.7312 11.1161 15.0001C11.1161 17.2689 12.9556 19.1076 15.2245 19.1076C17.4934 19.1076 19.3322 17.2689 19.3322 15.0001C19.3322 12.7312 17.4932 10.8917 15.2243 10.8917H15.2245ZM15.2245 12.3334C16.6972 12.3334 17.8912 13.5272 17.8912 15.0001C17.8912 16.4728 16.6972 17.6668 15.2245 17.6668C13.7517 17.6668 12.5578 16.4728 12.5578 15.0001C12.5578 13.5272 13.7517 12.3334 15.2245 12.3334Z" fill="#112A62"/>
</g>
</svg>
