<svg width="30" height="30" viewBox="0 0 30 30" fill="none" xmlns="http://www.w3.org/2000/svg">
<rect width="30" height="30" fill="#F9F9F9"/>
<path fill-rule="evenodd" clip-rule="evenodd" d="M23.2227 9.62981C22.6152 9.90701 21.9625 10.0936 21.2776 10.1784C21.9767 9.74747 22.5138 9.06534 22.7666 8.25282C22.1122 8.65166 21.3873 8.94131 20.6157 9.0974C19.9981 8.42136 19.1175 8 18.1434 8C16.2731 8 14.7563 9.55825 14.7563 11.4796C14.7563 11.7525 14.7859 12.0181 14.844 12.2727C12.0285 12.127 9.53234 10.741 7.86198 8.63682C7.57047 9.15093 7.40344 9.74826 7.40344 10.3859C7.40344 11.593 8.00141 12.6579 8.90999 13.2824C8.35535 13.2639 7.8327 13.1075 7.37609 12.8465V12.8902C7.37609 14.577 8.5447 15.9829 10.0925 16.3029C9.80876 16.3824 9.50951 16.4248 9.20175 16.4248C8.98351 16.4248 8.77094 16.4036 8.56456 16.3625C8.99538 17.7453 10.2465 18.7513 11.7286 18.7794C10.5693 19.7122 9.10862 20.2687 7.52107 20.2687C7.24762 20.2687 6.97856 20.2528 6.71362 20.2202C8.21243 21.2077 9.99321 21.7838 11.9059 21.7838C18.1359 21.7838 21.5431 16.481 21.5431 11.883C21.5431 11.732 21.5397 11.5823 21.5333 11.4325C22.1952 10.9423 22.7697 10.3288 23.2238 9.63047" fill="#112A62"/>
</svg>
